<svg width="100" height="111" viewBox="0 0 100 111" fill="none" xmlns="http://www.w3.org/2000/svg">
<g clip-path="url(#clip0_56_609)">
<path d="M40.5968 6.2781C41.0495 3.92389 43.1095 2.22233 45.5068 2.22233H54.4933C56.8906 2.22233 58.9506 3.92389 59.4033 6.27809L61.0059 14.6114C61.5989 17.6951 59.236 20.5557 56.0958 20.5557H43.9043C40.7641 20.5557 38.4012 17.6951 38.9942 14.6114L40.5968 6.2781Z" fill="#CFB529" stroke="black" stroke-width="3.33333"/>
<g clip-path="url(#clip1_56_609)">
<circle cx="50" cy="60.5557" r="48.3333" fill="#67CBE0" fill-opacity="0.21" stroke="black" stroke-width="3.33333"/>
<g clip-path="url(#clip2_56_609)">
<circle cx="56.9999" cy="41.8778" r="12.8778" fill="white" stroke="black" stroke-width="1.35556"/>
<circle cx="57" cy="67.6331" r="19.6556" fill="white" stroke="black" stroke-width="1.35556"/>
<circle cx="57" cy="70.3444" r="2.03333" fill="#222222"/>
<circle cx="57" cy="62.8888" r="2.03333" fill="#222222"/>
<circle cx="57" cy="77.8004" r="2.03333" fill="#222222"/>
<rect x="47.1721" y="51.0279" width="4.74444" height="19.6556" rx="1.01667" fill="#A90101" stroke="black" stroke-width="0.677778"/>
<mask id="path-11-inside-1_56_609" fill="white">
<path d="M46.8333 51.3667H52.2555V60.8556H46.8333V51.3667Z"/>
</mask>
<path d="M46.8333 51.3667H52.2555V60.8556H46.8333V51.3667Z" fill="#DE0D0D"/>
<path d="M51.5777 51.3667V60.8556H52.9333V51.3667H51.5777ZM47.511 60.8556V51.3667H46.1555V60.8556H47.511Z" fill="black" mask="url(#path-11-inside-1_56_609)"/>
<rect x="43.7833" y="47.6392" width="26.4333" height="4.74444" rx="1.69444" fill="#A90101" stroke="black" stroke-width="0.677778"/>
<mask id="path-14-inside-2_56_609" fill="white">
<path d="M52.2556 47.3003H61.7445V52.7225H52.2556V47.3003Z"/>
</mask>
<path d="M52.2556 47.3003H61.7445V52.7225H52.2556V47.3003Z" fill="#DE0D0D"/>
<path d="M52.2556 47.9781H61.7445V46.6225H52.2556V47.9781ZM61.7445 52.0447H52.2556V53.4003H61.7445V52.0447Z" fill="black" mask="url(#path-14-inside-2_56_609)"/>
</g>
<circle cx="51.2389" cy="39.5055" r="1.69444" fill="#222222"/>
<circle cx="62.7611" cy="39.5055" r="1.69444" fill="#222222"/>
<circle cx="57" cy="42.5558" r="1.69444" fill="#CD651A" stroke="black" stroke-width="0.677778"/>
<circle cx="73.3333" cy="27.2223" r="1.66667" fill="white"/>
<circle cx="41.6667" cy="25.5558" r="1.66667" fill="white"/>
<circle cx="61.6667" cy="52.2223" r="1.66667" fill="white"/>
<circle cx="44.1667" cy="33.0555" r="0.833333" fill="white"/>
<circle cx="75.8333" cy="53.0555" r="0.833333" fill="white"/>
<circle cx="76.6667" cy="42.2223" r="1.66667" fill="white"/>
<circle cx="89.1667" cy="78.0555" r="0.833333" fill="white"/>
<circle cx="29.1667" cy="56.389" r="0.833333" fill="white"/>
<circle cx="19.1667" cy="69.7225" r="0.833333" fill="white"/>
<circle cx="22.5" cy="43.0555" r="0.833333" fill="white"/>
<circle cx="86.6667" cy="48.8888" r="1.66667" fill="white"/>
<circle cx="18.3333" cy="33.8888" r="1.66667" fill="white"/>
<circle cx="11.6667" cy="57.2223" r="1.66667" fill="white"/>
<circle cx="25" cy="72.2223" r="1.66667" fill="white"/>
<circle cx="85" cy="72.2223" r="1.66667" fill="white"/>
<circle cx="90" cy="57.2223" r="1.66667" fill="white"/>
<circle cx="33.3333" cy="35.5558" r="1.66667" fill="white"/>
<circle cx="31.6667" cy="65.5558" r="1.66667" fill="white"/>
<circle cx="26.6667" cy="48.8888" r="1.66667" fill="white"/>
<path d="M6.66663 91.3892C27.2682 77.0646 65 78.0559 90 85.5558C115 93.0558 81.6666 107.223 81.6666 107.223L23.3333 112.223L6.66663 91.3892Z" fill="white"/>
<path d="M30 28.8892L44.1667 63.0558L13.3334 43.0558L30 28.8892Z" fill="#D1D3F1" fill-opacity="0.4"/>
<path d="M15.8334 56.3892L20 92.2225L0.833374 73.0558L15.8334 56.3892Z" fill="#D1D3F1" fill-opacity="0.4"/>
<path d="M88.3334 55.5557L58.3334 59.7223L80.8334 35.5557L88.3334 55.5557Z" fill="#D1D3F1" fill-opacity="0.4"/>
<path d="M37.5 24.7222H66.6667L68.3333 12.2222L37.5 24.7222Z" fill="#D1D3F1" fill-opacity="0.4"/>
<path d="M43.3333 104.722L30 77.2222L70 90.5555L43.3333 104.722Z" fill="#D1D3F1" fill-opacity="0.4"/>
<path d="M35.3561 34.6082C35.6966 32.9059 38.0879 32.7934 38.5868 34.4562L43.523 50.9101C43.8438 51.9794 43.043 53.0557 41.9266 53.0557H33.6996C32.6479 53.0557 31.8591 52.0935 32.0653 51.0621L35.3561 34.6082Z" fill="#9FD9E6" fill-opacity="0.75"/>
<path d="M61.7362 19.6877C62.5999 19.2559 63.6487 19.646 64.02 20.5374L66.204 25.7788C66.7348 27.0527 65.576 28.3828 64.2414 28.0316L55.9424 25.8477C54.4558 25.4565 54.2463 23.4326 55.6212 22.7452L61.7362 19.6877Z" fill="#9FD9E6"/>
<path d="M34.4303 73.8021C33.6163 72.3551 35.1876 70.7376 36.6577 71.5094L62.1204 84.8773C63.323 85.5087 63.3059 87.2363 62.091 87.8437L48.0865 94.8459C47.2914 95.2435 46.3243 94.9471 45.8885 94.1723L34.4303 73.8021Z" fill="#9FD9E6" fill-opacity="0.75"/>
<path d="M76.345 49.7425C76.7512 48.2701 78.7593 48.0742 79.4424 49.4404L83.5688 57.6932C83.9182 58.3919 83.7354 59.2395 83.1291 59.7321L74.8763 66.4375C73.6173 67.4604 71.7873 66.2645 72.2186 64.7007L76.345 49.7425Z" fill="#9FD9E6" fill-opacity="0.75"/>
<path d="M8.33337 57.1663C8.33337 55.4348 10.6466 54.8516 11.4675 56.3762L23.4184 78.5708C24.1822 79.9892 22.689 81.5583 21.2344 80.8657L9.28349 75.1748C8.70308 74.8984 8.33337 74.3128 8.33337 73.67V57.1663Z" fill="#9FD9E6"/>
<path d="M78.3334 80.3069C78.3334 78.7315 80.3173 78.0356 81.3015 79.2658L83.7998 82.3887C84.4333 83.1806 84.2187 84.35 83.3453 84.8653L80.8469 86.3393C79.7359 86.9948 78.3334 86.1938 78.3334 84.9038V80.3069Z" fill="#BADDE4"/>
<path d="M31.3151 25.9357C32.0374 24.6068 30.7586 23.0804 29.3237 23.5587L24.9715 25.0095C24.0763 25.3079 23.6071 26.2892 23.937 27.1733L25.3878 31.0613C25.8875 32.4006 27.731 32.5305 28.4136 31.2745L31.3151 25.9357Z" fill="#BADDE4"/>
<path d="M61.8141 52.2078C62.7567 50.592 65.2366 51.5161 64.8919 53.3547L64.3247 56.3799C64.2255 56.9087 63.8772 57.3571 63.3893 57.584L61.9303 58.2624C60.4886 58.9328 59.0163 57.3961 59.7477 55.9844L60.8333 53.8892L61.8141 52.2078Z" fill="#BADDE4" fill-opacity="0.75"/>
<path d="M14.639 41.7344C14.7626 40.1895 12.8951 39.3271 11.7991 40.423L8.30437 43.9178C7.81924 44.4029 7.68096 45.1358 7.95595 45.7643L10.6741 51.9773C11.3687 53.565 13.7242 53.1697 13.8624 51.4422L14.639 41.7344Z" fill="#BADDE4"/>
</g>
<rect x="1.66667" y="12.2223" width="96.6667" height="96.6667" rx="48.3333" stroke="black" stroke-width="3.33333"/>
</g>
<defs>
<clipPath id="clip0_56_609">
<rect width="100" height="110" fill="white" transform="translate(0 0.555664)"/>
</clipPath>
<clipPath id="clip1_56_609">
<rect y="10.5557" width="100" height="100" rx="50" fill="white"/>
</clipPath>
<clipPath id="clip2_56_609">
<rect width="40.6667" height="67.7778" fill="white" transform="translate(36.6666 22.2222)"/>
</clipPath>
</defs>
</svg>
