<svg width="29" height="29" viewBox="0 0 29 29" fill="none" xmlns="http://www.w3.org/2000/svg">
<mask id="path-1-inside-1_56_481" fill="white">
<path fill-rule="evenodd" clip-rule="evenodd" d="M1.61318 0.0999561C0.691172 -0.313523 -0.253465 0.631115 0.160015 1.55312L5.74996 14.0179C5.87831 14.3042 5.87831 14.6316 5.74996 14.9178L0.160042 27.3826C-0.253435 28.3046 0.691201 29.2492 1.6132 28.8357L14.078 23.2458C14.3642 23.1175 14.6916 23.1175 14.9778 23.2458L27.4427 28.8358C28.3647 29.2493 29.3093 28.3046 28.8958 27.3826L23.3059 14.9178C23.1775 14.6316 23.1775 14.3042 23.3059 14.018L28.8958 1.55314C29.3093 0.631142 28.3646 -0.313493 27.4426 0.0999843L14.9778 5.6899C14.6916 5.81826 14.3642 5.81826 14.078 5.6899L1.61318 0.0999561ZM14.5279 18.8659C16.9568 18.8659 18.9259 16.8968 18.9259 14.4679C18.9259 12.0389 16.9568 10.0698 14.5279 10.0698C12.0989 10.0698 10.1298 12.0389 10.1298 14.4679C10.1298 16.8968 12.0989 18.8659 14.5279 18.8659Z"/>
</mask>
<path fill-rule="evenodd" clip-rule="evenodd" d="M1.61318 0.0999561C0.691172 -0.313523 -0.253465 0.631115 0.160015 1.55312L5.74996 14.0179C5.87831 14.3042 5.87831 14.6316 5.74996 14.9178L0.160042 27.3826C-0.253435 28.3046 0.691201 29.2492 1.6132 28.8357L14.078 23.2458C14.3642 23.1175 14.6916 23.1175 14.9778 23.2458L27.4427 28.8358C28.3647 29.2493 29.3093 28.3046 28.8958 27.3826L23.3059 14.9178C23.1775 14.6316 23.1775 14.3042 23.3059 14.018L28.8958 1.55314C29.3093 0.631142 28.3646 -0.313493 27.4426 0.0999843L14.9778 5.6899C14.6916 5.81826 14.3642 5.81826 14.078 5.6899L1.61318 0.0999561ZM14.5279 18.8659C16.9568 18.8659 18.9259 16.8968 18.9259 14.4679C18.9259 12.0389 16.9568 10.0698 14.5279 10.0698C12.0989 10.0698 10.1298 12.0389 10.1298 14.4679C10.1298 16.8968 12.0989 18.8659 14.5279 18.8659Z" fill="white"/>
<path d="M0.160015 1.55312L-0.843232 2.00303L0.160015 1.55312ZM1.61318 0.0999561L1.16326 1.1032L1.61318 0.0999561ZM5.74996 14.0179L6.75321 13.568L6.75321 13.568L5.74996 14.0179ZM5.74996 14.9178L4.74671 14.4679L4.74671 14.4679L5.74996 14.9178ZM0.160042 27.3826L-0.843206 26.9327H-0.843206L0.160042 27.3826ZM1.6132 28.8357L2.06312 29.839H2.06312L1.6132 28.8357ZM14.078 23.2458L14.5279 24.2491H14.5279L14.078 23.2458ZM14.9778 23.2458L15.4278 22.2426L15.4278 22.2426L14.9778 23.2458ZM27.4427 28.8358L26.9928 29.839L27.4427 28.8358ZM28.8958 27.3826L29.8991 26.9327V26.9327L28.8958 27.3826ZM23.3059 14.9178L22.3026 15.3677V15.3677L23.3059 14.9178ZM23.3059 14.018L24.3091 14.4679V14.4679L23.3059 14.018ZM28.8958 1.55314L27.8926 1.10323V1.10323L28.8958 1.55314ZM27.4426 0.0999843L26.9927 -0.903264V-0.903264L27.4426 0.0999843ZM14.9778 5.6899L15.4277 6.69315L15.4277 6.69315L14.9778 5.6899ZM14.078 5.6899L14.5279 4.68666L14.5279 4.68666L14.078 5.6899ZM1.16326 1.1032L1.16326 1.1032L2.06309 -0.903291C0.21908 -1.73025 -1.67019 0.159028 -0.843232 2.00303L1.16326 1.1032ZM6.75321 13.568L1.16326 1.1032L-0.843232 2.00303L4.74671 14.4679L6.75321 13.568ZM6.75321 15.3677C7.00991 14.7953 7.00991 14.1404 6.75321 13.568L4.74671 14.4679L4.74671 14.4679L6.75321 15.3677ZM1.16329 27.8325L6.75321 15.3677L4.74671 14.4679L-0.843206 26.9327L1.16329 27.8325ZM1.16329 27.8325H1.16329L-0.843206 26.9327C-1.67016 28.7767 0.219114 30.6659 2.06312 29.839L1.16329 27.8325ZM13.6281 22.2426L1.16329 27.8325L2.06312 29.839L14.5279 24.2491L13.6281 22.2426ZM15.4278 22.2426C14.8553 21.9859 14.2005 21.9859 13.6281 22.2426L14.5279 24.2491H14.5279L15.4278 22.2426ZM27.8926 27.8325L15.4278 22.2426L14.5279 24.2491L26.9928 29.839L27.8926 27.8325ZM27.8926 27.8325V27.8325L26.9928 29.839C28.8368 30.666 30.726 28.7767 29.8991 26.9327L27.8926 27.8325ZM22.3026 15.3677L27.8926 27.8325L29.8991 26.9327L24.3091 14.4679L22.3026 15.3677ZM22.3026 13.568C22.0459 14.1405 22.0459 14.7953 22.3026 15.3677L24.3091 14.4679L22.3026 13.568ZM27.8926 1.10323L22.3026 13.568L24.3091 14.4679L29.899 2.00306L27.8926 1.10323ZM27.8926 1.10323L27.8926 1.10323L29.899 2.00306C30.726 0.159046 28.8367 -1.73022 26.9927 -0.903264L27.8926 1.10323ZM15.4277 6.69315L27.8926 1.10323L26.9927 -0.903264L14.5279 4.68666L15.4277 6.69315ZM13.6281 6.69315C14.2005 6.94986 14.8553 6.94986 15.4277 6.69315L14.5279 4.68666L14.5279 4.68666L13.6281 6.69315ZM1.16326 1.1032L13.6281 6.69315L14.5279 4.68666L2.06309 -0.903291L1.16326 1.1032ZM17.8264 14.4679C17.8264 16.2896 16.3496 17.7664 14.5279 17.7664V19.9654C17.5641 19.9654 20.0254 17.5041 20.0254 14.4679H17.8264ZM14.5279 11.1693C16.3496 11.1693 17.8264 12.6461 17.8264 14.4679H20.0254C20.0254 11.4316 17.5641 8.9703 14.5279 8.9703V11.1693ZM11.2293 14.4679C11.2293 12.6461 12.7061 11.1693 14.5279 11.1693V8.9703C11.4916 8.9703 9.0303 11.4316 9.0303 14.4679H11.2293ZM14.5279 17.7664C12.7061 17.7664 11.2293 16.2896 11.2293 14.4679H9.0303C9.0303 17.5041 11.4916 19.9654 14.5279 19.9654V17.7664Z" fill="white" mask="url(#path-1-inside-1_56_481)"/>
</svg>
