<svg width="54" height="55" viewBox="0 0 54 55" fill="none" xmlns="http://www.w3.org/2000/svg">
<path d="M25.8482 1.43834C26.1848 0.287446 27.8152 0.287447 28.1518 1.43834L33.6038 20.0812C33.7187 20.4741 34.0259 20.7813 34.4188 20.8962L53.0617 26.3482C54.2126 26.6848 54.2126 28.3152 53.0617 28.6518L34.4188 34.1038C34.0259 34.2187 33.7187 34.5259 33.6038 34.9188L28.1518 53.5617C27.8152 54.7126 26.1848 54.7126 25.8482 53.5617L20.3962 34.9188C20.2813 34.5259 19.9741 34.2187 19.5812 34.1038L0.938342 28.6518C-0.212554 28.3152 -0.212553 26.6848 0.938342 26.3482L19.5812 20.8962C19.9741 20.7813 20.2813 20.4741 20.3962 20.0812L25.8482 1.43834Z" fill="white"/>
</svg>
