<svg width="180" height="236" viewBox="0 0 180 236" fill="none" xmlns="http://www.w3.org/2000/svg">
<g filter="url(#filter0_d_201_195)">
<mask id="path-1-inside-1_201_195" fill="white">
<path fill-rule="evenodd" clip-rule="evenodd" d="M100.975 14.042C95.5237 6.65266 84.4755 6.65267 79.024 14.042L44.2237 61.2133C38.6306 68.7947 42.304 79.0184 50.2835 82.0605L24.6434 116.887C18.4545 125.294 23.6451 136.936 33.4589 138.448L12.6982 166.516C6.03941 175.519 12.4661 188.266 23.6637 188.266H64.9162V200.531C64.9162 210.574 73.0581 218.716 83.1017 218.716H95.5201C105.564 218.716 113.706 210.574 113.706 200.531V188.266H156.336C167.534 188.266 173.96 175.519 167.302 166.516L146.449 138.324C155.812 136.385 160.616 125.094 154.574 116.887L129.095 82.2796C137.501 79.543 141.512 68.9886 135.775 61.2133L100.975 14.042Z"/>
</mask>
<path fill-rule="evenodd" clip-rule="evenodd" d="M100.975 14.042C95.5237 6.65266 84.4755 6.65267 79.024 14.042L44.2237 61.2133C38.6306 68.7947 42.304 79.0184 50.2835 82.0605L24.6434 116.887C18.4545 125.294 23.6451 136.936 33.4589 138.448L12.6982 166.516C6.03941 175.519 12.4661 188.266 23.6637 188.266H64.9162V200.531C64.9162 210.574 73.0581 218.716 83.1017 218.716H95.5201C105.564 218.716 113.706 210.574 113.706 200.531V188.266H156.336C167.534 188.266 173.96 175.519 167.302 166.516L146.449 138.324C155.812 136.385 160.616 125.094 154.574 116.887L129.095 82.2796C137.501 79.543 141.512 68.9886 135.775 61.2133L100.975 14.042Z" fill="#116910"/>
<path d="M79.024 14.042L71.707 8.64391L71.707 8.64392L79.024 14.042ZM100.975 14.042L93.6581 19.4401L93.6581 19.4401L100.975 14.042ZM44.2237 61.2133L51.5408 66.6114L51.5408 66.6113L44.2237 61.2133ZM50.2835 82.0605L57.6059 87.4513L64.6942 77.8233L53.5227 73.5643L50.2835 82.0605ZM24.6434 116.887L17.3211 111.497L17.3211 111.497L24.6434 116.887ZM33.4589 138.448L40.7692 143.856L49.7195 131.755L34.8443 129.462L33.4589 138.448ZM12.6982 166.516L20.0085 171.923L20.0085 171.923L12.6982 166.516ZM64.9162 188.266H74.0089V179.173H64.9162V188.266ZM113.706 188.266V179.173H104.613V188.266H113.706ZM167.302 166.516L174.612 161.109L174.612 161.109L167.302 166.516ZM146.449 138.324L144.605 129.42L130.685 132.302L139.138 143.731L146.449 138.324ZM154.574 116.887L161.896 111.497L154.574 116.887ZM129.095 82.2796L126.28 73.6335L114.308 77.5312L121.773 87.6705L129.095 82.2796ZM135.775 61.2133L128.458 66.6113L128.458 66.6113L135.775 61.2133ZM86.341 19.4401C88.1582 16.977 91.8409 16.977 93.6581 19.4401L108.292 8.64391C99.2064 -3.67165 80.7927 -3.67162 71.707 8.64391L86.341 19.4401ZM51.5408 66.6113L86.3411 19.4401L71.707 8.64392L36.9067 55.8152L51.5408 66.6113ZM53.5227 73.5643C50.8222 72.5347 49.7323 69.0627 51.5408 66.6114L36.9067 55.8152C27.5289 68.5267 33.7858 85.502 47.0444 90.5567L53.5227 73.5643ZM31.9658 122.278L57.6059 87.4513L42.9612 76.6697L17.3211 111.497L31.9658 122.278ZM34.8443 129.462C31.6062 128.963 29.9317 125.041 31.9658 122.278L17.3211 111.497C6.97721 125.547 15.684 144.908 32.0735 147.435L34.8443 129.462ZM20.0085 171.923L40.7692 143.856L26.1486 133.041L5.38793 161.109L20.0085 171.923ZM23.6637 179.173C19.9312 179.173 17.7889 174.924 20.0085 171.923L5.38794 161.109C-5.71009 176.113 5.00106 197.359 23.6637 197.359V179.173ZM64.9162 179.173H23.6637V197.359H64.9162V179.173ZM74.0089 200.531V188.266H55.8234V200.531H74.0089ZM83.1017 209.623C78.0799 209.623 74.0089 205.552 74.0089 200.531H55.8234C55.8234 215.596 68.0363 227.809 83.1017 227.809V209.623ZM95.5201 209.623H83.1017V227.809H95.5201V209.623ZM104.613 200.531C104.613 205.552 100.542 209.623 95.5201 209.623V227.809C110.585 227.809 122.798 215.596 122.798 200.531H104.613ZM104.613 188.266V200.531H122.798V188.266H104.613ZM156.336 179.173H113.706V197.359H156.336V179.173ZM159.991 171.923C162.211 174.924 160.069 179.173 156.336 179.173V197.359C174.999 197.359 185.71 176.113 174.612 161.109L159.991 171.923ZM139.138 143.731L159.991 171.923L174.612 161.109L153.759 132.917L139.138 143.731ZM147.251 122.278C149.228 124.963 147.704 128.778 144.605 129.42L148.292 147.228C163.92 143.992 172.004 125.226 161.896 111.497L147.251 122.278ZM121.773 87.6705L147.251 122.278L161.896 111.497L136.417 76.8888L121.773 87.6705ZM128.458 66.6113C130.319 69.1331 129.101 72.7152 126.28 73.6335L131.91 90.9258C145.901 86.3708 152.704 68.844 143.092 55.8152L128.458 66.6113ZM93.6581 19.4401L128.458 66.6113L143.092 55.8152L108.292 8.64391L93.6581 19.4401Z" fill="white" mask="url(#path-1-inside-1_201_195)"/>
</g>
<defs>
<filter id="filter0_d_201_195" x="-6" y="0.5" width="192" height="242.216" filterUnits="userSpaceOnUse" color-interpolation-filters="sRGB">
<feFlood flood-opacity="0" result="BackgroundImageFix"/>
<feColorMatrix in="SourceAlpha" type="matrix" values="0 0 0 0 0 0 0 0 0 0 0 0 0 0 0 0 0 0 127 0" result="hardAlpha"/>
<feOffset dy="8"/>
<feGaussianBlur stdDeviation="8"/>
<feComposite in2="hardAlpha" operator="out"/>
<feColorMatrix type="matrix" values="0 0 0 0 0 0 0 0 0 0 0 0 0 0 0 0 0 0 0.45 0"/>
<feBlend mode="normal" in2="BackgroundImageFix" result="effect1_dropShadow_201_195"/>
<feBlend mode="normal" in="SourceGraphic" in2="effect1_dropShadow_201_195" result="shape"/>
</filter>
</defs>
</svg>
