<svg width="588" height="649" viewBox="0 0 588 649" fill="none" xmlns="http://www.w3.org/2000/svg">
<g clip-path="url(#clip0_37_583)">
<g clip-path="url(#clip1_37_583)">
<path d="M217.872 187.319C216.151 189.243 214.074 190.463 212.146 190.915C210.215 191.367 208.53 191.037 207.4 190.025C206.269 189.013 205.754 187.375 205.99 185.406C206.226 183.44 207.209 181.241 208.93 179.317C210.652 177.393 212.728 176.173 214.656 175.722C216.588 175.269 218.272 175.6 219.403 176.611C220.534 177.623 221.048 179.261 220.812 181.231C220.577 183.197 219.594 185.396 217.872 187.319Z" fill="#FF00F5" stroke="black" stroke-width="2"/>
<mask id="path-2-inside-1_37_583" fill="white">
<rect x="220.502" y="170.885" width="6" height="6" rx="1" transform="rotate(41.8247 220.502 170.885)"/>
</mask>
<rect x="220.502" y="170.885" width="6" height="6" rx="1" transform="rotate(41.8247 220.502 170.885)" fill="black" stroke="black" stroke-width="4" mask="url(#path-2-inside-1_37_583)"/>
</g>
<g clip-path="url(#clip2_37_583)">
<path d="M246.313 206.44C244.976 208.647 243.159 210.229 241.348 211.028C239.533 211.829 237.816 211.814 236.518 211.028C235.221 210.242 234.413 208.727 234.282 206.748C234.152 204.772 234.713 202.429 236.05 200.222C237.388 198.014 239.204 196.432 241.016 195.633C242.831 194.833 244.548 194.847 245.845 195.633C247.143 196.419 247.95 197.934 248.081 199.914C248.212 201.889 247.651 204.232 246.313 206.44Z" fill="#FF00F5" stroke="black" stroke-width="2"/>
<mask id="path-4-inside-2_37_583" fill="white">
<rect x="245.87" y="189.802" width="6" height="6" rx="1" transform="rotate(31.2092 245.87 189.802)"/>
</mask>
<rect x="245.87" y="189.802" width="6" height="6" rx="1" transform="rotate(31.2092 245.87 189.802)" fill="black" stroke="black" stroke-width="4" mask="url(#path-4-inside-2_37_583)"/>
</g>
<g clip-path="url(#clip3_37_583)">
<path d="M279.039 220.979C278.083 223.377 276.552 225.237 274.897 226.323C273.239 227.412 271.543 227.681 270.134 227.119C268.724 226.557 267.678 225.196 267.223 223.265C266.768 221.338 266.936 218.935 267.891 216.537C268.847 214.139 270.378 212.28 272.033 211.193C273.691 210.105 275.387 209.836 276.796 210.398C278.206 210.959 279.252 212.32 279.707 214.251C280.161 216.178 279.994 218.581 279.039 220.979Z" fill="#FF00F5" stroke="black" stroke-width="2"/>
<mask id="path-6-inside-3_37_583" fill="white">
<rect x="275.86" y="204.642" width="6" height="6" rx="1" transform="rotate(21.7248 275.86 204.642)"/>
</mask>
<rect x="275.86" y="204.642" width="6" height="6" rx="1" transform="rotate(21.7248 275.86 204.642)" fill="black" stroke="black" stroke-width="4" mask="url(#path-6-inside-3_37_583)"/>
</g>
<g clip-path="url(#clip4_37_583)">
<path d="M318.508 229.757C318.061 232.299 316.941 234.432 315.542 235.833C314.14 237.237 312.535 237.845 311.041 237.582C309.547 237.32 308.245 236.2 307.406 234.403C306.568 232.609 306.242 230.222 306.689 227.68C307.136 225.137 308.256 223.005 309.655 221.604C311.057 220.2 312.663 219.592 314.157 219.854C315.651 220.117 316.953 221.236 317.792 223.034C318.629 224.828 318.955 227.215 318.508 229.757Z" fill="#FF00F5" stroke="black" stroke-width="2"/>
<mask id="path-8-inside-4_37_583" fill="white">
<rect x="312.067" y="214.41" width="6" height="6" rx="1" transform="rotate(9.96879 312.067 214.41)"/>
</mask>
<rect x="312.067" y="214.41" width="6" height="6" rx="1" transform="rotate(9.96879 312.067 214.41)" fill="black" stroke="black" stroke-width="4" mask="url(#path-8-inside-4_37_583)"/>
</g>
<g clip-path="url(#clip5_37_583)">
<path d="M357.904 232.235C357.82 234.815 357.011 237.084 355.824 238.668C354.634 240.255 353.13 241.084 351.614 241.035C350.098 240.985 348.651 240.061 347.567 238.399C346.485 236.741 345.826 234.424 345.91 231.844C345.994 229.264 346.802 226.995 347.99 225.411C349.18 223.824 350.683 222.995 352.2 223.044C353.716 223.093 355.162 224.018 356.247 225.68C357.329 227.338 357.988 229.654 357.904 232.235Z" fill="#FF00F5" stroke="black" stroke-width="2"/>
<mask id="path-10-inside-5_37_583" fill="white">
<rect x="349.364" y="217.949" width="6" height="6" rx="1" transform="rotate(1.86396 349.364 217.949)"/>
</mask>
<rect x="349.364" y="217.949" width="6" height="6" rx="1" transform="rotate(1.86396 349.364 217.949)" fill="black" stroke="black" stroke-width="4" mask="url(#path-10-inside-5_37_583)"/>
</g>
<g clip-path="url(#clip6_37_583)">
<path d="M398.592 233.04C398.704 235.619 398.069 237.943 397.005 239.612C395.939 241.285 394.502 242.225 392.986 242.291C391.471 242.356 389.958 241.543 388.752 239.969C387.547 238.397 386.715 236.137 386.604 233.558C386.492 230.979 387.126 228.655 388.191 226.986C389.257 225.313 390.694 224.373 392.209 224.307C393.725 224.242 395.237 225.055 396.444 226.629C397.649 228.201 398.481 230.461 398.592 233.04Z" fill="#FF00F5" stroke="black" stroke-width="2"/>
<mask id="path-12-inside-6_37_583" fill="white">
<rect x="388.996" y="219.441" width="6" height="6" rx="1" transform="rotate(-2.47379 388.996 219.441)"/>
</mask>
<rect x="388.996" y="219.441" width="6" height="6" rx="1" transform="rotate(-2.47379 388.996 219.441)" fill="black" stroke="black" stroke-width="4" mask="url(#path-12-inside-6_37_583)"/>
</g>
<g clip-path="url(#clip7_37_583)">
<path d="M436.807 228.902C437.387 231.417 437.187 233.818 436.445 235.653C435.701 237.492 434.461 238.679 432.982 239.02C431.504 239.36 429.869 238.837 428.395 237.509C426.924 236.184 425.694 234.113 425.114 231.598C424.534 229.082 424.734 226.682 425.476 224.846C426.219 223.007 427.46 221.821 428.938 221.48C430.417 221.139 432.052 221.662 433.525 222.99C434.996 224.316 436.227 226.386 436.807 228.902Z" fill="#FF00F5" stroke="black" stroke-width="2"/>
<mask id="path-14-inside-7_37_583" fill="white">
<rect x="424.892" y="217.282" width="6" height="6" rx="1" transform="rotate(-12.9828 424.892 217.282)"/>
</mask>
<rect x="424.892" y="217.282" width="6" height="6" rx="1" transform="rotate(-12.9828 424.892 217.282)" fill="black" stroke="black" stroke-width="4" mask="url(#path-14-inside-7_37_583)"/>
</g>
<g clip-path="url(#clip8_37_583)">
<path d="M484.965 229.352C486.63 231.325 487.549 233.551 487.728 235.523C487.907 237.499 487.346 239.121 486.186 240.1C485.027 241.078 483.334 241.36 481.416 240.852C479.502 240.345 477.461 239.066 475.796 237.094C474.131 235.121 473.211 232.895 473.033 230.923C472.853 228.947 473.415 227.325 474.574 226.346C475.733 225.367 477.427 225.086 479.345 225.593C481.259 226.1 483.3 227.38 484.965 229.352Z" fill="#FF00F5" stroke="black" stroke-width="2"/>
<mask id="path-16-inside-8_37_583" fill="white">
<rect x="469.056" y="224.461" width="6" height="6" rx="1" transform="rotate(-40.1746 469.056 224.461)"/>
</mask>
<rect x="469.056" y="224.461" width="6" height="6" rx="1" transform="rotate(-40.1746 469.056 224.461)" fill="black" stroke="black" stroke-width="4" mask="url(#path-16-inside-8_37_583)"/>
</g>
<g clip-path="url(#clip9_37_583)">
<path d="M455.965 256.352C457.63 258.325 458.549 260.551 458.728 262.523C458.907 264.499 458.346 266.121 457.186 267.1C456.027 268.078 454.334 268.36 452.416 267.852C450.502 267.345 448.461 266.066 446.796 264.094C445.131 262.121 444.211 259.895 444.033 257.923C443.853 255.947 444.415 254.325 445.574 253.346C446.733 252.367 448.427 252.086 450.345 252.593C452.259 253.1 454.3 254.38 455.965 256.352Z" fill="#FF00F5" stroke="black" stroke-width="2"/>
<mask id="path-18-inside-9_37_583" fill="white">
<rect x="440.056" y="251.461" width="6" height="6" rx="1" transform="rotate(-40.1746 440.056 251.461)"/>
</mask>
<rect x="440.056" y="251.461" width="6" height="6" rx="1" transform="rotate(-40.1746 440.056 251.461)" fill="black" stroke="black" stroke-width="4" mask="url(#path-18-inside-9_37_583)"/>
</g>
<g clip-path="url(#clip10_37_583)">
<path d="M424.236 280.202C425.607 282.389 426.204 284.723 426.103 286.7C426.003 288.682 425.218 290.209 423.933 291.015C422.647 291.82 420.931 291.861 419.104 291.088C417.28 290.317 415.44 288.763 414.069 286.576C412.697 284.389 412.101 282.055 412.201 280.078C412.302 278.097 413.086 276.57 414.372 275.764C415.657 274.958 417.373 274.917 419.201 275.69C421.024 276.461 422.865 278.015 424.236 280.202Z" fill="#FF00F5" stroke="black" stroke-width="2"/>
<mask id="path-20-inside-10_37_583" fill="white">
<rect x="409.174" y="273.121" width="6" height="6" rx="1" transform="rotate(-32.0846 409.174 273.121)"/>
</mask>
<rect x="409.174" y="273.121" width="6" height="6" rx="1" transform="rotate(-32.0846 409.174 273.121)" fill="black" stroke="black" stroke-width="4" mask="url(#path-20-inside-10_37_583)"/>
</g>
<g clip-path="url(#clip11_37_583)">
<path d="M391.451 302.403C392.822 304.59 393.418 306.924 393.318 308.901C393.217 310.882 392.433 312.409 391.148 313.215C389.862 314.021 388.146 314.062 386.319 313.289C384.495 312.518 382.655 310.964 381.283 308.777C379.912 306.59 379.316 304.256 379.416 302.279C379.517 300.297 380.301 298.77 381.587 297.964C382.872 297.159 384.588 297.118 386.415 297.891C388.239 298.662 390.079 300.216 391.451 302.403Z" fill="#FF00F5" stroke="black" stroke-width="2"/>
<mask id="path-22-inside-11_37_583" fill="white">
<rect x="376.389" y="295.322" width="6" height="6" rx="1" transform="rotate(-32.0846 376.389 295.322)"/>
</mask>
<rect x="376.389" y="295.322" width="6" height="6" rx="1" transform="rotate(-32.0846 376.389 295.322)" fill="black" stroke="black" stroke-width="4" mask="url(#path-22-inside-11_37_583)"/>
</g>
<g clip-path="url(#clip12_37_583)">
<path d="M355.3 320.364C356.268 322.757 356.448 325.159 356.003 327.088C355.558 329.021 354.518 330.388 353.112 330.957C351.705 331.525 350.008 331.265 348.344 330.185C346.684 329.107 345.143 327.255 344.175 324.862C343.208 322.469 343.028 320.067 343.473 318.138C343.918 316.205 344.957 314.838 346.364 314.269C347.77 313.701 349.467 313.961 351.131 315.041C352.792 316.119 354.333 317.971 355.3 320.364Z" fill="#FF00F5" stroke="black" stroke-width="2"/>
<mask id="path-24-inside-12_37_583" fill="white">
<rect x="341.708" y="310.759" width="6" height="6" rx="1" transform="rotate(-22.0172 341.708 310.759)"/>
</mask>
<rect x="341.708" y="310.759" width="6" height="6" rx="1" transform="rotate(-22.0172 341.708 310.759)" fill="black" stroke="black" stroke-width="4" mask="url(#path-24-inside-12_37_583)"/>
</g>
<g clip-path="url(#clip13_37_583)">
<path d="M315.306 334.046C316.011 336.529 315.931 338.936 315.281 340.807C314.63 342.681 313.45 343.927 311.99 344.341C310.531 344.755 308.872 344.314 307.334 343.061C305.799 341.811 304.466 339.804 303.762 337.32C303.057 334.837 303.138 332.43 303.787 330.559C304.438 328.685 305.618 327.439 307.078 327.025C308.538 326.611 310.197 327.052 311.735 328.305C313.27 329.555 314.602 331.562 315.306 334.046Z" fill="#FF00F5" stroke="black" stroke-width="2"/>
<mask id="path-26-inside-13_37_583" fill="white">
<rect x="302.827" y="323.033" width="6" height="6" rx="1" transform="rotate(-15.8373 302.827 323.033)"/>
</mask>
<rect x="302.827" y="323.033" width="6" height="6" rx="1" transform="rotate(-15.8373 302.827 323.033)" fill="black" stroke="black" stroke-width="4" mask="url(#path-26-inside-13_37_583)"/>
</g>
<g clip-path="url(#clip14_37_583)">
<path d="M273.94 344.003C274.324 346.555 273.94 348.933 273.058 350.706C272.176 352.483 270.847 353.57 269.347 353.796C267.846 354.022 266.257 353.374 264.89 351.936C263.525 350.501 262.458 348.342 262.073 345.789C261.689 343.237 262.073 340.859 262.955 339.086C263.838 337.309 265.166 336.222 266.667 335.996C268.167 335.77 269.757 336.418 271.124 337.856C272.488 339.291 273.555 341.45 273.94 344.003Z" fill="#FF00F5" stroke="black" stroke-width="2"/>
<mask id="path-28-inside-14_37_583" fill="white">
<rect x="262.956" y="331.499" width="6" height="6" rx="1" transform="rotate(-8.56265 262.956 331.499)"/>
</mask>
<rect x="262.956" y="331.499" width="6" height="6" rx="1" transform="rotate(-8.56265 262.956 331.499)" fill="black" stroke="black" stroke-width="4" mask="url(#path-28-inside-14_37_583)"/>
</g>
<g clip-path="url(#clip15_37_583)">
<path d="M233.91 348.045C234.084 350.621 233.505 352.959 232.481 354.654C231.455 356.352 230.042 357.326 228.528 357.428C227.014 357.53 225.483 356.753 224.239 355.208C222.997 353.666 222.111 351.426 221.937 348.851C221.764 346.275 222.343 343.937 223.367 342.242C224.393 340.544 225.806 339.57 227.32 339.468C228.834 339.367 230.365 340.143 231.609 341.688C232.851 343.23 233.737 345.47 233.91 348.045Z" fill="#FF00F5" stroke="black" stroke-width="2"/>
<mask id="path-30-inside-15_37_583" fill="white">
<rect x="223.991" y="334.681" width="6" height="6" rx="1" transform="rotate(-3.84803 223.991 334.681)"/>
</mask>
<rect x="223.991" y="334.681" width="6" height="6" rx="1" transform="rotate(-3.84803 223.991 334.681)" fill="black" stroke="black" stroke-width="4" mask="url(#path-30-inside-15_37_583)"/>
</g>
<g clip-path="url(#clip16_37_583)">
<path d="M193.077 350.109C193.057 352.691 192.305 354.979 191.157 356.592C190.007 358.209 188.525 359.075 187.007 359.063C185.49 359.051 184.021 358.163 182.896 356.529C181.773 354.898 181.057 352.598 181.077 350.017C181.097 347.436 181.848 345.147 182.996 343.534C184.146 341.918 185.629 341.052 187.146 341.064C188.663 341.075 190.132 341.964 191.257 343.598C192.38 345.228 193.096 347.528 193.077 350.109Z" fill="#FF00F5" stroke="black" stroke-width="2"/>
<mask id="path-32-inside-16_37_583" fill="white">
<rect x="184.185" y="336.041" width="6" height="6" rx="1" transform="rotate(0.4407 184.185 336.041)"/>
</mask>
<rect x="184.185" y="336.041" width="6" height="6" rx="1" transform="rotate(0.4407 184.185 336.041)" fill="black" stroke="black" stroke-width="4" mask="url(#path-32-inside-16_37_583)"/>
</g>
<g clip-path="url(#clip17_37_583)">
<path d="M152.895 350.187C152.649 352.757 151.699 354.97 150.414 356.476C149.126 357.986 147.573 358.718 146.063 358.573C144.553 358.428 143.168 357.414 142.191 355.688C141.215 353.965 140.703 351.611 140.95 349.041C141.196 346.472 142.146 344.258 143.431 342.752C144.719 341.243 146.272 340.51 147.782 340.655C149.292 340.8 150.677 341.814 151.654 343.541C152.63 345.264 153.142 347.617 152.895 350.187Z" fill="#FF00F5" stroke="black" stroke-width="2"/>
<mask id="path-34-inside-17_37_583" fill="white">
<rect x="145.273" y="335.392" width="6" height="6" rx="1" transform="rotate(5.47842 145.273 335.392)"/>
</mask>
<rect x="145.273" y="335.392" width="6" height="6" rx="1" transform="rotate(5.47842 145.273 335.392)" fill="black" stroke="black" stroke-width="4" mask="url(#path-34-inside-17_37_583)"/>
</g>
<g clip-path="url(#clip18_37_583)">
<path d="M103.732 355.436C101.83 357.182 99.6433 358.192 97.6805 358.452C95.7139 358.713 94.0698 358.219 93.0439 357.102C92.018 355.984 91.6664 354.303 92.0944 352.366C92.5216 350.433 93.7154 348.341 95.6171 346.595C97.5189 344.85 99.7054 343.839 101.668 343.579C103.635 343.318 105.279 343.812 106.305 344.93C107.331 346.048 107.682 347.728 107.254 349.665C106.827 351.598 105.633 353.69 103.732 355.436Z" fill="#FF00F5" stroke="black" stroke-width="2"/>
<mask id="path-36-inside-18_37_583" fill="white">
<rect x="107.959" y="339.339" width="6" height="6" rx="1" transform="rotate(47.4524 107.959 339.339)"/>
</mask>
<rect x="107.959" y="339.339" width="6" height="6" rx="1" transform="rotate(47.4524 107.959 339.339)" fill="black" stroke="black" stroke-width="4" mask="url(#path-36-inside-18_37_583)"/>
</g>
<g clip-path="url(#clip19_37_583)">
<path d="M128.159 373.89C126.825 376.101 125.011 377.686 123.201 378.488C121.387 379.291 119.67 379.28 118.371 378.496C117.073 377.712 116.262 376.199 116.128 374.219C115.994 372.244 116.551 369.9 117.885 367.69C119.218 365.48 121.032 363.895 122.842 363.093C124.656 362.289 126.373 362.301 127.672 363.085C128.971 363.869 129.781 365.382 129.915 367.361C130.049 369.337 129.492 371.68 128.159 373.89Z" fill="#FF00F5" stroke="black" stroke-width="2"/>
<mask id="path-38-inside-19_37_583" fill="white">
<rect x="127.687" y="357.254" width="6" height="6" rx="1" transform="rotate(31.1103 127.687 357.254)"/>
</mask>
<rect x="127.687" y="357.254" width="6" height="6" rx="1" transform="rotate(31.1103 127.687 357.254)" fill="black" stroke="black" stroke-width="4" mask="url(#path-38-inside-19_37_583)"/>
</g>
<g clip-path="url(#clip20_37_583)">
<path d="M155.297 394.713C153.963 396.923 152.149 398.508 150.339 399.31C148.525 400.114 146.809 400.103 145.51 399.319C144.211 398.535 143.4 397.021 143.266 395.042C143.132 393.067 143.689 390.723 145.023 388.513C146.357 386.303 148.17 384.718 149.981 383.916C151.794 383.112 153.511 383.124 154.81 383.907C156.109 384.691 156.919 386.205 157.054 388.184C157.188 390.16 156.631 392.503 155.297 394.713Z" fill="#FF00F5" stroke="black" stroke-width="2"/>
<mask id="path-40-inside-20_37_583" fill="white">
<rect x="154.825" y="378.077" width="6" height="6" rx="1" transform="rotate(31.1103 154.825 378.077)"/>
</mask>
<rect x="154.825" y="378.077" width="6" height="6" rx="1" transform="rotate(31.1103 154.825 378.077)" fill="black" stroke="black" stroke-width="4" mask="url(#path-40-inside-20_37_583)"/>
</g>
<g clip-path="url(#clip21_37_583)">
<path d="M191.297 417.713C189.963 419.923 188.149 421.508 186.339 422.31C184.525 423.114 182.809 423.103 181.51 422.319C180.211 421.535 179.4 420.021 179.266 418.042C179.132 416.067 179.689 413.723 181.023 411.513C182.357 409.303 184.17 407.718 185.981 406.916C187.794 406.112 189.511 406.124 190.81 406.907C192.109 407.691 192.919 409.205 193.054 411.184C193.188 413.16 192.631 415.503 191.297 417.713Z" fill="#FF00F5" stroke="black" stroke-width="2"/>
<mask id="path-42-inside-21_37_583" fill="white">
<rect x="190.825" y="401.077" width="6" height="6" rx="1" transform="rotate(31.1103 190.825 401.077)"/>
</mask>
<rect x="190.825" y="401.077" width="6" height="6" rx="1" transform="rotate(31.1103 190.825 401.077)" fill="black" stroke="black" stroke-width="4" mask="url(#path-42-inside-21_37_583)"/>
</g>
<g clip-path="url(#clip22_37_583)">
<path d="M227.103 437.351C225.946 439.659 224.262 441.381 222.52 442.322C220.774 443.265 219.062 443.388 217.706 442.708C216.349 442.028 215.423 440.582 215.135 438.62C214.847 436.661 215.219 434.281 216.376 431.973C217.532 429.666 219.217 427.944 220.959 427.003C222.704 426.06 224.417 425.937 225.773 426.617C227.129 427.297 228.055 428.742 228.344 430.705C228.632 432.664 228.26 435.044 227.103 437.351Z" fill="#FF00F5" stroke="black" stroke-width="2"/>
<mask id="path-44-inside-22_37_583" fill="white">
<rect x="225.332" y="420.803" width="6" height="6" rx="1" transform="rotate(26.6271 225.332 420.803)"/>
</mask>
<rect x="225.332" y="420.803" width="6" height="6" rx="1" transform="rotate(26.6271 225.332 420.803)" fill="black" stroke="black" stroke-width="4" mask="url(#path-44-inside-22_37_583)"/>
</g>
<g clip-path="url(#clip23_37_583)">
<path d="M265.388 451.246C264.62 453.71 263.236 455.682 261.669 456.892C260.099 458.105 258.429 458.503 256.981 458.051C255.532 457.599 254.385 456.322 253.782 454.432C253.182 452.546 253.164 450.137 253.933 447.673C254.701 445.208 256.085 443.237 257.652 442.026C259.222 440.814 260.892 440.416 262.34 440.867C263.789 441.319 264.936 442.596 265.538 444.486C266.139 446.373 266.157 448.781 265.388 451.246Z" fill="#FF00F5" stroke="black" stroke-width="2"/>
<mask id="path-46-inside-23_37_583" fill="white">
<rect x="260.965" y="435.201" width="6" height="6" rx="1" transform="rotate(17.3233 260.965 435.201)"/>
</mask>
<rect x="260.965" y="435.201" width="6" height="6" rx="1" transform="rotate(17.3233 260.965 435.201)" fill="black" stroke="black" stroke-width="4" mask="url(#path-46-inside-23_37_583)"/>
</g>
<g clip-path="url(#clip24_37_583)">
<path d="M307.252 462.665C306.897 465.222 305.854 467.393 304.506 468.843C303.156 470.297 301.573 470.963 300.071 470.754C298.568 470.545 297.227 469.474 296.324 467.707C295.422 465.944 295.011 463.571 295.366 461.014C295.721 458.457 296.763 456.286 298.111 454.836C299.461 453.382 301.044 452.716 302.546 452.925C304.049 453.134 305.39 454.206 306.294 455.972C307.195 457.735 307.607 460.108 307.252 462.665Z" fill="#FF00F5" stroke="black" stroke-width="2"/>
<mask id="path-48-inside-24_37_583" fill="white">
<rect x="300.263" y="447.56" width="6" height="6" rx="1" transform="rotate(7.90539 300.263 447.56)"/>
</mask>
<rect x="300.263" y="447.56" width="6" height="6" rx="1" transform="rotate(7.90539 300.263 447.56)" fill="black" stroke="black" stroke-width="4" mask="url(#path-48-inside-24_37_583)"/>
</g>
<g clip-path="url(#clip25_37_583)">
<path d="M350.025 469.36C349.74 471.925 348.757 474.124 347.449 475.611C346.139 477.101 344.575 477.81 343.068 477.642C341.56 477.475 340.19 476.44 339.239 474.699C338.289 472.961 337.813 470.6 338.098 468.035C338.383 465.469 339.366 463.27 340.674 461.783C341.984 460.294 343.547 459.585 345.055 459.752C346.563 459.92 347.933 460.955 348.884 462.695C349.834 464.433 350.31 466.794 350.025 469.36Z" fill="#FF00F5" stroke="black" stroke-width="2"/>
<mask id="path-50-inside-25_37_583" fill="white">
<rect x="342.626" y="454.452" width="6" height="6" rx="1" transform="rotate(6.33978 342.626 454.452)"/>
</mask>
<rect x="342.626" y="454.452" width="6" height="6" rx="1" transform="rotate(6.33978 342.626 454.452)" fill="black" stroke="black" stroke-width="4" mask="url(#path-50-inside-25_37_583)"/>
</g>
<g clip-path="url(#clip26_37_583)">
<path d="M394.089 472.126C394.066 474.707 393.311 476.995 392.161 478.606C391.009 480.221 389.526 481.085 388.009 481.072C386.492 481.058 385.024 480.168 383.901 478.532C382.78 476.9 382.066 474.6 382.09 472.018C382.113 469.437 382.867 467.149 384.017 465.538C385.169 463.923 386.653 463.059 388.17 463.072C389.687 463.086 391.155 463.976 392.278 465.612C393.399 467.244 394.112 469.544 394.089 472.126Z" fill="#FF00F5" stroke="black" stroke-width="2"/>
<mask id="path-52-inside-26_37_583" fill="white">
<rect x="385.215" y="458.046" width="6" height="6" rx="1" transform="rotate(0.513528 385.215 458.046)"/>
</mask>
<rect x="385.215" y="458.046" width="6" height="6" rx="1" transform="rotate(0.513528 385.215 458.046)" fill="black" stroke="black" stroke-width="4" mask="url(#path-52-inside-26_37_583)"/>
</g>
<g clip-path="url(#clip27_37_583)">
<path d="M437.731 473.043C437.869 475.621 437.259 477.951 436.212 479.632C435.163 481.315 433.737 482.27 432.222 482.352C430.707 482.433 429.186 481.636 427.963 480.074C426.742 478.515 425.887 476.263 425.748 473.686C425.61 471.108 426.22 468.778 427.267 467.097C428.316 465.414 429.743 464.459 431.258 464.377C432.773 464.296 434.293 465.093 435.516 466.655C436.737 468.214 437.593 470.466 437.731 473.043Z" fill="#FF00F5" stroke="black" stroke-width="2"/>
<mask id="path-54-inside-27_37_583" fill="white">
<rect x="427.994" y="459.545" width="6" height="6" rx="1" transform="rotate(-3.06919 427.994 459.545)"/>
</mask>
<rect x="427.994" y="459.545" width="6" height="6" rx="1" transform="rotate(-3.06919 427.994 459.545)" fill="black" stroke="black" stroke-width="4" mask="url(#path-54-inside-27_37_583)"/>
</g>
<g clip-path="url(#clip28_37_583)">
<path d="M481.826 470.646C482.131 473.209 481.672 475.574 480.736 477.319C479.798 479.067 478.436 480.112 476.929 480.291C475.423 480.47 473.854 479.773 472.533 478.293C471.214 476.816 470.214 474.624 469.91 472.061C469.606 469.498 470.064 467.133 471 465.388C471.938 463.64 473.3 462.595 474.807 462.416C476.313 462.237 477.882 462.934 479.204 464.414C480.522 465.891 481.522 468.083 481.826 470.646Z" fill="#FF00F5" stroke="black" stroke-width="2"/>
<mask id="path-56-inside-28_37_583" fill="white">
<rect x="471.238" y="457.805" width="6" height="6" rx="1" transform="rotate(-6.77227 471.238 457.805)"/>
</mask>
<rect x="471.238" y="457.805" width="6" height="6" rx="1" transform="rotate(-6.77227 471.238 457.805)" fill="black" stroke="black" stroke-width="4" mask="url(#path-56-inside-28_37_583)"/>
</g>
<g clip-path="url(#clip29_37_583)">
<path d="M523.56 467.03C523.865 469.593 523.406 471.958 522.47 473.703C521.532 475.451 520.17 476.496 518.663 476.675C517.157 476.854 515.588 476.157 514.267 474.677C512.948 473.2 511.948 471.009 511.644 468.445C511.34 465.882 511.798 463.517 512.734 461.772C513.672 460.024 515.034 458.979 516.541 458.8C518.047 458.622 519.616 459.319 520.938 460.798C522.256 462.275 523.256 464.467 523.56 467.03Z" fill="#FF00F5" stroke="black" stroke-width="2"/>
<mask id="path-58-inside-29_37_583" fill="white">
<rect x="512.972" y="454.189" width="6" height="6" rx="1" transform="rotate(-6.77227 512.972 454.189)"/>
</mask>
<rect x="512.972" y="454.189" width="6" height="6" rx="1" transform="rotate(-6.77227 512.972 454.189)" fill="black" stroke="black" stroke-width="4" mask="url(#path-58-inside-29_37_583)"/>
</g>
<g clip-path="url(#clip30_37_583)">
<path d="M561.058 467.918C562.821 469.804 563.852 471.981 564.131 473.941C564.41 475.905 563.931 477.554 562.823 478.59C561.715 479.626 560.038 479.993 558.097 479.583C556.16 479.174 554.056 478 552.293 476.115C550.53 474.229 549.499 472.052 549.221 470.092C548.941 468.128 549.42 466.479 550.528 465.443C551.636 464.407 553.313 464.039 555.254 464.449C557.191 464.859 559.295 466.033 561.058 467.918Z" fill="#FF00F5" stroke="black" stroke-width="2"/>
<mask id="path-60-inside-30_37_583" fill="white">
<rect x="544.921" y="463.84" width="6" height="6" rx="1" transform="rotate(-43.0821 544.921 463.84)"/>
</mask>
<rect x="544.921" y="463.84" width="6" height="6" rx="1" transform="rotate(-43.0821 544.921 463.84)" fill="black" stroke="black" stroke-width="4" mask="url(#path-60-inside-30_37_583)"/>
</g>
<g clip-path="url(#clip31_37_583)">
<path d="M537.058 488.918C538.821 490.804 539.852 492.98 540.131 494.941C540.41 496.905 539.931 498.554 538.823 499.59C537.715 500.626 536.038 500.993 534.097 500.583C532.16 500.174 530.056 499 528.293 497.115C526.53 495.229 525.499 493.052 525.221 491.092C524.941 489.128 525.42 487.479 526.528 486.443C527.636 485.407 529.313 485.039 531.254 485.449C533.191 485.859 535.295 487.033 537.058 488.918Z" fill="#FF00F5" stroke="black" stroke-width="2"/>
<mask id="path-62-inside-31_37_583" fill="white">
<rect x="520.921" y="484.84" width="6" height="6" rx="1" transform="rotate(-43.0821 520.921 484.84)"/>
</mask>
<rect x="520.921" y="484.84" width="6" height="6" rx="1" transform="rotate(-43.0821 520.921 484.84)" fill="black" stroke="black" stroke-width="4" mask="url(#path-62-inside-31_37_583)"/>
</g>
<g clip-path="url(#clip32_37_583)">
<path d="M505.329 512.617C506.857 514.698 507.623 516.981 507.668 518.961C507.712 520.944 507.042 522.525 505.819 523.422C504.596 524.32 502.887 524.487 501.009 523.85C499.133 523.214 497.184 521.799 495.656 519.719C494.129 517.638 493.363 515.354 493.318 513.375C493.273 511.391 493.944 509.811 495.166 508.913C496.389 508.015 498.098 507.849 499.977 508.486C501.852 509.121 503.802 510.536 505.329 512.617Z" fill="#FF00F5" stroke="black" stroke-width="2"/>
<mask id="path-64-inside-32_37_583" fill="white">
<rect x="489.789" y="506.658" width="6" height="6" rx="1" transform="rotate(-36.2856 489.789 506.658)"/>
</mask>
<rect x="489.789" y="506.658" width="6" height="6" rx="1" transform="rotate(-36.2856 489.789 506.658)" fill="black" stroke="black" stroke-width="4" mask="url(#path-64-inside-32_37_583)"/>
</g>
<g clip-path="url(#clip33_37_583)">
<path d="M475.967 535.693C477.208 537.957 477.668 540.321 477.453 542.289C477.237 544.261 476.365 545.74 475.035 546.47C473.704 547.199 471.989 547.14 470.21 546.262C468.434 545.386 466.687 543.728 465.446 541.464C464.204 539.201 463.745 536.837 463.96 534.869C464.176 532.896 465.048 531.418 466.378 530.688C467.708 529.958 469.424 530.018 471.203 530.896C472.979 531.772 474.725 533.43 475.967 535.693Z" fill="#FF00F5" stroke="black" stroke-width="2"/>
<mask id="path-66-inside-33_37_583" fill="white">
<rect x="461.343" y="527.747" width="6" height="6" rx="1" transform="rotate(-28.7453 461.343 527.747)"/>
</mask>
<rect x="461.343" y="527.747" width="6" height="6" rx="1" transform="rotate(-28.7453 461.343 527.747)" fill="black" stroke="black" stroke-width="4" mask="url(#path-66-inside-33_37_583)"/>
</g>
<g clip-path="url(#clip34_37_583)">
<path d="M442.131 555.765C443.372 558.029 443.832 560.393 443.617 562.361C443.401 564.333 442.529 565.812 441.199 566.542C439.868 567.271 438.153 567.212 436.374 566.334C434.598 565.458 432.851 563.8 431.61 561.536C430.368 559.273 429.909 556.909 430.124 554.941C430.34 552.968 431.212 551.49 432.542 550.76C433.872 550.03 435.588 550.09 437.367 550.968C439.143 551.844 440.89 553.502 442.131 555.765Z" fill="#FF00F5" stroke="black" stroke-width="2"/>
<mask id="path-68-inside-34_37_583" fill="white">
<rect x="427.507" y="547.819" width="6" height="6" rx="1" transform="rotate(-28.7453 427.507 547.819)"/>
</mask>
<rect x="427.507" y="547.819" width="6" height="6" rx="1" transform="rotate(-28.7453 427.507 547.819)" fill="black" stroke="black" stroke-width="4" mask="url(#path-68-inside-34_37_583)"/>
</g>
<g clip-path="url(#clip35_37_583)">
<path d="M403.226 572.597C404.157 575.004 404.301 577.409 403.827 579.331C403.353 581.258 402.293 582.608 400.878 583.156C399.464 583.704 397.771 583.418 396.123 582.313C394.479 581.21 392.966 579.336 392.035 576.928C391.103 574.521 390.959 572.116 391.433 570.194C391.907 568.268 392.967 566.917 394.382 566.369C395.797 565.822 397.489 566.107 399.137 567.212C400.781 568.315 402.294 570.19 403.226 572.597Z" fill="#FF00F5" stroke="black" stroke-width="2"/>
<mask id="path-70-inside-35_37_583" fill="white">
<rect x="389.779" y="562.789" width="6" height="6" rx="1" transform="rotate(-21.1573 389.779 562.789)"/>
</mask>
<rect x="389.779" y="562.789" width="6" height="6" rx="1" transform="rotate(-21.1573 389.779 562.789)" fill="black" stroke="black" stroke-width="4" mask="url(#path-70-inside-35_37_583)"/>
</g>
<g clip-path="url(#clip36_37_583)">
<path d="M362.158 586.297C362.751 588.809 362.563 591.21 361.83 593.05C361.096 594.893 359.861 596.085 358.384 596.434C356.908 596.782 355.27 596.267 353.79 594.946C352.312 593.628 351.071 591.564 350.479 589.051C349.886 586.539 350.074 584.138 350.806 582.298C351.541 580.455 352.775 579.263 354.252 578.914C355.729 578.566 357.366 579.081 358.847 580.402C360.324 581.72 361.565 583.784 362.158 586.297Z" fill="#FF00F5" stroke="black" stroke-width="2"/>
<mask id="path-72-inside-36_37_583" fill="white">
<rect x="350.184" y="574.737" width="6" height="6" rx="1" transform="rotate(-13.2722 350.184 574.737)"/>
</mask>
<rect x="350.184" y="574.737" width="6" height="6" rx="1" transform="rotate(-13.2722 350.184 574.737)" fill="black" stroke="black" stroke-width="4" mask="url(#path-72-inside-36_37_583)"/>
</g>
<g clip-path="url(#clip37_37_583)">
<path d="M315.699 594.849C315.889 597.423 315.326 599.765 314.313 601.467C313.298 603.171 311.891 604.155 310.378 604.266C308.865 604.378 307.329 603.612 306.074 602.075C304.822 600.541 303.921 598.307 303.731 595.733C303.541 593.158 304.104 590.816 305.117 589.115C306.132 587.411 307.539 586.427 309.052 586.315C310.565 586.204 312.102 586.97 313.356 588.507C314.608 590.041 315.509 592.275 315.699 594.849Z" fill="#FF00F5" stroke="black" stroke-width="2"/>
<mask id="path-74-inside-37_37_583" fill="white">
<rect x="305.692" y="581.55" width="6" height="6" rx="1" transform="rotate(-4.22366 305.692 581.55)"/>
</mask>
<rect x="305.692" y="581.55" width="6" height="6" rx="1" transform="rotate(-4.22366 305.692 581.55)" fill="black" stroke="black" stroke-width="4" mask="url(#path-74-inside-37_37_583)"/>
</g>
<g clip-path="url(#clip38_37_583)">
<path d="M271.834 596.582C271.796 599.163 271.028 601.446 269.868 603.051C268.706 604.659 267.218 605.514 265.701 605.492C264.184 605.469 262.721 604.57 261.608 602.928C260.497 601.289 259.797 598.984 259.835 596.403C259.874 593.822 260.642 591.539 261.801 589.934C262.963 588.326 264.452 587.471 265.969 587.494C267.486 587.516 268.948 588.415 270.062 590.057C271.173 591.696 271.873 594.001 271.834 596.582Z" fill="#FF00F5" stroke="black" stroke-width="2"/>
<mask id="path-76-inside-38_37_583" fill="white">
<rect x="263.043" y="582.45" width="6" height="6" rx="1" transform="rotate(0.852564 263.043 582.45)"/>
</mask>
<rect x="263.043" y="582.45" width="6" height="6" rx="1" transform="rotate(0.852564 263.043 582.45)" fill="black" stroke="black" stroke-width="4" mask="url(#path-76-inside-38_37_583)"/>
</g>
<g clip-path="url(#clip39_37_583)">
<path d="M223.903 592.8C223.602 595.363 222.605 597.556 221.288 599.034C219.968 600.516 218.4 601.215 216.893 601.037C215.386 600.86 214.023 599.817 213.083 598.07C212.145 596.326 211.684 593.962 211.985 591.398C212.287 588.834 213.284 586.642 214.601 585.163C215.921 583.682 217.489 582.983 218.995 583.161C220.502 583.338 221.865 584.381 222.805 586.128C223.744 587.872 224.205 590.236 223.903 592.8Z" fill="#FF00F5" stroke="black" stroke-width="2"/>
<mask id="path-78-inside-39_37_583" fill="white">
<rect x="216.6" y="577.844" width="6" height="6" rx="1" transform="rotate(6.70725 216.6 577.844)"/>
</mask>
<rect x="216.6" y="577.844" width="6" height="6" rx="1" transform="rotate(6.70725 216.6 577.844)" fill="black" stroke="black" stroke-width="4" mask="url(#path-78-inside-39_37_583)"/>
</g>
<g clip-path="url(#clip40_37_583)">
<path d="M182.557 586.341C181.836 588.819 180.491 590.817 178.948 592.058C177.402 593.301 175.74 593.731 174.283 593.308C172.826 592.885 171.654 591.63 171.015 589.752C170.377 587.878 170.313 585.47 171.034 582.991C171.754 580.512 173.099 578.514 174.642 577.273C176.189 576.03 177.851 575.6 179.307 576.024C180.764 576.447 181.936 577.701 182.575 579.579C183.213 581.454 183.277 583.862 182.557 586.341Z" fill="#FF00F5" stroke="black" stroke-width="2"/>
<mask id="path-80-inside-40_37_583" fill="white">
<rect x="177.822" y="570.385" width="6" height="6" rx="1" transform="rotate(16.2091 177.822 570.385)"/>
</mask>
<rect x="177.822" y="570.385" width="6" height="6" rx="1" transform="rotate(16.2091 177.822 570.385)" fill="black" stroke="black" stroke-width="4" mask="url(#path-80-inside-40_37_583)"/>
</g>
<g clip-path="url(#clip41_37_583)">
<path d="M143.709 577.787C142.643 580.138 141.027 581.924 139.323 582.932C137.615 583.942 135.909 584.131 134.527 583.504C133.146 582.877 132.164 581.469 131.8 579.519C131.436 577.573 131.715 575.18 132.781 572.829C133.848 570.479 135.464 568.693 137.168 567.685C138.876 566.675 140.582 566.485 141.964 567.112C143.345 567.739 144.327 569.147 144.691 571.097C145.055 573.044 144.776 575.436 143.709 577.787Z" fill="#FF00F5" stroke="black" stroke-width="2"/>
<mask id="path-82-inside-41_37_583" fill="white">
<rect x="141.297" y="561.319" width="6" height="6" rx="1" transform="rotate(24.4014 141.297 561.319)"/>
</mask>
<rect x="141.297" y="561.319" width="6" height="6" rx="1" transform="rotate(24.4014 141.297 561.319)" fill="black" stroke="black" stroke-width="4" mask="url(#path-82-inside-41_37_583)"/>
</g>
<g clip-path="url(#clip42_37_583)">
<path d="M108.97 567.13C107.904 569.481 106.287 571.267 104.583 572.275C102.876 573.285 101.17 573.474 99.788 572.847C98.4064 572.22 97.4249 570.812 97.0602 568.862C96.6963 566.916 96.9756 564.523 98.0421 562.172C99.1085 559.822 100.725 558.036 102.429 557.028C104.136 556.017 105.843 555.828 107.224 556.455C108.606 557.082 109.587 558.49 109.952 560.44C110.316 562.387 110.037 564.779 108.97 567.13Z" fill="#FF00F5" stroke="black" stroke-width="2"/>
<mask id="path-84-inside-42_37_583" fill="white">
<rect x="106.558" y="550.662" width="6" height="6" rx="1" transform="rotate(24.4014 106.558 550.662)"/>
</mask>
<rect x="106.558" y="550.662" width="6" height="6" rx="1" transform="rotate(24.4014 106.558 550.662)" fill="black" stroke="black" stroke-width="4" mask="url(#path-84-inside-42_37_583)"/>
</g>
<g clip-path="url(#clip43_37_583)">
<path d="M76.9702 556.13C75.9037 558.481 74.2875 560.267 72.5833 561.275C70.8759 562.285 69.1696 562.474 67.788 561.847C66.4064 561.22 65.4249 559.812 65.0602 557.862C64.6963 555.916 64.9756 553.523 66.0421 551.172C67.1085 548.822 68.7248 547.036 70.4289 546.028C72.1364 545.017 73.8427 544.828 75.2243 545.455C76.6059 546.082 77.5874 547.49 77.952 549.44C78.3159 551.387 78.0366 553.779 76.9702 556.13Z" fill="#FF00F5" stroke="black" stroke-width="2"/>
<mask id="path-86-inside-43_37_583" fill="white">
<rect x="74.5576" y="539.662" width="6" height="6" rx="1" transform="rotate(24.4014 74.5576 539.662)"/>
</mask>
<rect x="74.5576" y="539.662" width="6" height="6" rx="1" transform="rotate(24.4014 74.5576 539.662)" fill="black" stroke="black" stroke-width="4" mask="url(#path-86-inside-43_37_583)"/>
</g>
<g clip-path="url(#clip44_37_583)">
<path d="M45.9702 545.13C44.9037 547.481 43.2875 549.267 41.5833 550.275C39.8759 551.285 38.1696 551.474 36.788 550.847C35.4064 550.22 34.4249 548.812 34.0602 546.862C33.6963 544.916 33.9756 542.523 35.0421 540.172C36.1085 537.822 37.7248 536.036 39.4289 535.028C41.1364 534.017 42.8427 533.828 44.2243 534.455C45.6059 535.082 46.5874 536.49 46.952 538.44C47.3159 540.387 47.0366 542.779 45.9702 545.13Z" fill="#FF00F5" stroke="black" stroke-width="2"/>
<mask id="path-88-inside-44_37_583" fill="white">
<rect x="43.5576" y="528.662" width="6" height="6" rx="1" transform="rotate(24.4014 43.5576 528.662)"/>
</mask>
<rect x="43.5576" y="528.662" width="6" height="6" rx="1" transform="rotate(24.4014 43.5576 528.662)" fill="black" stroke="black" stroke-width="4" mask="url(#path-88-inside-44_37_583)"/>
</g>
<g clip-path="url(#clip45_37_583)">
<path d="M237.813 154.877C238.393 157.392 238.193 159.792 237.451 161.628C236.707 163.467 235.466 164.654 233.988 164.995C232.51 165.335 230.875 164.812 229.401 163.484C227.93 162.159 226.699 160.088 226.119 157.573C225.54 155.057 225.739 152.657 226.481 150.821C227.225 148.982 228.466 147.795 229.944 147.455C231.422 147.114 233.058 147.637 234.531 148.965C236.002 150.291 237.233 152.361 237.813 154.877Z" fill="#FF00F5" stroke="black" stroke-width="2"/>
<mask id="path-90-inside-45_37_583" fill="white">
<rect x="225.898" y="143.256" width="6" height="6" rx="1" transform="rotate(-12.9828 225.898 143.256)"/>
</mask>
<rect x="225.898" y="143.256" width="6" height="6" rx="1" transform="rotate(-12.9828 225.898 143.256)" fill="black" stroke="black" stroke-width="4" mask="url(#path-90-inside-45_37_583)"/>
</g>
<g clip-path="url(#clip46_37_583)">
<path d="M280.811 141.657C281.863 144.014 282.128 146.408 281.752 148.352C281.376 150.3 280.386 151.702 279 152.321C277.615 152.939 275.91 152.739 274.209 151.719C272.511 150.701 270.905 148.905 269.853 146.547C268.801 144.19 268.536 141.796 268.912 139.852C269.289 137.904 270.279 136.502 271.664 135.883C273.049 135.265 274.755 135.465 276.456 136.485C278.154 137.504 279.759 139.299 280.811 141.657Z" fill="#FF00F5" stroke="black" stroke-width="2"/>
<mask id="path-92-inside-46_37_583" fill="white">
<rect x="266.887" y="132.54" width="6" height="6" rx="1" transform="rotate(-24.0522 266.887 132.54)"/>
</mask>
<rect x="266.887" y="132.54" width="6" height="6" rx="1" transform="rotate(-24.0522 266.887 132.54)" fill="black" stroke="black" stroke-width="4" mask="url(#path-92-inside-46_37_583)"/>
</g>
<g clip-path="url(#clip47_37_583)">
<path d="M321.399 120.212C322.812 122.372 323.453 124.694 323.39 126.673C323.328 128.656 322.572 130.198 321.303 131.028C320.033 131.858 318.318 131.931 316.476 131.194C314.638 130.457 312.768 128.939 311.356 126.778C309.943 124.618 309.302 122.296 309.365 120.317C309.428 118.334 310.183 116.792 311.453 115.962C312.722 115.132 314.437 115.058 316.279 115.796C318.117 116.532 319.987 118.051 321.399 120.212Z" fill="#FF00F5" stroke="black" stroke-width="2"/>
<mask id="path-94-inside-47_37_583" fill="white">
<rect x="306.206" y="113.419" width="6" height="6" rx="1" transform="rotate(-33.177 306.206 113.419)"/>
</mask>
<rect x="306.206" y="113.419" width="6" height="6" rx="1" transform="rotate(-33.177 306.206 113.419)" fill="black" stroke="black" stroke-width="4" mask="url(#path-94-inside-47_37_583)"/>
</g>
<g clip-path="url(#clip48_37_583)">
<path d="M349.088 93.8585C351.052 95.5342 352.32 97.5818 352.817 99.4984C353.315 101.419 353.024 103.111 352.039 104.265C351.054 105.419 349.429 105.972 347.454 105.782C345.483 105.593 343.262 104.662 341.298 102.987C339.335 101.311 338.066 99.2632 337.569 97.3466C337.072 95.4262 337.362 93.7342 338.347 92.5802C339.332 91.4262 340.957 90.8731 342.932 91.0627C344.903 91.2519 347.124 92.1828 349.088 93.8585Z" fill="#FF00F5" stroke="black" stroke-width="2"/>
<mask id="path-96-inside-48_37_583" fill="white">
<rect x="332.597" y="91.6165" width="6" height="6" rx="1" transform="rotate(-49.5231 332.597 91.6165)"/>
</mask>
<rect x="332.597" y="91.6165" width="6" height="6" rx="1" transform="rotate(-49.5231 332.597 91.6165)" fill="black" stroke="black" stroke-width="4" mask="url(#path-96-inside-48_37_583)"/>
</g>
<g clip-path="url(#clip49_37_583)">
<path d="M367.027 59.5182C369.394 60.5492 371.204 62.1385 372.237 63.8273C373.273 65.5194 373.487 67.2226 372.882 68.6135C372.276 70.0043 370.882 71.0069 368.938 71.4008C366.997 71.7939 364.601 71.5506 362.234 70.5195C359.868 69.4885 358.058 67.8993 357.024 66.2105C355.988 64.5184 355.774 62.8151 356.38 61.4243C356.986 60.0334 358.379 59.0308 360.323 58.637C362.264 58.2439 364.66 58.4872 367.027 59.5182Z" fill="#FF00F5" stroke="black" stroke-width="2"/>
<mask id="path-98-inside-49_37_583" fill="white">
<rect x="350.598" y="62.1776" width="6" height="6" rx="1" transform="rotate(-66.4593 350.598 62.1776)"/>
</mask>
<rect x="350.598" y="62.1776" width="6" height="6" rx="1" transform="rotate(-66.4593 350.598 62.1776)" fill="black" stroke="black" stroke-width="4" mask="url(#path-98-inside-49_37_583)"/>
</g>
<g clip-path="url(#clip50_37_583)">
<path d="M192.597 163.647C190.467 165.105 188.159 165.796 186.18 165.776C184.196 165.756 182.638 165.034 181.781 163.782C180.923 162.531 180.813 160.817 181.511 158.96C182.208 157.107 183.686 155.205 185.815 153.746C187.945 152.288 190.253 151.597 192.232 151.617C194.216 151.637 195.774 152.359 196.631 153.61C197.489 154.862 197.599 156.575 196.901 158.432C196.204 160.286 194.726 162.188 192.597 163.647Z" fill="#FF00F5" stroke="black" stroke-width="2"/>
<mask id="path-100-inside-50_37_583" fill="white">
<rect x="199.061" y="148.31" width="6" height="6" rx="1" transform="rotate(55.5905 199.061 148.31)"/>
</mask>
<rect x="199.061" y="148.31" width="6" height="6" rx="1" transform="rotate(55.5905 199.061 148.31)" fill="black" stroke="black" stroke-width="4" mask="url(#path-100-inside-50_37_583)"/>
</g>
<g clip-path="url(#clip51_37_583)">
<path d="M16.3458 532.823C14.9453 534.992 13.0841 536.521 11.2502 537.267C9.41285 538.015 7.69728 537.951 6.42284 537.128C5.1484 536.305 4.38461 534.768 4.31066 532.785C4.23686 530.807 4.86487 528.481 6.26535 526.313C7.66584 524.144 9.52709 522.616 11.3609 521.869C13.1983 521.121 14.9139 521.185 16.1883 522.008C17.4628 522.831 18.2266 524.368 18.3005 526.351C18.3743 528.329 17.7463 530.655 16.3458 532.823Z" fill="#FF00F5" stroke="black" stroke-width="2"/>
<mask id="path-102-inside-51_37_583" fill="white">
<rect x="16.3809" y="516.18" width="6" height="6" rx="1" transform="rotate(32.8558 16.3809 516.18)"/>
</mask>
<rect x="16.3809" y="516.18" width="6" height="6" rx="1" transform="rotate(32.8558 16.3809 516.18)" fill="black" stroke="black" stroke-width="4" mask="url(#path-102-inside-51_37_583)"/>
</g>
<path d="M14.4999 516.51C266.136 622.946 392.419 604.51 560.167 450.162C560.884 449.503 560.32 448.289 559.355 448.412C346.48 475.487 236.984 456.082 103.17 335.964C102.464 335.33 102.974 334.143 103.921 334.205C289.703 346.472 374.002 321.852 478.927 214.214C479.579 213.545 479.021 212.409 478.092 212.505C329.226 227.941 261.944 219.184 198.017 149.224C197.488 148.645 197.82 147.692 198.591 147.551C299.309 129.148 334.849 108.221 354.5 50.5098" stroke="black" stroke-width="3" stroke-linecap="round"/>
</g>
<defs>
<clipPath id="clip0_37_583">
<rect width="588" height="649" fill="white"/>
</clipPath>
<clipPath id="clip1_37_583">
<rect width="14" height="24" fill="white" transform="translate(217.521 168.218) rotate(41.8247)"/>
</clipPath>
<clipPath id="clip2_37_583">
<rect width="14" height="24" fill="white" transform="translate(242.449 187.73) rotate(31.2092)"/>
</clipPath>
<clipPath id="clip3_37_583">
<rect width="14" height="24" fill="white" transform="translate(272.144 203.162) rotate(21.7248)"/>
</clipPath>
<clipPath id="clip4_37_583">
<rect width="14" height="24" fill="white" transform="translate(308.128 213.718) rotate(9.96879)"/>
</clipPath>
<clipPath id="clip5_37_583">
<rect width="14" height="24" fill="white" transform="translate(345.366 217.819) rotate(1.86396)"/>
</clipPath>
<clipPath id="clip6_37_583">
<rect width="14" height="24" fill="white" transform="translate(385 219.614) rotate(-2.47379)"/>
</clipPath>
<clipPath id="clip7_37_583">
<rect width="14" height="24" fill="white" transform="translate(420.994 218.18) rotate(-12.9828)"/>
</clipPath>
<clipPath id="clip8_37_583">
<rect width="14" height="24" fill="white" transform="translate(466 227.042) rotate(-40.1746)"/>
</clipPath>
<clipPath id="clip9_37_583">
<rect width="14" height="24" fill="white" transform="translate(437 254.042) rotate(-40.1746)"/>
</clipPath>
<clipPath id="clip10_37_583">
<rect width="14" height="24" fill="white" transform="translate(405.785 275.246) rotate(-32.0846)"/>
</clipPath>
<clipPath id="clip11_37_583">
<rect width="14" height="24" fill="white" transform="translate(373 297.446) rotate(-32.0846)"/>
</clipPath>
<clipPath id="clip12_37_583">
<rect width="14" height="24" fill="white" transform="translate(338 312.258) rotate(-22.0172)"/>
</clipPath>
<clipPath id="clip13_37_583">
<rect width="14" height="24" fill="white" transform="translate(298.979 324.125) rotate(-15.8373)"/>
</clipPath>
<clipPath id="clip14_37_583">
<rect width="14" height="24" fill="white" transform="translate(259 332.094) rotate(-8.56265)"/>
</clipPath>
<clipPath id="clip15_37_583">
<rect width="14" height="24" fill="white" transform="translate(220 334.949) rotate(-3.84803)"/>
</clipPath>
<clipPath id="clip16_37_583">
<rect width="14" height="24" fill="white" transform="translate(180.185 336.01) rotate(0.4407)"/>
</clipPath>
<clipPath id="clip17_37_583">
<rect width="14" height="24" fill="white" transform="translate(141.291 335.01) rotate(5.47842)"/>
</clipPath>
<clipPath id="clip18_37_583">
<rect width="14" height="24" fill="white" transform="translate(105.255 336.392) rotate(47.4524)"/>
</clipPath>
<clipPath id="clip19_37_583">
<rect width="14" height="24" fill="white" transform="translate(124.262 355.187) rotate(31.1103)"/>
</clipPath>
<clipPath id="clip20_37_583">
<rect width="14" height="24" fill="white" transform="translate(151.4 376.01) rotate(31.1103)"/>
</clipPath>
<clipPath id="clip21_37_583">
<rect width="14" height="24" fill="white" transform="translate(187.4 399.01) rotate(31.1103)"/>
</clipPath>
<clipPath id="clip22_37_583">
<rect width="14" height="24" fill="white" transform="translate(221.756 419.01) rotate(26.6271)"/>
</clipPath>
<clipPath id="clip23_37_583">
<rect width="14" height="24" fill="white" transform="translate(257.146 434.01) rotate(17.3233)"/>
</clipPath>
<clipPath id="clip24_37_583">
<rect width="14" height="24" fill="white" transform="translate(296.301 447.01) rotate(7.90539)"/>
</clipPath>
<clipPath id="clip25_37_583">
<rect width="14" height="24" fill="white" transform="translate(338.65 454.01) rotate(6.33978)"/>
</clipPath>
<clipPath id="clip26_37_583">
<rect width="14" height="24" fill="white" transform="translate(381.215 458.01) rotate(0.513528)"/>
</clipPath>
<clipPath id="clip27_37_583">
<rect width="14" height="24" fill="white" transform="translate(424 459.759) rotate(-3.06919)"/>
</clipPath>
<clipPath id="clip28_37_583">
<rect width="14" height="24" fill="white" transform="translate(467.266 458.277) rotate(-6.77227)"/>
</clipPath>
<clipPath id="clip29_37_583">
<rect width="14" height="24" fill="white" transform="translate(509 454.661) rotate(-6.77227)"/>
</clipPath>
<clipPath id="clip30_37_583">
<rect width="14" height="24" fill="white" transform="translate(542 466.573) rotate(-43.0821)"/>
</clipPath>
<clipPath id="clip31_37_583">
<rect width="14" height="24" fill="white" transform="translate(518 487.572) rotate(-43.0821)"/>
</clipPath>
<clipPath id="clip32_37_583">
<rect width="14" height="24" fill="white" transform="translate(486.565 509.025) rotate(-36.2856)"/>
</clipPath>
<clipPath id="clip33_37_583">
<rect width="14" height="24" fill="white" transform="translate(457.836 529.671) rotate(-28.7453)"/>
</clipPath>
<clipPath id="clip34_37_583">
<rect width="14" height="24" fill="white" transform="translate(424 549.743) rotate(-28.7453)"/>
</clipPath>
<clipPath id="clip35_37_583">
<rect width="14" height="24" fill="white" transform="translate(386.049 564.233) rotate(-21.1573)"/>
</clipPath>
<clipPath id="clip36_37_583">
<rect width="14" height="24" fill="white" transform="translate(346.291 575.655) rotate(-13.2722)"/>
</clipPath>
<clipPath id="clip37_37_583">
<rect width="14" height="24" fill="white" transform="translate(301.703 581.844) rotate(-4.22366)"/>
</clipPath>
<clipPath id="clip38_37_583">
<rect width="14" height="24" fill="white" transform="translate(259.044 582.39) rotate(0.852564)"/>
</clipPath>
<clipPath id="clip39_37_583">
<rect width="14" height="24" fill="white" transform="translate(212.627 577.377) rotate(6.70725)"/>
</clipPath>
<clipPath id="clip40_37_583">
<rect width="14" height="24" fill="white" transform="translate(173.981 569.268) rotate(16.2091)"/>
</clipPath>
<clipPath id="clip41_37_583">
<rect width="14" height="24" fill="white" transform="translate(137.654 559.667) rotate(24.4014)"/>
</clipPath>
<clipPath id="clip42_37_583">
<rect width="14" height="24" fill="white" transform="translate(102.915 549.01) rotate(24.4014)"/>
</clipPath>
<clipPath id="clip43_37_583">
<rect width="14" height="24" fill="white" transform="translate(70.915 538.01) rotate(24.4014)"/>
</clipPath>
<clipPath id="clip44_37_583">
<rect width="14" height="24" fill="white" transform="translate(39.915 527.01) rotate(24.4014)"/>
</clipPath>
<clipPath id="clip45_37_583">
<rect width="14" height="24" fill="white" transform="translate(222 144.155) rotate(-12.9828)"/>
</clipPath>
<clipPath id="clip46_37_583">
<rect width="14" height="24" fill="white" transform="translate(263.234 134.171) rotate(-24.0522)"/>
</clipPath>
<clipPath id="clip47_37_583">
<rect width="14" height="24" fill="white" transform="translate(302.857 115.608) rotate(-33.177)"/>
</clipPath>
<clipPath id="clip48_37_583">
<rect width="14" height="24" fill="white" transform="translate(330 94.6592) rotate(-49.5231)"/>
</clipPath>
<clipPath id="clip49_37_583">
<rect width="14" height="24" fill="white" transform="translate(349 65.8447) rotate(-66.4593)"/>
</clipPath>
<clipPath id="clip50_37_583">
<rect width="14" height="24" fill="white" transform="translate(196.801 145.01) rotate(55.5905)"/>
</clipPath>
<clipPath id="clip51_37_583">
<rect width="14" height="24" fill="white" transform="translate(13.0205 514.01) rotate(32.8558)"/>
</clipPath>
</defs>
</svg>
