<svg width="38" height="86" viewBox="0 0 38 86" fill="none" xmlns="http://www.w3.org/2000/svg">
<g clip-path="url(#clip0_28_50)">
<path d="M13.7009 3.42275C13.9768 2.01526 15.2105 1 16.6448 1H21.3552C22.7895 1 24.0232 2.01526 24.2991 3.42276L25.0835 7.42276C25.4468 9.27599 24.028 11 22.1395 11H15.8605C13.972 11 12.5532 9.27599 12.9165 7.42276L13.7009 3.42275Z" fill="#CFB529" stroke="black" stroke-width="2"/>
<path d="M3.93584 13.2449C4.62987 11.4024 6.49658 9.80487 9.21802 8.63383C11.9128 7.47427 15.2914 6.80396 18.7228 6.71529C22.1552 6.62659 25.5726 7.12158 28.3514 8.23289C31.1357 9.34641 33.1749 11.0318 34.0721 13.2652C36.0651 18.2265 37.3725 28.1924 37.1955 39.32C37.019 50.4231 35.367 62.486 31.5763 71.6245C29.6713 76.2171 27.6612 79.5394 25.6242 81.6881C23.5945 83.8292 21.6064 84.74 19.6979 84.7042C17.773 84.668 15.6929 83.6654 13.5004 81.4761C11.3096 79.2886 9.08543 75.9911 6.89642 71.5644C2.56733 62.8098 0.986823 50.424 0.928562 39.0395C0.870245 27.6442 2.33616 17.4917 3.93584 13.2449Z" fill="#F0FAFC" stroke="black" stroke-width="2"/>
<path d="M2.5 26.5L34 16C35.9746 23.6128 36.2278 27.382 36.2484 35L2 42C1.87126 35.6053 1.97152 31.764 2.5 26.5Z" fill="#2380EE"/>
<line x1="1.83746" y1="26.5272" x2="33.8375" y2="15.5272" stroke="black"/>
<line x1="1.90194" y1="41.5097" x2="36.9019" y2="34.5097" stroke="black"/>
<path d="M3.5 57.5L35.5 50.5C34.8354 56.6457 34.231 60.0489 32.5 66L7.5 70.5C5.02911 65.0278 4.59055 63.3406 3.5 57.5Z" fill="#2380EE"/>
<line x1="2.89917" y1="57.5103" x2="36.8992" y2="50.5103" stroke="black"/>
<line x1="6.90558" y1="70.509" x2="32.9056" y2="65.509" stroke="black"/>
</g>
<defs>
<clipPath id="clip0_28_50">
<rect width="38" height="86" fill="white"/>
</clipPath>
</defs>
</svg>
