<svg width="60" height="66" viewBox="0 0 60 66" fill="none" xmlns="http://www.w3.org/2000/svg">
<g clip-path="url(#clip0_21_126)">
<path d="M27.5311 1H32.4689C33.9818 1 35.258 2.12661 35.4457 3.6279L36.9457 15.6279C37.1695 17.4185 35.7734 19 33.9689 19H26.0311C24.2266 19 22.8305 17.4185 23.0543 15.6279L24.5543 3.6279C24.742 2.12661 26.0182 1 27.5311 1Z" fill="#CFB529" stroke="black" stroke-width="2"/>
<g clip-path="url(#clip1_21_126)">
<circle cx="30" cy="36" r="29" fill="#AC3EB6" stroke="black" stroke-width="2"/>
<path fill-rule="evenodd" clip-rule="evenodd" d="M30 49C37.1797 49 43 43.1797 43 36C43 28.8203 37.1797 23 30 23C22.8203 23 17 28.8203 17 36C17 43.1797 22.8203 49 30 49ZM30 42.5C33.5899 42.5 36.5 39.5899 36.5 36C36.5 32.4101 33.5899 29.5 30 29.5C26.4101 29.5 23.5 32.4101 23.5 36C23.5 39.5899 26.4101 42.5 30 42.5Z" fill="white"/>
<g clip-path="url(#clip2_21_126)">
<line x1="29.9448" y1="15.1195" x2="29.9448" y2="32.4666" stroke="#100F40" stroke-width="1.23908" stroke-linecap="round"/>
<line x1="30.414" y1="19.9696" x2="34.7948" y2="15.5888" stroke="#100F40" stroke-width="1.23908" stroke-linecap="round"/>
<line x1="25.0947" y1="15.5888" x2="29.4755" y2="19.9696" stroke="#100F40" stroke-width="1.23908" stroke-linecap="round"/>
<line x1="29.9447" y1="57.2481" x2="29.9447" y2="39.901" stroke="#100F40" stroke-width="1.23908" stroke-linecap="round"/>
<line x1="29.4755" y1="52.3981" x2="25.0948" y2="56.7789" stroke="#100F40" stroke-width="1.23908" stroke-linecap="round"/>
<line x1="34.7948" y1="56.7789" x2="30.414" y2="52.3981" stroke="#100F40" stroke-width="1.23908" stroke-linecap="round"/>
<line x1="48.1692" y1="25.6211" x2="33.1608" y2="34.3198" stroke="#100F40" stroke-width="1.23908" stroke-linecap="round"/>
<line x1="44.2083" y1="28.4591" x2="50.1953" y2="30.0525" stroke="#100F40" stroke-width="1.23908" stroke-linecap="round"/>
<line x1="45.3312" y1="21.6602" x2="43.7378" y2="27.6472" stroke="#100F40" stroke-width="1.23908" stroke-linecap="round"/>
<line x1="11.7202" y1="46.7466" x2="26.7287" y2="38.0478" stroke="#100F40" stroke-width="1.23908" stroke-linecap="round"/>
<line x1="15.6811" y1="43.9085" x2="9.69415" y2="42.3151" stroke="#100F40" stroke-width="1.23908" stroke-linecap="round"/>
<line x1="14.5583" y1="50.7074" x2="16.1517" y2="44.7204" stroke="#100F40" stroke-width="1.23908" stroke-linecap="round"/>
<line x1="48.2046" y1="46.6853" x2="33.167" y2="38.037" stroke="#100F40" stroke-width="1.23908" stroke-linecap="round"/>
<line x1="43.7663" y1="44.6741" x2="45.3799" y2="50.6557" stroke="#100F40" stroke-width="1.23908" stroke-linecap="round"/>
<line x1="50.2158" y1="42.2471" x2="44.2342" y2="43.8606" stroke="#100F40" stroke-width="1.23908" stroke-linecap="round"/>
<line x1="11.6849" y1="25.6823" x2="26.7224" y2="34.3306" stroke="#100F40" stroke-width="1.23908" stroke-linecap="round"/>
<line x1="16.1231" y1="27.6935" x2="14.5096" y2="21.712" stroke="#100F40" stroke-width="1.23908" stroke-linecap="round"/>
<line x1="9.67369" y1="30.1205" x2="15.6553" y2="28.507" stroke="#100F40" stroke-width="1.23908" stroke-linecap="round"/>
<path fill-rule="evenodd" clip-rule="evenodd" d="M29.9448 40.5206C32.3399 40.5206 34.2815 38.579 34.2815 36.1838C34.2815 33.7887 32.3399 31.8471 29.9448 31.8471C27.5496 31.8471 25.608 33.7887 25.608 36.1838C25.608 38.579 27.5496 40.5206 29.9448 40.5206ZM29.9447 39.2815C31.6556 39.2815 33.0424 37.8946 33.0424 36.1838C33.0424 34.473 31.6556 33.0861 29.9447 33.0861C28.2339 33.0861 26.8471 34.473 26.8471 36.1838C26.8471 37.8946 28.2339 39.2815 29.9447 39.2815Z" fill="#100F40"/>
<circle cx="19.5" cy="53.5" r="1.5" fill="white"/>
<circle cx="40.5" cy="53.5" r="1.5" fill="white"/>
<circle cx="49.5" cy="36.5" r="1.5" fill="white"/>
<circle cx="39.5" cy="19.5" r="1.5" fill="white"/>
<circle cx="20.5" cy="19.5" r="1.5" fill="white"/>
<circle cx="11.5" cy="36.5" r="1.5" fill="white"/>
</g>
</g>
<rect x="1" y="7" width="58" height="58" rx="29" stroke="black" stroke-width="2"/>
</g>
<defs>
<clipPath id="clip0_21_126">
<rect width="60" height="66" fill="white"/>
</clipPath>
<clipPath id="clip1_21_126">
<rect y="6" width="60" height="60" rx="30" fill="white"/>
</clipPath>
<clipPath id="clip2_21_126">
<rect width="44" height="46.6667" fill="white" transform="translate(9.5 14.5)"/>
</clipPath>
</defs>
</svg>
