<svg width="60" height="66" viewBox="0 0 60 66" fill="none" xmlns="http://www.w3.org/2000/svg">
<g clip-path="url(#clip0_26_37)">
<path d="M27.5311 1H32.4689C33.9818 1 35.258 2.12661 35.4457 3.6279L36.9457 15.6279C37.1695 17.4185 35.7734 19 33.9689 19H26.0311C24.2266 19 22.8305 17.4185 23.0543 15.6279L24.5543 3.6279C24.742 2.12661 26.0182 1 27.5311 1Z" fill="#CFB529" stroke="black" stroke-width="2"/>
<g clip-path="url(#clip1_26_37)">
<circle cx="30" cy="36" r="29" fill="#164071" stroke="black" stroke-width="2"/>
<path d="M20.5641 33.945C20.7357 33.573 21.2643 33.573 21.4359 33.945L24.2731 40.0961C24.343 40.2477 24.4867 40.352 24.6525 40.3717L31.3793 41.1693C31.786 41.2175 31.9494 41.7202 31.6487 41.9983L26.6753 46.5975C26.5528 46.7109 26.4979 46.8797 26.5304 47.0435L27.8506 53.6875C27.9304 54.0893 27.5028 54.4 27.1454 54.1999L21.2345 50.8912C21.0888 50.8097 20.9112 50.8097 20.7655 50.8912L14.8546 54.1999C14.4972 54.4 14.0696 54.0893 14.1494 53.6875L15.4696 47.0435C15.5021 46.8797 15.4472 46.7109 15.3247 46.5975L10.3513 41.9983C10.0506 41.7202 10.214 41.2175 10.6207 41.1693L17.3475 40.3717C17.5133 40.352 17.657 40.2477 17.7269 40.0961L20.5641 33.945Z" fill="#DFDEC8"/>
<path d="M38.7094 16.63C38.8238 16.382 39.1762 16.382 39.2906 16.63L41.1821 20.7307C41.2287 20.8318 41.3245 20.9014 41.435 20.9145L45.9195 21.4462C46.1907 21.4783 46.2996 21.8135 46.0991 21.9989L42.7836 25.065C42.7019 25.1406 42.6653 25.2532 42.687 25.3623L43.5671 29.7917C43.6203 30.0595 43.3352 30.2667 43.0969 30.1333L39.1563 27.9275C39.0592 27.8731 38.9408 27.8731 38.8437 27.9275L34.9031 30.1333C34.6648 30.2667 34.3797 30.0595 34.4329 29.7917L35.313 25.3623C35.3347 25.2532 35.2981 25.1406 35.2164 25.065L31.9009 21.9989C31.7004 21.8135 31.8093 21.4783 32.0805 21.4462L36.565 20.9145C36.6755 20.9014 36.7713 20.8318 36.8179 20.7307L38.7094 16.63Z" fill="#DFDEC8"/>
<path d="M14.8027 22.1981C14.8394 21.9747 15.1606 21.9747 15.1973 22.1981L15.6838 25.1514C15.6977 25.236 15.764 25.3023 15.8486 25.3162L18.8019 25.8027C19.0253 25.8394 19.0253 26.1606 18.8019 26.1973L15.8486 26.6838C15.764 26.6977 15.6977 26.764 15.6838 26.8486L15.1973 29.8019C15.1606 30.0253 14.8394 30.0253 14.8027 29.8019L14.3162 26.8486C14.3023 26.764 14.236 26.6977 14.1514 26.6838L11.1981 26.1973C10.9747 26.1606 10.9747 25.8394 11.1981 25.8027L14.1514 25.3162C14.236 25.3023 14.3023 25.236 14.3162 25.1514L14.8027 22.1981Z" fill="#DFDEC8"/>
<path d="M40.8027 49.1981C40.8394 48.9747 41.1606 48.9747 41.1973 49.1981L41.6838 52.1514C41.6977 52.236 41.764 52.3023 41.8486 52.3162L44.8019 52.8027C45.0253 52.8394 45.0253 53.1606 44.8019 53.1973L41.8486 53.6838C41.764 53.6977 41.6977 53.764 41.6838 53.8486L41.1973 56.8019C41.1606 57.0253 40.8394 57.0253 40.8027 56.8019L40.3162 53.8486C40.3023 53.764 40.236 53.6977 40.1514 53.6838L37.1981 53.1973C36.9747 53.1606 36.9747 52.8394 37.1981 52.8027L40.1514 52.3162C40.236 52.3023 40.3023 52.236 40.3162 52.1514L40.8027 49.1981Z" fill="#DFDEC8"/>
<path d="M49.8421 34.9585C49.8716 34.7798 50.1284 34.7798 50.1579 34.9585L50.547 37.3211C50.5582 37.3888 50.6112 37.4418 50.6789 37.453L53.0415 37.8421C53.2202 37.8716 53.2202 38.1284 53.0415 38.1579L50.6789 38.547C50.6112 38.5582 50.5582 38.6112 50.547 38.6789L50.1579 41.0415C50.1284 41.2202 49.8716 41.2202 49.8421 41.0415L49.453 38.6789C49.4418 38.6112 49.3888 38.5582 49.3211 38.547L46.9585 38.1579C46.7798 38.1284 46.7798 37.8716 46.9585 37.8421L49.3211 37.453C49.3888 37.4418 49.4418 37.3888 49.453 37.3211L49.8421 34.9585Z" fill="#DFDEC8"/>
</g>
<rect x="1" y="7" width="58" height="58" rx="29" stroke="black" stroke-width="2"/>
</g>
<defs>
<clipPath id="clip0_26_37">
<rect width="60" height="66" fill="white"/>
</clipPath>
<clipPath id="clip1_26_37">
<rect y="6" width="60" height="60" rx="30" fill="white"/>
</clipPath>
</defs>
</svg>
