<svg width="60" height="66" viewBox="0 0 60 66" fill="none" xmlns="http://www.w3.org/2000/svg">
<g clip-path="url(#clip0_31_173)">
<path d="M27.5311 1H32.4689C33.9818 1 35.258 2.12661 35.4457 3.6279L36.9457 15.6279C37.1695 17.4185 35.7734 19 33.9689 19H26.0311C24.2266 19 22.8305 17.4185 23.0543 15.6279L24.5543 3.6279C24.742 2.12661 26.0182 1 27.5311 1Z" fill="#CFB529" stroke="black" stroke-width="2"/>
<g clip-path="url(#clip1_31_173)">
<circle cx="30" cy="36" r="29" fill="#67CBE0" stroke="black" stroke-width="2"/>
<path d="M18 17L26.5 37.5L8 25.5L18 17Z" fill="#D1D3F1" fill-opacity="0.4"/>
<path d="M9.5 33.5L12 55L0.5 43.5L9.5 33.5Z" fill="#D1D3F1" fill-opacity="0.4"/>
<path d="M53 33L35 35.5L48.5 21L53 33Z" fill="#D1D3F1" fill-opacity="0.4"/>
<path d="M22.5 14.5H40L41 7L22.5 14.5Z" fill="#D1D3F1" fill-opacity="0.4"/>
<path d="M26 62.5L18 46L42 54L26 62.5Z" fill="#D1D3F1" fill-opacity="0.4"/>
<path d="M21.2137 20.4316C21.418 19.4102 22.8528 19.3426 23.1521 20.3403L26.1138 30.2127C26.3063 30.8543 25.8258 31.5 25.156 31.5H20.2198C19.5888 31.5 19.1155 30.9227 19.2392 30.3039L21.2137 20.4316Z" fill="#9FD9E6"/>
<path d="M37.0418 11.4791C37.56 11.22 38.1892 11.4541 38.4121 11.9889L39.7224 15.1338C40.0409 15.8981 39.3456 16.6962 38.5448 16.4855L33.5655 15.1751C32.6735 14.9404 32.5478 13.7261 33.3728 13.3136L37.0418 11.4791Z" fill="#9FD9E6"/>
<path d="M20.6581 43.9478C20.1698 43.0796 21.1125 42.1091 21.9945 42.5721L37.2722 50.5929C37.9937 50.9717 37.9835 52.0083 37.2546 52.3727L28.8519 56.5741C28.3748 56.8126 27.7945 56.6348 27.5331 56.1699L20.6581 43.9478Z" fill="#9FD9E6"/>
<path d="M45.807 29.5121C46.0507 28.6286 47.2556 28.5111 47.6654 29.3308L50.1413 34.2825C50.3509 34.7017 50.2412 35.2103 49.8774 35.5058L44.9257 39.5291C44.1703 40.1428 43.0723 39.4253 43.3312 38.487L45.807 29.5121Z" fill="#9FD9E6"/>
<path d="M5 33.9664C5 32.9275 6.38793 32.5776 6.88047 33.4923L14.051 46.809C14.5093 47.6601 13.6134 48.6016 12.7406 48.186L5.57007 44.7715C5.22183 44.6056 5 44.2543 5 43.8686V33.9664Z" fill="#9FD9E6"/>
<path d="M47 47.8508C47 46.9055 48.1904 46.4879 48.7809 47.2261L50.2799 49.0998C50.66 49.5749 50.5312 50.2766 50.0071 50.5858L48.5081 51.4702C47.8415 51.8635 47 51.3829 47 50.6089V47.8508Z" fill="#BADDE4"/>
<path d="M18.7891 15.2281C19.2224 14.4308 18.4551 13.515 17.5942 13.8019L14.9829 14.6724C14.4458 14.8514 14.1643 15.4402 14.3622 15.9707L15.2326 18.3035C15.5325 19.1071 16.6386 19.185 17.0482 18.4314L18.7891 15.2281Z" fill="#BADDE4"/>
<path d="M37.0885 30.9912C37.654 30.0217 39.142 30.5762 38.9351 31.6794L38.5948 33.4944C38.5353 33.8117 38.3263 34.0808 38.0336 34.2169L37.1582 34.6239C36.2932 35.0262 35.4098 34.1041 35.8486 33.2571L36.5 32L37.0885 30.9912Z" fill="#BADDE4"/>
<path d="M8.78341 24.7074C8.85757 23.7804 7.73704 23.263 7.07949 23.9205L4.98262 26.0174C4.69154 26.3085 4.60857 26.7482 4.77357 27.1253L6.40447 30.8531C6.82124 31.8057 8.23452 31.5685 8.31744 30.532L8.78341 24.7074Z" fill="#BADDE4"/>
</g>
<rect x="1" y="7" width="58" height="58" rx="29" stroke="black" stroke-width="2"/>
</g>
<defs>
<clipPath id="clip0_31_173">
<rect width="60" height="66" fill="white"/>
</clipPath>
<clipPath id="clip1_31_173">
<rect y="6" width="60" height="60" rx="30" fill="white"/>
</clipPath>
</defs>
</svg>
