<svg width="60" height="76" viewBox="0 0 60 76" fill="none" xmlns="http://www.w3.org/2000/svg">
<g clip-path="url(#clip0_128_2)">
<path d="M4.00001 22.6667H56V72.6667C56 73.7712 55.1046 74.6667 54 74.6667H6.00001C4.89544 74.6667 4.00001 73.7712 4.00001 72.6667V22.6667Z" fill="#A9D1FF" stroke="black" stroke-width="1.33333"/>
<path d="M44.5235 59.4035L46.0523 61.9438C46.285 62.3305 46.6645 62.6063 47.1042 62.7081L49.9926 63.377C50.7269 63.5471 51.0162 64.4376 50.5221 65.0068L48.5786 67.2457C48.2827 67.5865 48.1377 68.0327 48.1768 68.4824L48.4331 71.4361C48.4983 72.187 47.7408 72.7373 47.0468 72.4433L44.3168 71.2868C43.9013 71.1107 43.4321 71.1107 43.0165 71.2868L40.2866 72.4433C39.5926 72.7373 38.8351 72.187 38.9003 71.4361L39.1566 68.4824C39.1956 68.0327 39.0506 67.5865 38.7548 67.2457L36.8113 65.0068C36.3172 64.4376 36.6065 63.5471 37.3408 63.377L40.2292 62.7081C40.6688 62.6063 41.0484 62.3305 41.2811 61.9438L42.8099 59.4035C43.1985 58.7577 44.1348 58.7577 44.5235 59.4035Z" fill="#7176F1" stroke="black" stroke-width="0.666667"/>
<path d="M53.5712 44.2623L55.4584 47.3981C55.6446 47.7075 55.9482 47.9281 56.3 48.0096L59.8655 48.8354C60.355 48.9487 60.5479 49.5424 60.2185 49.9219L57.8193 52.6857C57.5826 52.9583 57.4667 53.3153 57.4979 53.675L57.8143 57.3212C57.8578 57.8218 57.3528 58.1887 56.8901 57.9927L53.5201 56.565C53.1877 56.4242 52.8123 56.4242 52.4799 56.565L49.1099 57.9927C48.6472 58.1887 48.1422 57.8218 48.1857 57.3212L48.5021 53.675C48.5333 53.3153 48.4174 52.9583 48.1807 52.6857L45.7815 49.9219C45.4521 49.5424 45.645 48.9487 46.1345 48.8354L49.7 48.0096C50.0518 47.9281 50.3554 47.7075 50.5416 47.3981L52.4288 44.2623C52.6879 43.8317 53.3121 43.8317 53.5712 44.2623Z" fill="#7176F1" stroke="black" stroke-width="0.666667"/>
<path d="M25.8568 51.4035L27.3856 53.9438C27.6183 54.3305 27.9979 54.6063 28.4375 54.7081L31.3259 55.377C32.0602 55.5471 32.3495 56.4376 31.8554 57.0068L29.9119 59.2457C29.616 59.5865 29.4711 60.0327 29.5101 60.4824L29.7664 63.4361C29.8316 64.187 29.0741 64.7373 28.3801 64.4433L25.6501 63.2868C25.2346 63.1107 24.7654 63.1107 24.3499 63.2868L21.6199 64.4433C20.9259 64.7373 20.1684 64.187 20.2336 63.4361L20.4899 60.4824C20.5289 60.0327 20.384 59.5865 20.0881 59.2457L18.1446 57.0068C17.6505 56.4376 17.9398 55.5471 18.6741 55.377L21.5625 54.7081C22.0021 54.6063 22.3817 54.3305 22.6144 53.9438L24.1432 51.4035C24.5319 50.7577 25.4681 50.7577 25.8568 51.4035Z" fill="#7176F1" stroke="black" stroke-width="0.666667"/>
<path d="M5.19015 44.7369L6.71891 47.2771C6.95162 47.6638 7.3312 47.9396 7.77088 48.0414L10.6592 48.7104C11.3935 48.8804 11.6829 49.7709 11.1888 50.3401L9.24524 52.5791C8.94939 52.9199 8.8044 53.3661 8.84342 53.8157L9.09977 56.7694C9.16494 57.5203 8.40746 58.0707 7.71342 57.7767L4.98349 56.6201C4.56794 56.4441 4.09875 56.4441 3.68319 56.6201L0.953266 57.7767C0.25923 58.0707 -0.49825 57.5203 -0.433079 56.7694L-0.176736 53.8157C-0.137715 53.3661 -0.282702 52.9199 -0.578551 52.5791L-2.52208 50.3401C-3.01619 49.7709 -2.72686 48.8804 -1.99254 48.7104L0.895812 48.0414C1.33548 47.9396 1.71506 47.6638 1.94778 47.2771L3.47654 44.7369C3.8652 44.091 4.80149 44.091 5.19015 44.7369Z" fill="#7176F1" stroke="black" stroke-width="0.666667"/>
<path d="M11.8568 63.4035L13.3856 65.9438C13.6183 66.3305 13.9979 66.6063 14.4375 66.7081L17.3259 67.377C18.0602 67.5471 18.3495 68.4376 17.8554 69.0068L15.9119 71.2457C15.616 71.5865 15.4711 72.0327 15.5101 72.4824L15.7664 75.4361C15.8316 76.187 15.0741 76.7373 14.3801 76.4433L11.6501 75.2868C11.2346 75.1107 10.7654 75.1107 10.3499 75.2868L7.61992 76.4433C6.92589 76.7373 6.16841 76.187 6.23358 75.4361L6.48992 72.4824C6.52894 72.0327 6.38395 71.5865 6.08811 71.2457L4.14457 69.0068C3.65047 68.4376 3.9398 67.5471 4.67411 67.377L7.56247 66.7081C8.00214 66.6063 8.38172 66.3305 8.61443 65.9438L10.1432 63.4035C10.5319 62.7577 11.4681 62.7577 11.8568 63.4035Z" fill="#7176F1" stroke="black" stroke-width="0.666667"/>
<path d="M23.1902 32.7369L24.7189 35.2771C24.9516 35.6638 25.3312 35.9396 25.7709 36.0414L28.6592 36.7104C29.3935 36.8804 29.6829 37.7709 29.1888 38.3401L27.2452 40.5791C26.9494 40.9199 26.8044 41.3661 26.8434 41.8157L27.0998 44.7694C27.1649 45.5203 26.4075 46.0707 25.7134 45.7767L22.9835 44.6201C22.5679 44.4441 22.0988 44.4441 21.6832 44.6201L18.9533 45.7767C18.2592 46.0707 17.5018 45.5203 17.5669 44.7694L17.8233 41.8157C17.8623 41.3661 17.7173 40.9199 17.4214 40.5791L15.4779 38.3401C14.9838 37.7709 15.2731 36.8804 16.0075 36.7104L18.8958 36.0414C19.3355 35.9396 19.7151 35.6638 19.9478 35.2771L21.4765 32.7369C21.8652 32.091 22.8015 32.091 23.1902 32.7369Z" fill="#7176F1" stroke="black" stroke-width="0.666667"/>
<path d="M5.85681 25.4035L7.38557 27.9438C7.61828 28.3305 7.99786 28.6063 8.43753 28.7081L11.3259 29.377C12.0602 29.5471 12.3495 30.4376 11.8554 31.0068L9.91189 33.2457C9.61605 33.5865 9.47106 34.0327 9.51008 34.4824L9.76642 37.4361C9.83159 38.187 9.07411 38.7373 8.38008 38.4433L5.65015 37.2868C5.23459 37.1107 4.76541 37.1107 4.34985 37.2868L1.61992 38.4433C0.925886 38.7373 0.168407 38.187 0.233578 37.4361L0.489921 34.4824C0.528942 34.0327 0.383955 33.5865 0.0881057 33.2457L-1.85543 31.0068C-2.34953 30.4376 -2.0602 29.5471 -1.32589 29.377L1.56247 28.7081C2.00214 28.6063 2.38172 28.3305 2.61443 27.9438L4.14319 25.4035C4.53185 24.7577 5.46815 24.7577 5.85681 25.4035Z" fill="#7176F1" stroke="black" stroke-width="0.666667"/>
<path d="M49.1902 25.4035L50.7189 27.9438C50.9517 28.3305 51.3312 28.6063 51.7709 28.7081L54.6593 29.377C55.3936 29.5471 55.6829 30.4376 55.1888 31.0068L53.2453 33.2457C52.9494 33.5865 52.8044 34.0327 52.8435 34.4824L53.0998 37.4361C53.165 38.187 52.4075 38.7373 51.7135 38.4433L48.9835 37.2868C48.568 37.1107 48.0988 37.1107 47.6832 37.2868L44.9533 38.4433C44.2593 38.7373 43.5018 38.187 43.567 37.4361L43.8233 34.4824C43.8623 34.0327 43.7173 33.5865 43.4215 33.2457L41.4779 31.0068C40.9838 30.4376 41.2732 29.5471 42.0075 29.377L44.8958 28.7081C45.3355 28.6063 45.7151 28.3305 45.9478 27.9438L47.4766 25.4035C47.8652 24.7577 48.8015 24.7577 49.1902 25.4035Z" fill="#7176F1" stroke="black" stroke-width="0.666667"/>
<path d="M35.1902 39.4035L36.7189 41.9438C36.9517 42.3305 37.3312 42.6063 37.7709 42.7081L40.6593 43.377C41.3936 43.5471 41.6829 44.4376 41.1888 45.0068L39.2453 47.2457C38.9494 47.5865 38.8044 48.0327 38.8435 48.4824L39.0998 51.4361C39.165 52.187 38.4075 52.7373 37.7135 52.4433L34.9835 51.2868C34.568 51.1107 34.0988 51.1107 33.6832 51.2868L30.9533 52.4433C30.2593 52.7373 29.5018 52.187 29.567 51.4361L29.8233 48.4824C29.8623 48.0327 29.7173 47.5865 29.4215 47.2457L27.4779 45.0068C26.9838 44.4376 27.2732 43.5471 28.0075 43.377L30.8958 42.7081C31.3355 42.6063 31.7151 42.3305 31.9478 41.9438L33.4766 39.4035C33.8652 38.7577 34.8015 38.7577 35.1902 39.4035Z" fill="#7176F1" stroke="black" stroke-width="0.666667"/>
<line x1="51.6667" y1="70.3334" x2="53.6667" y2="70.3334" stroke="black" stroke-width="0.666667" stroke-linecap="round"/>
<line x1="51" y1="71.6667" x2="53.6667" y2="71.6667" stroke="black" stroke-width="0.666667" stroke-linecap="round"/>
<rect x="24" y="22.6667" width="12" height="52" fill="#F29EF3" stroke="black" stroke-width="1.33333"/>
</g>
<path d="M4.00001 22.6667H56V72.6667C56 73.7712 55.1046 74.6667 54 74.6667H6.00001C4.89544 74.6667 4.00001 73.7712 4.00001 72.6667V22.6667Z" stroke="black" stroke-width="1.33333"/>
<path d="M27.5311 1H32.4689C33.9818 1 35.258 2.12661 35.4457 3.6279L36.9457 15.6279C37.1695 17.4185 35.7734 19 33.9689 19H26.0311C24.2266 19 22.8305 17.4185 23.0543 15.6279L24.5543 3.6279C24.742 2.12661 26.0182 1 27.5311 1Z" fill="#CFB529" stroke="black" stroke-width="2"/>
<g clip-path="url(#clip1_128_2)">
<rect y="15.3333" width="60" height="15.3333" rx="2.66667" fill="#A9D1FF"/>
<path d="M39.1902 23.4035L40.7189 25.9438C40.9517 26.3305 41.3312 26.6063 41.7709 26.7081L44.6593 27.377C45.3936 27.5471 45.6829 28.4376 45.1888 29.0068L43.2453 31.2457C42.9494 31.5865 42.8044 32.0327 42.8435 32.4824L43.0998 35.4361C43.165 36.187 42.4075 36.7373 41.7135 36.4433L38.9835 35.2868C38.568 35.1107 38.0988 35.1107 37.6832 35.2868L34.9533 36.4433C34.2593 36.7373 33.5018 36.187 33.567 35.4361L33.8233 32.4824C33.8623 32.0327 33.7173 31.5865 33.4215 31.2457L31.4779 29.0068C30.9838 28.4376 31.2732 27.5471 32.0075 27.377L34.8958 26.7081C35.3355 26.6063 35.7151 26.3305 35.9478 25.9438L37.4766 23.4035C37.8652 22.7577 38.8015 22.7577 39.1902 23.4035Z" fill="#7176F1" stroke="black" stroke-width="0.666667"/>
<path d="M52.9046 12.2623L54.7918 15.3981C54.9779 15.7075 55.2816 15.9281 55.6333 16.0096L59.1989 16.8354C59.6884 16.9487 59.8813 17.5424 59.5519 17.9219L57.1527 20.6857C56.916 20.9583 56.8 21.3153 56.8312 21.675L57.1477 25.3212C57.1911 25.8218 56.6861 26.1887 56.2235 25.9927L52.8535 24.565C52.521 24.4242 52.1457 24.4242 51.8133 24.565L48.4433 25.9927C47.9806 26.1887 47.4756 25.8218 47.5191 25.3212L47.8355 21.675C47.8667 21.3153 47.7507 20.9583 47.5141 20.6857L45.1149 17.9219C44.7855 17.5424 44.9783 16.9487 45.4679 16.8354L49.0334 16.0096C49.3852 15.9281 49.6888 15.7075 49.875 15.3981L51.7622 12.2623C52.0213 11.8317 52.6455 11.8317 52.9046 12.2623Z" fill="#7176F1" stroke="black" stroke-width="0.666667"/>
<path d="M21.1902 15.4035L22.7189 17.9438C22.9516 18.3305 23.3312 18.6063 23.7709 18.7081L26.6592 19.377C27.3935 19.5471 27.6829 20.4376 27.1888 21.0068L25.2452 23.2457C24.9494 23.5865 24.8044 24.0327 24.8434 24.4824L25.0998 27.4361C25.1649 28.187 24.4075 28.7373 23.7134 28.4433L20.9835 27.2868C20.5679 27.1107 20.0988 27.1107 19.6832 27.2868L16.9533 28.4433C16.2592 28.7373 15.5018 28.187 15.5669 27.4361L15.8233 24.4824C15.8623 24.0327 15.7173 23.5865 15.4214 23.2457L13.4779 21.0068C12.9838 20.4376 13.2731 19.5471 14.0075 19.377L16.8958 18.7081C17.3355 18.6063 17.7151 18.3305 17.9478 17.9438L19.4765 15.4035C19.8652 14.7577 20.8015 14.7577 21.1902 15.4035Z" fill="#7176F1" stroke="black" stroke-width="0.666667"/>
<path d="M1.19015 10.0702L2.71891 12.6105C2.95162 12.9972 3.3312 13.2729 3.77088 13.3748L6.65923 14.0437C7.39355 14.2138 7.68288 15.1043 7.18877 15.6735L5.24524 17.9124C4.94939 18.2532 4.8044 18.6994 4.84342 19.1491L5.09977 22.1028C5.16494 22.8537 4.40746 23.404 3.71342 23.11L0.983493 21.9535C0.567937 21.7774 0.0987501 21.7774 -0.316806 21.9535L-3.04673 23.11C-3.74077 23.404 -4.49825 22.8537 -4.43308 22.1028L-4.17674 19.1491C-4.13771 18.6994 -4.2827 18.2532 -4.57855 17.9124L-6.52208 15.6735C-7.01619 15.1043 -6.72686 14.2138 -5.99254 14.0437L-3.10419 13.3748C-2.66452 13.2729 -2.28494 12.9972 -2.05222 12.6105L-0.523464 10.0702C-0.134805 9.42438 0.801492 9.42438 1.19015 10.0702Z" fill="#7176F1" stroke="black" stroke-width="0.666667"/>
<path d="M8.5235 26.7369L10.0523 29.2771C10.285 29.6638 10.6645 29.9396 11.1042 30.0414L13.9926 30.7104C14.7269 30.8804 15.0162 31.7709 14.5221 32.3401L12.5786 34.5791C12.2827 34.9199 12.1377 35.3661 12.1768 35.8157L12.4331 38.7694C12.4983 39.5203 11.7408 40.0707 11.0468 39.7767L8.31684 38.6201C7.90128 38.4441 7.43209 38.4441 7.01654 38.6201L4.28661 39.7767C3.59257 40.0707 2.83509 39.5203 2.90026 38.7694L3.15661 35.8157C3.19563 35.3661 3.05064 34.9199 2.75479 34.5791L0.811262 32.3401C0.317153 31.7709 0.606485 30.8804 1.3408 30.7104L4.22916 30.0414C4.66883 29.9396 5.04841 29.6638 5.28112 29.2771L6.80988 26.7369C7.19854 26.091 8.13484 26.091 8.5235 26.7369Z" fill="#7176F1" stroke="black" stroke-width="0.666667"/>
<rect x="24" y="16" width="12" height="14" fill="#F29EF3" stroke="black" stroke-width="1.33333"/>
<line x1="26.3334" y1="27" x2="26.3334" y2="23.6667" stroke="black" stroke-width="0.666667" stroke-linecap="round"/>
<line x1="28.3334" y1="25.6667" x2="28.3334" y2="21" stroke="black" stroke-width="0.666667" stroke-linecap="round"/>
</g>
<rect x="0.666667" y="16" width="58.6667" height="14" rx="2" stroke="black" stroke-width="1.33333"/>
<path d="M6.6704 16C6.72771 10.9329 7.44391 7.35001 8.68617 4.93193C9.96058 2.4513 11.7948 1.17892 14.1477 0.76945C16.4863 0.362467 19.2421 1.18796 21.7559 2.85772C24.2606 4.5214 26.4368 6.96758 27.6204 9.65186C28.8195 12.3714 28.7759 14.0303 28.5186 14.9571C28.3892 15.4232 28.2002 15.7263 28.0581 15.9044C28.0287 15.9413 28.0012 15.973 27.9762 16H6.6704Z" fill="#F29EF3" stroke="black" stroke-width="1.33333"/>
<path d="M52.6629 16.1134C52.6056 11.0464 51.8894 7.46344 50.6471 5.04537C49.3727 2.56473 47.5385 1.29235 45.1856 0.882884C42.847 0.475901 40.0912 1.3014 37.5774 2.97115C35.0727 4.63484 32.8965 7.08101 31.7129 9.76529C30.5139 12.4848 30.5574 14.1438 30.8147 15.0705C30.9441 15.5366 31.1331 15.8397 31.2752 16.0179C31.3046 16.0547 31.3322 16.0865 31.3571 16.1134H52.6629Z" fill="#F29EF3" stroke="black" stroke-width="1.33333"/>
<path d="M34.8521 12.1125C37.7946 10.4959 39.9958 9.56367 43.5447 10.374" stroke="black" stroke-width="1.33333" stroke-linecap="round"/>
<path d="M24.5317 12.6097C20.8794 10.0072 18.7005 9.37423 14.4963 10.2484" stroke="black" stroke-width="1.33333" stroke-linecap="round"/>
<path d="M28.9007 8.11341H28.9055H28.9102H28.915H28.9198H28.9246H28.9294H28.9341H28.9389H28.9437H28.9485H28.9532H28.958H28.9628H28.9676H28.9724H28.9771H28.9819H28.9867H28.9914H28.9962H29.001H29.0058H29.0105H29.0153H29.0201H29.0249H29.0296H29.0344H29.0392H29.0439H29.0487H29.0535H29.0582H29.063H29.0678H29.0725H29.0773H29.0821H29.0868H29.0916H29.0964H29.1011H29.1059H29.1107H29.1154H29.1202H29.1249H29.1297H29.1345H29.1392H29.144H29.1488H29.1535H29.1583H29.163H29.1678H29.1726H29.1773H29.1821H29.1868H29.1916H29.1963H29.2011H29.2059H29.2106H29.2154H29.2201H29.2249H29.2296H29.2344H29.2391H29.2439H29.2487H29.2534H29.2582H29.2629H29.2677H29.2724H29.2772H29.2819H29.2867H29.2914H29.2962H29.3009H29.3057H29.3104H29.3152H29.3199H29.3247H29.3294H29.3342H29.3389H29.3437H29.3484H29.3532H29.3579H29.3627H29.3674H29.3722H29.3769H29.3816H29.3864H29.3911H29.3959H29.4006H29.4054H29.4101H29.4149H29.4196H29.4243H29.4291H29.4338H29.4386H29.4433H29.4481H29.4528H29.4575H29.4623H29.467H29.4718H29.4765H29.4812H29.486H29.4907H29.4955H29.5002H29.5049H29.5097H29.5144H29.5192H29.5239H29.5286H29.5334H29.5381H29.5429H29.5476H29.5523H29.5571H29.5618H29.5665H29.5713H29.576H29.5808H29.5855H29.5902H29.595H29.5997H29.6044H29.6092H29.6139H29.6186H29.6234H29.6281H29.6328H29.6376H29.6423H29.6471H29.6518H29.6565H29.6613H29.666H29.6707H29.6755H29.6802H29.6849H29.6897H29.6944H29.6991H29.7039H29.7086H29.7133H29.7181H29.7228H29.7275H29.7322H29.737H29.7417H29.7464H29.7512H29.7559H29.7606H29.7654H29.7701H29.7748H29.7796H29.7843H29.789H29.7938H29.7985H29.8032H29.8079H29.8127H29.8174H29.8221H29.8269H29.8316H29.8363H29.8411H29.8458H29.8505H29.8552H29.86H29.8647H29.8694H29.8742H29.8789H29.8836H29.8884H29.8931H29.8978H29.9025H29.9073H29.912H29.9167H29.9215H29.9262H29.9309H29.9356H29.9404H29.9451H29.9498H29.9546H29.9593H29.964H29.9687H29.9735H29.9782H29.9829H29.9877H29.9924H29.9971H30.0018H30.0066H30.0113H30.016H30.0208H30.0255H30.0302H30.035H30.0397H30.0444H30.0491H30.0539H30.0586H30.0633H30.0681H30.0728H30.0775H30.0822H30.087H30.0917H30.0964H30.1012H30.1059H30.1106H30.1153H30.1201H30.1248H30.1295H30.1343H30.139H30.1437H30.1485H30.1532H30.1579H30.1626H30.1674H30.1721H30.1768H30.1816H30.1863H30.191H30.1958H30.2005H30.2052H30.2099H30.2147H30.2194H30.2241H30.2289H30.2336H30.2383H30.2431H30.2478H30.2525H30.2573H30.262H30.2667H30.2715H30.2762H30.2809H30.2856H30.2904H30.2951H30.2998H30.3046H30.3093H30.314H30.3188H30.3235H30.3282H30.333H30.3377H30.3424H30.3472H30.3519H30.3566H30.3614H30.3661H30.3709H30.3756H30.3803H30.3851H30.3898H30.3945H30.3993H30.404H30.4087H30.4135H30.4182H30.4229H30.4277H30.4324H30.4372H30.4419H30.4466H30.4514H30.4561H30.4608H30.4656H30.4703H30.4751H30.4798H30.4845H30.4893H30.494H30.4988H30.5035H30.5082H30.513H30.5177H30.5225H30.5272H30.5319H30.5367H30.5414H30.5462H30.5509H30.5556H30.5604H30.5651H30.5699H30.5746H30.5794H30.5841H30.5889H30.5936H30.5983H30.6031H30.6078H30.6126H30.6173H30.6221H30.6268H30.6316H30.6363H30.6411H30.6458H30.6505H30.6553H30.66H30.6648H30.6695H30.6743H30.679H30.6838H30.6885H30.6933H30.698H30.7028H30.7075H30.7123H30.717H30.7218H30.7265H30.7313H30.736H30.7408H30.7456H30.7503H30.7551H30.7598H30.7646H30.7693H30.7741H30.7788H30.7836H30.7883H30.7931H30.7979H30.8026H30.8074H30.8121H30.8169H30.8216H30.8264H30.8312H30.8359H30.8407H30.8454H30.8502H30.855H30.8597H30.8645H30.8692H30.874H30.8788H30.8835H30.8883H30.8931H30.8978H30.9026H30.9074H30.9121H30.9169H30.9217H30.9264H30.9312H30.936H30.9407H30.9455H30.9503H30.955H30.9598H30.9646H30.9693H30.9741H30.9789H30.9836H30.9884H30.9932H30.998H31.0027H31.0075H31.0123H31.0171H31.0218H31.0266H31.0314H31.0362H31.0409H31.0457H31.0505H31.0553H31.06H31.0648H31.0696H31.0744H31.0792H31.0839H31.0887H31.0935H31.0983H31.1031H31.1078H31.1126H31.1174H31.1222H31.127H31.1318H31.1366H31.1413H31.1461H31.1509H31.1557H31.1605H31.1653H31.1701H31.1749H31.1796H31.1844H31.1892H31.194H31.1988H31.2036H31.2084H31.2132H31.218H31.2228H31.2276H31.2324H31.2372H31.242H31.2467H31.2515H31.2563H31.2611H31.2659H31.2707H31.2755H31.2803H31.2851H31.2899H31.2947H31.2995H31.3043H31.3092H31.314H31.3188H31.3236H31.3284H31.3332C33.5423 8.11341 35.3333 9.9043 35.3333 12.1134V16.1134H24.7C24.7554 14.8306 24.7742 13.5319 24.7736 12.3447C24.7725 10.0278 26.6203 8.11341 28.9007 8.11341Z" fill="#F29EF3" stroke="black" stroke-width="1.33333"/>
<path d="M42.4215 2.45585C45.7062 2.34553 46.7486 2.8274 47.789 4.24503" stroke="black" stroke-width="0.666667" stroke-linecap="round"/>
<defs>
<clipPath id="clip0_128_2">
<path d="M3.33334 22H56.6667V72.6667C56.6667 74.1394 55.4728 75.3333 54 75.3333H6.00001C4.52725 75.3333 3.33334 74.1394 3.33334 72.6667V22Z" fill="white"/>
</clipPath>
<clipPath id="clip1_128_2">
<rect y="15.3333" width="60" height="15.3333" rx="2.66667" fill="white"/>
</clipPath>
</defs>
</svg>
