<svg width="60" height="66" viewBox="0 0 60 66" fill="none" xmlns="http://www.w3.org/2000/svg">
<g clip-path="url(#clip0_25_6)">
<path d="M27.5311 1H32.4689C33.9818 1 35.258 2.12661 35.4457 3.6279L36.9457 15.6279C37.1695 17.4185 35.7734 19 33.9689 19H26.0311C24.2266 19 22.8305 17.4185 23.0543 15.6279L24.5543 3.6279C24.742 2.12661 26.0182 1 27.5311 1Z" fill="#CFB529" stroke="black" stroke-width="2"/>
<g clip-path="url(#clip1_25_6)">
<circle cx="30" cy="36" r="29" fill="#77D9F8" stroke="black" stroke-width="2"/>
<path d="M4.09406 51.8019C4.02618 50.9008 4.75564 50.1412 5.65873 50.1721C9.08525 50.2896 16.9862 50.4927 22.5 50.1076C29.7784 49.5992 33.7501 48.3196 41 47.5C46.7086 46.8547 54.9428 46.244 58.2988 46.0059C59.1351 45.9465 59.859 46.575 59.922 47.411V47.411C59.9841 48.2356 59.3798 48.9598 58.5573 49.0458C55.1958 49.397 46.8133 50.2846 41 51C33.7642 51.8905 29.7792 53.0959 22.5 53.5C16.8326 53.8147 8.62824 53.3773 5.48429 53.1835C4.73841 53.1375 4.1502 52.5471 4.09406 51.8019V51.8019Z" fill="#D8E9EE"/>
<path d="M1.17585 35.3668C1.25999 34.5937 1.91602 34.0142 2.69332 34.0388C6.23989 34.151 15.9099 34.5316 22.5 35.5C29.8131 36.5747 33.6742 38.5159 41 39.5C47.0011 40.3061 55.7032 40.4586 59.31 40.4864C60.1983 40.4932 60.8882 41.2652 60.7921 42.1483V42.1483C60.7099 42.903 60.0793 43.4743 59.3201 43.4678C55.9846 43.4395 47.0853 43.2896 41 42.5C33.4804 41.5242 29.5057 39.5773 22 38.5C15.6185 37.584 6.33405 37.1714 2.62198 37.036C1.74723 37.004 1.08114 36.237 1.17585 35.3668V35.3668Z" fill="#D8E9EE"/>
<path d="M0.531393 46.6845C0.260233 45.7772 0.907162 44.8504 1.85131 44.7766C4.77038 44.5486 10.5193 44.0023 14.5 43C23.4797 40.7389 26.9413 34.9204 36 33C37.8249 32.6131 40.3787 32.2926 41.8438 32.1253C42.5246 32.0476 43.1641 32.4504 43.3986 33.0943V33.0943C43.7296 34.0032 43.1278 34.9859 42.1696 35.1185C40.67 35.326 38.5674 35.646 37 36C27.9675 38.04 24.4918 43.7873 15.5 46C11.1154 47.0789 4.60734 47.5606 1.9999 47.7184C1.32861 47.759 0.723955 47.3289 0.531393 46.6845V46.6845Z" fill="#D8E9EE"/>
<rect x="47.3315" y="31.381" width="11.9947" height="3" rx="1.5" transform="rotate(-1.82058 47.3315 31.381)" fill="#D8E9EE"/>
<path d="M24.3014 25.0026C24.1424 24.1138 24.804 23.2883 25.7058 23.2448C28.6204 23.1041 34.6516 22.7413 38.861 22C43.2309 21.2304 49.2485 19.4169 52.099 18.5204C52.9591 18.2499 53.8641 18.7943 54.0229 19.6819V19.6819C54.1533 20.4103 53.7272 21.1219 53.0205 21.3417C50.2987 22.1884 43.6296 24.1886 38.861 25C34.6138 25.7227 28.454 26.0842 25.8111 26.2136C25.0731 26.2497 24.4316 25.7299 24.3014 25.0026V25.0026Z" fill="#D8E9EE"/>
<path d="M3.17085 22.6334C3.28209 21.7593 4.12434 21.1713 4.98543 21.3584C6.60196 21.7096 9.11826 22.2304 11 22.5C13.6507 22.8797 17.3436 23.0907 19.4455 23.1871C20.3236 23.2274 20.9856 24.0072 20.8746 24.8793V24.8793C20.7774 25.6437 20.116 26.2072 19.3463 26.1705C17.3702 26.0765 13.6475 25.864 11 25.5C8.87695 25.2081 5.9827 24.6176 4.32051 24.2635C3.57003 24.1036 3.07399 23.3946 3.17085 22.6334V22.6334Z" fill="#D8E9EE"/>
</g>
<rect x="1" y="7" width="58" height="58" rx="29" stroke="black" stroke-width="2"/>
</g>
<defs>
<clipPath id="clip0_25_6">
<rect width="60" height="66" fill="white"/>
</clipPath>
<clipPath id="clip1_25_6">
<rect y="6" width="60" height="60" rx="30" fill="white"/>
</clipPath>
</defs>
</svg>
