<svg width="80" height="80" viewBox="0 0 80 80" fill="none" xmlns="http://www.w3.org/2000/svg">
<g clip-path="url(#clip0_21_46)">
<path d="M34.9091 59.5H44.6347C45.1599 59.5 45.5957 59.9064 45.6322 60.4304L46.8532 77.9304C46.8935 78.5087 46.4353 79 45.8556 79H34.0952C33.5247 79 33.0698 78.5234 33.0963 77.9535L33.9102 60.4535C33.935 59.9199 34.3749 59.5 34.9091 59.5Z" fill="#F33838" stroke="black" stroke-width="2"/>
<path d="M40.8249 2.97249L52.8799 20.5623C53.27 21.1315 53.8444 21.5488 54.5063 21.7439L74.9604 27.7734C75.6343 27.972 75.8986 28.7855 75.4701 29.3424L62.4665 46.2429C62.0457 46.7898 61.8263 47.4651 61.8453 48.1548L62.4316 69.471C62.4509 70.1734 61.7589 70.6761 61.0969 70.4407L41.0051 63.2961C40.355 63.0649 39.645 63.0649 38.9949 63.2961L18.9031 70.4407C18.2411 70.6761 17.5491 70.1734 17.5684 69.471L18.1547 48.1548C18.1737 47.4651 17.9543 46.7898 17.5335 46.2429L4.52985 29.3424C4.10139 28.7855 4.3657 27.972 5.03965 27.7734L25.4937 21.7439C26.1556 21.5488 26.73 21.1315 27.1201 20.5623L39.1751 2.9725C39.5723 2.39292 40.4277 2.39292 40.8249 2.97249Z" fill="#F33838" stroke="black" stroke-width="2"/>
<line x1="40" y1="3" x2="40" y2="40" stroke="black" stroke-width="2" stroke-linecap="round"/>
<line x1="5.26491" y1="28.3675" x2="39.3675" y2="39.7351" stroke="black" stroke-width="2" stroke-linecap="round"/>
<line x1="75.3675" y1="28.2649" x2="41.2649" y2="39.6325" stroke="black" stroke-width="2" stroke-linecap="round"/>
<line x1="61.6057" y1="69.7632" x2="40.7632" y2="40.3943" stroke="black" stroke-width="2" stroke-linecap="round"/>
<line x1="18.7632" y1="69.6057" x2="39.6057" y2="40.2368" stroke="black" stroke-width="2" stroke-linecap="round"/>
</g>
<defs>
<clipPath id="clip0_21_46">
<rect width="80" height="80" fill="white"/>
</clipPath>
</defs>
</svg>
