<svg width="80" height="80" viewBox="0 0 80 80" fill="none" xmlns="http://www.w3.org/2000/svg">
<path d="M34.9216 56H44.6164C45.1454 56 45.5829 56.412 45.6146 56.9401L46.8746 77.9401C46.9091 78.5149 46.4522 79 45.8764 79H34.0816C33.5136 79 33.0597 78.5275 33.0824 77.96L33.9224 56.96C33.9439 56.4237 34.3849 56 34.9216 56Z" fill="#F4BC2A" stroke="black" stroke-width="2"/>
<mask id="path-2-inside-1_26_55" fill="white">
<path fill-rule="evenodd" clip-rule="evenodd" d="M41.8691 1.90856C41.215 0.190839 38.785 0.19084 38.1309 1.90856L29.2883 25.1309C29.0853 25.6641 28.6641 26.0853 28.1309 26.2883L4.90856 35.1309C3.19084 35.785 3.19084 38.215 4.90856 38.8691L28.1309 47.7117C28.6641 47.9147 29.0853 48.3358 29.2883 48.8691L38.1309 72.0914C38.785 73.8092 41.215 73.8092 41.8691 72.0914L50.7117 48.8691C50.9147 48.3358 51.3358 47.9147 51.8691 47.7117L75.0914 38.8691C76.8092 38.215 76.8092 35.785 75.0914 35.1309L51.8691 26.2883C51.3358 26.0853 50.9147 25.6641 50.7117 25.1309L41.8691 1.90856ZM40 45C44.4183 45 48 41.4183 48 37C48 32.5817 44.4183 29 40 29C35.5817 29 32 32.5817 32 37C32 41.4183 35.5817 45 40 45Z"/>
</mask>
<path fill-rule="evenodd" clip-rule="evenodd" d="M41.8691 1.90856C41.215 0.190839 38.785 0.19084 38.1309 1.90856L29.2883 25.1309C29.0853 25.6641 28.6641 26.0853 28.1309 26.2883L4.90856 35.1309C3.19084 35.785 3.19084 38.215 4.90856 38.8691L28.1309 47.7117C28.6641 47.9147 29.0853 48.3358 29.2883 48.8691L38.1309 72.0914C38.785 73.8092 41.215 73.8092 41.8691 72.0914L50.7117 48.8691C50.9147 48.3358 51.3358 47.9147 51.8691 47.7117L75.0914 38.8691C76.8092 38.215 76.8092 35.785 75.0914 35.1309L51.8691 26.2883C51.3358 26.0853 50.9147 25.6641 50.7117 25.1309L41.8691 1.90856ZM40 45C44.4183 45 48 41.4183 48 37C48 32.5817 44.4183 29 40 29C35.5817 29 32 32.5817 32 37C32 41.4183 35.5817 45 40 45Z" fill="#F4BC2A"/>
<path d="M38.1309 1.90856L40 2.62027V2.62027L38.1309 1.90856ZM41.8691 1.90856L43.7382 1.19685V1.19685L41.8691 1.90856ZM29.2883 25.1309L27.4192 24.4192V24.4192L29.2883 25.1309ZM28.1309 26.2883L28.8426 28.1574V28.1574L28.1309 26.2883ZM4.90856 35.1309L4.19685 33.2618H4.19685L4.90856 35.1309ZM4.90856 38.8691L4.19685 40.7382H4.19685L4.90856 38.8691ZM28.1309 47.7117L28.8426 45.8426L28.8426 45.8426L28.1309 47.7117ZM29.2883 48.8691L31.1574 48.1574L31.1574 48.1574L29.2883 48.8691ZM38.1309 72.0914L36.2618 72.8031L38.1309 72.0914ZM41.8691 72.0914L43.7382 72.8031L41.8691 72.0914ZM50.7117 48.8691L48.8426 48.1574V48.1574L50.7117 48.8691ZM51.8691 47.7117L51.1574 45.8426L51.1573 45.8426L51.8691 47.7117ZM75.0914 38.8691L75.8031 40.7382L75.0914 38.8691ZM75.0914 35.1309L74.3797 37L75.0914 35.1309ZM51.8691 26.2883L52.5808 24.4192H52.5808L51.8691 26.2883ZM50.7117 25.1309L48.8426 25.8426L48.8426 25.8426L50.7117 25.1309ZM40 2.62027C40.0041 2.60937 40.0073 2.60361 40.0083 2.60179C40.0094 2.59997 40.0091 2.6007 40.0072 2.60308C40.0053 2.60543 40.0026 2.60836 39.9992 2.61139C39.9959 2.61438 39.9926 2.61685 39.9897 2.61875C39.9838 2.62257 39.9813 2.62293 39.9837 2.62222C39.9865 2.62142 39.9923 2.62027 40 2.62027C40.0077 2.62027 40.0135 2.62142 40.0163 2.62222C40.0187 2.62293 40.0162 2.62257 40.0103 2.61875C40.0074 2.61685 40.0041 2.61438 40.0008 2.61139C39.9974 2.60836 39.9947 2.60543 39.9928 2.60308C39.9909 2.6007 39.9906 2.59997 39.9917 2.60179C39.9927 2.60361 39.9958 2.60937 40 2.62027L43.7382 1.19685C42.43 -2.23859 37.57 -2.23859 36.2618 1.19685L40 2.62027ZM31.1574 25.8426L40 2.62027L36.2618 1.19685L27.4192 24.4192L31.1574 25.8426ZM28.8426 28.1574C29.9091 27.7513 30.7513 26.9091 31.1574 25.8426L27.4192 24.4192L28.8426 28.1574ZM5.62027 37L28.8426 28.1574L27.4192 24.4192L4.19685 33.2618L5.62027 37ZM5.62027 37C5.60937 36.9958 5.60362 36.9927 5.60179 36.9917C5.59997 36.9906 5.6007 36.9909 5.60308 36.9928C5.60544 36.9947 5.60836 36.9974 5.61139 37.0008C5.61438 37.0041 5.61685 37.0074 5.61875 37.0103C5.62257 37.0162 5.62293 37.0187 5.62222 37.0163C5.62142 37.0135 5.62027 37.0077 5.62027 37C5.62027 36.9923 5.62142 36.9865 5.62222 36.9837C5.62292 36.9813 5.62257 36.9838 5.61875 36.9897C5.61685 36.9926 5.61438 36.9959 5.61139 36.9992C5.60836 37.0026 5.60543 37.0053 5.60308 37.0072C5.6007 37.0091 5.59997 37.0094 5.60179 37.0083C5.60361 37.0073 5.60937 37.0041 5.62027 37L4.19685 33.2618C0.761405 34.57 0.761415 39.43 4.19685 40.7382L5.62027 37ZM28.8426 45.8426L5.62027 37L4.19685 40.7382L27.4192 49.5808L28.8426 45.8426ZM31.1574 48.1574C30.7513 47.0909 29.9091 46.2487 28.8426 45.8426L27.4192 49.5808L27.4192 49.5808L31.1574 48.1574ZM40 71.3797L31.1574 48.1574L27.4192 49.5808L36.2618 72.8031L40 71.3797ZM40 71.3797C39.9958 71.3906 39.9927 71.3964 39.9917 71.3982C39.9906 71.4 39.9909 71.3993 39.9928 71.3969C39.9947 71.3946 39.9974 71.3916 40.0008 71.3886C40.0041 71.3856 40.0074 71.3831 40.0103 71.3812C40.0162 71.3774 40.0187 71.3771 40.0163 71.3778C40.0135 71.3786 40.0077 71.3797 40 71.3797C39.9923 71.3797 39.9865 71.3786 39.9837 71.3778C39.9813 71.3771 39.9838 71.3774 39.9897 71.3812C39.9926 71.3831 39.9959 71.3856 39.9992 71.3886C40.0026 71.3916 40.0053 71.3946 40.0072 71.3969C40.0091 71.3993 40.0094 71.4 40.0083 71.3982C40.0073 71.3964 40.0041 71.3906 40 71.3797L36.2618 72.8031C37.57 76.2386 42.43 76.2386 43.7382 72.8031L40 71.3797ZM48.8426 48.1574L40 71.3797L43.7382 72.8031L52.5808 49.5808L48.8426 48.1574ZM51.1573 45.8426C50.0909 46.2487 49.2487 47.0909 48.8426 48.1574L52.5808 49.5808L52.5808 49.5808L51.1573 45.8426ZM74.3797 37L51.1574 45.8426L52.5808 49.5808L75.8031 40.7382L74.3797 37ZM74.3797 37C74.3906 37.0041 74.3964 37.0073 74.3982 37.0083C74.4 37.0094 74.3993 37.0091 74.3969 37.0072C74.3946 37.0053 74.3916 37.0026 74.3886 36.9992C74.3856 36.9959 74.3831 36.9926 74.3812 36.9897C74.3774 36.9838 74.3771 36.9813 74.3778 36.9837C74.3786 36.9865 74.3797 36.9923 74.3797 37C74.3797 37.0077 74.3786 37.0135 74.3778 37.0163C74.3771 37.0187 74.3774 37.0162 74.3812 37.0103C74.3831 37.0074 74.3856 37.0041 74.3886 37.0008C74.3916 36.9974 74.3946 36.9947 74.3969 36.9928C74.3993 36.9909 74.4 36.9906 74.3982 36.9917C74.3964 36.9927 74.3906 36.9958 74.3797 37L75.8031 40.7382C79.2386 39.43 79.2386 34.57 75.8031 33.2618L74.3797 37ZM51.1574 28.1574L74.3797 37L75.8031 33.2618L52.5808 24.4192L51.1574 28.1574ZM48.8426 25.8426C49.2487 26.9091 50.0909 27.7513 51.1574 28.1574L52.5808 24.4192V24.4192L48.8426 25.8426ZM40 2.62027L48.8426 25.8426L52.5808 24.4192L43.7382 1.19685L40 2.62027ZM46 37C46 40.3137 43.3137 43 40 43V47C45.5228 47 50 42.5228 50 37H46ZM40 31C43.3137 31 46 33.6863 46 37H50C50 31.4771 45.5228 27 40 27V31ZM34 37C34 33.6863 36.6863 31 40 31V27C34.4771 27 30 31.4771 30 37H34ZM40 43C36.6863 43 34 40.3137 34 37H30C30 42.5228 34.4771 47 40 47V43Z" fill="black" mask="url(#path-2-inside-1_26_55)"/>
</svg>
