<svg width="80" height="80" viewBox="0 0 80 80" fill="none" xmlns="http://www.w3.org/2000/svg">
<g clip-path="url(#clip0_31_151)">
<path d="M34.9091 59.5H44.6347C45.1599 59.5 45.5957 59.9064 45.6322 60.4304L46.8532 77.9304C46.8935 78.5087 46.4353 79 45.8556 79H34.0952C33.5247 79 33.0698 78.5234 33.0963 77.9535L33.9102 60.4535C33.935 59.9199 34.3749 59.5 34.9091 59.5Z" fill="#E0C563" stroke="black" stroke-width="2"/>
<path d="M40.8249 2.97249L52.8799 20.5623C53.27 21.1315 53.8444 21.5488 54.5063 21.7439L74.9604 27.7734C75.6343 27.972 75.8986 28.7855 75.4701 29.3424L62.4665 46.2429C62.0457 46.7898 61.8263 47.4651 61.8453 48.1548L62.4316 69.471C62.4509 70.1734 61.7589 70.6761 61.0969 70.4407L41.0051 63.2961C40.355 63.0649 39.645 63.0649 38.9949 63.2961L18.9031 70.4407C18.2411 70.6761 17.5491 70.1734 17.5684 69.471L18.1547 48.1548C18.1737 47.4651 17.9543 46.7898 17.5335 46.2429L4.52985 29.3424C4.10139 28.7855 4.3657 27.972 5.03965 27.7734L25.4937 21.7439C26.1556 21.5488 26.73 21.1315 27.1201 20.5623L39.1751 2.9725C39.5723 2.39292 40.4277 2.39292 40.8249 2.97249Z" fill="#E0C563" stroke="black" stroke-width="2"/>
<path d="M70 32.5L59 46L45 41.5L70 32.5Z" fill="#F1E8D1" fill-opacity="0.4"/>
<path d="M24.5 25L38 37L12.5 28.5L24.5 25Z" fill="#F1E8D1" fill-opacity="0.4"/>
<path d="M35 42.5L20 64.5L20.5 48.5L35 42.5Z" fill="#F1E8D1" fill-opacity="0.4"/>
<path d="M15.4632 38.3737C14.7949 37.5941 15.595 36.4342 16.5611 36.782L22.9725 39.0901C23.8441 39.4039 23.8574 40.6318 22.9927 40.9643L19.6588 42.2466C19.2639 42.3985 18.816 42.2854 18.5406 41.964L15.4632 38.3737Z" fill="#E0B054"/>
<path d="M42 32.7358C42 31.7905 43.1904 31.3729 43.7809 32.1111L45.2799 33.9848C45.66 34.46 45.5312 35.1616 45.0071 35.4708L43.5081 36.3552C42.8415 36.7485 42 36.2679 42 35.4939V32.7358Z" fill="#EBBF4D"/>
<path d="M67.6805 32.5741C68.5802 32.2314 69.397 33.2332 68.8802 34.0455L67.3733 36.4134C67.1489 36.766 66.7288 36.9419 66.3201 36.8543L63.3064 36.2085C62.3324 35.9998 62.2291 34.6508 63.1599 34.2962L67.6805 32.5741Z" fill="#EBBF4D"/>
<path d="M48.7364 59.2636C49.1483 58.8517 49.8237 58.8776 50.2028 59.3199L53.4974 63.1637C54.1278 63.8991 53.4489 65.0116 52.5066 64.7873L46.7409 63.4145C45.9799 63.2333 45.7122 62.2878 46.2654 61.7346L48.7364 59.2636Z" fill="#EBBF4D"/>
<path d="M18.1936 25.8564C18.6614 25.7463 19.1413 25.9846 19.3365 26.4237L20.1791 28.3195C20.5153 29.0761 19.8391 29.8902 19.0336 29.6985L14.61 28.6452C13.5841 28.401 13.586 26.9405 14.6126 26.699L18.1936 25.8564Z" fill="#EBBF4D"/>
<path d="M46.7314 18.8913C47.1061 18.3105 47.943 18.2759 48.3644 18.8237L51.5738 22.9959C52.0119 23.5655 51.7242 24.3975 51.0278 24.5747L43.9671 26.372C43.0864 26.5962 42.3875 25.6244 42.8801 24.8608L46.7314 18.8913Z" fill="#E0B054"/>
<path d="M47.8634 44.5844C47.2807 43.7008 48.2908 42.636 49.2039 43.1713L56.0872 47.2063C57.0115 47.7481 56.5519 49.1673 55.4855 49.0644L50.9757 48.6292C50.6749 48.6002 50.4033 48.4367 50.2369 48.1843L47.8634 44.5844Z" fill="#E0B054"/>
<path d="M36.1538 51.4323C36.6882 50.5835 38 50.9621 38 51.9651V58.7518C38 59.1954 37.7077 59.586 37.2822 59.7111L32.0379 61.2536C31.1539 61.5135 30.4186 60.5411 30.9095 59.7614L36.1538 51.4323Z" fill="#E0B054"/>
<path d="M35.6258 12.8735C36.127 11.9715 37.5 12.3273 37.5 13.3591V22C37.5 22.5523 37.0523 23 36.5 23H31.6995C30.937 23 30.4551 22.1809 30.8254 21.5144L35.6258 12.8735Z" fill="#E0B054"/>
<line x1="40" y1="3" x2="40" y2="40" stroke="black" stroke-width="2" stroke-linecap="round"/>
<line x1="5.26491" y1="28.3675" x2="39.3675" y2="39.7351" stroke="black" stroke-width="2" stroke-linecap="round"/>
<line x1="75.3675" y1="28.2649" x2="41.2649" y2="39.6325" stroke="black" stroke-width="2" stroke-linecap="round"/>
<line x1="61.6057" y1="69.7632" x2="40.7632" y2="40.3943" stroke="black" stroke-width="2" stroke-linecap="round"/>
<line x1="18.7632" y1="69.6057" x2="39.6057" y2="40.2368" stroke="black" stroke-width="2" stroke-linecap="round"/>
</g>
<defs>
<clipPath id="clip0_31_151">
<rect width="80" height="80" fill="white"/>
</clipPath>
</defs>
</svg>
