<svg width="81" height="61" viewBox="0 0 81 61" fill="none" xmlns="http://www.w3.org/2000/svg">
<g clip-path="url(#clip0_26_127)">
<path d="M33.7651 26.2243H45.8925C46.2034 26.2243 46.4652 26.4801 46.469 26.8043C46.5241 31.4256 46.9572 34.632 48.7736 37.866C50.5728 41.0692 53.7041 44.2523 59.0148 48.9116C59.3673 49.221 59.229 49.787 58.8011 49.9069L54.2311 51.1864C53.7451 51.3225 53.3441 51.6663 53.1353 52.1257L50.9892 56.847C50.8534 57.1457 50.5129 57.2521 50.255 57.1115C39.7756 51.3995 33.5875 38.5025 33.213 26.7759C33.2035 26.4803 33.4452 26.2243 33.7651 26.2243Z" fill="#D62121" stroke="black" stroke-width="1.14019"/>
<path d="M33.7651 26.2243H45.8709C46.1897 26.2243 46.4448 26.4872 46.4363 26.8027C46.254 33.5476 45.5897 38.807 43.8516 43.8483C42.1137 48.889 39.2898 53.7474 34.7411 59.6694C34.5067 59.9745 34.0359 59.9565 33.8242 59.6238L31.1262 55.3841C30.739 54.7756 30.0116 54.4754 29.3079 54.6338L22.0493 56.267C21.5297 56.3839 21.1077 55.7483 21.475 55.3006C25.7062 50.1437 28.5932 45.7928 30.4418 41.335C32.2936 36.8696 33.0907 32.3278 33.1853 26.8044C33.1909 26.4791 33.453 26.2243 33.7651 26.2243Z" fill="#D62121" stroke="black" stroke-width="1.14019"/>
<path d="M6.70158 2.26776C12.0931 1.37885 16.5031 1.80999 20.8703 3.51354C25.1992 5.20214 29.516 8.15191 34.7242 12.3822V24.5012C34.4812 24.7038 34.2403 24.9047 34.0014 25.104C24.5883 32.9566 18.2079 38.2793 6.85694 37.6882C3.83376 37.5308 1.10505 35.6016 0.653273 32.7654C0.224714 30.0749 0.795119 27.4045 2.71102 24.2993C3.14496 23.596 3.34642 22.7632 3.25432 21.9304C3.05731 20.1488 3.06625 18.9222 3.25937 17.3429C3.34789 16.619 3.22216 15.8799 2.88211 15.2263C1.44969 12.4733 0.736495 10.4193 1.05989 7.64171C1.38471 4.85187 3.81294 2.74402 6.70158 2.26776Z" fill="#D62121" stroke="black" stroke-width="1.14019"/>
<path d="M2.92375 16.0629C2.98022 15.712 3.33943 15.4964 3.67708 15.6073C8.06003 17.0476 11.0896 17.6395 16.9929 17.7386C17.3466 17.7445 17.6152 18.0618 17.559 18.4111V18.4111C17.5156 18.6807 17.289 18.8835 17.0163 18.8958C11.74 19.1344 8.58393 18.7526 3.28087 16.6876C3.02974 16.5898 2.88092 16.3289 2.92375 16.0629V16.0629Z" fill="black"/>
<path d="M25.1261 19.9575C25.2057 19.6406 25.4926 19.4184 25.8194 19.4189C30.3884 19.4251 30.2182 19.4592 35.2909 16.884C35.6176 16.7181 36.0176 16.8809 36.1326 17.2288V17.2288C36.2154 17.4793 36.1236 17.7555 35.9072 17.9064C31.9252 20.6823 30.8413 20.8348 25.8201 20.8432C25.3562 20.8439 25.0131 20.4074 25.1261 19.9575V19.9575Z" fill="black"/>
<path d="M27.9765 23.3781C28.0561 23.0612 28.3431 22.839 28.6698 22.8394C33.2388 22.8457 33.0686 22.8798 38.1413 20.3046C38.468 20.1387 38.868 20.3015 38.983 20.6494V20.6494C39.0659 20.8999 38.9741 21.1761 38.7576 21.327C34.7757 24.1029 33.6918 24.2554 28.6705 24.2638C28.2066 24.2645 27.8635 23.828 27.9765 23.3781V23.3781Z" fill="black"/>
<path d="M3.03162 22.6217C3.03162 22.151 3.49475 21.8197 3.93967 21.9735C7.76997 23.2975 8.02827 23.5742 13.5405 23.6504C13.9332 23.6558 14.2523 23.9751 14.2523 24.3678V24.3678C14.2523 24.7634 13.9278 25.084 13.5323 25.0855C8.6938 25.1034 8.51062 25.2564 3.46812 23.2619C3.20589 23.1582 3.03162 22.9037 3.03162 22.6217V22.6217Z" fill="black"/>
<path d="M73.231 2.73114C67.8392 1.8422 63.429 2.27332 59.0615 3.97686C54.7325 5.66545 50.4155 8.61524 45.207 12.8456V24.9646C45.45 25.1671 45.6909 25.3681 45.9299 25.5674C55.3434 33.42 61.7241 38.7427 73.0756 38.1516C76.0988 37.9941 78.8275 36.0649 79.2793 33.2288C79.7079 30.5383 79.1375 27.8679 77.2215 24.7627C76.7875 24.0594 76.5861 23.2266 76.6782 22.3937C76.8752 20.6121 76.8662 19.3855 76.6731 17.8063C76.5846 17.0823 76.7103 16.3432 77.0504 15.6896C78.4829 12.9366 79.1961 10.8826 78.8727 8.10503C78.5478 5.31521 76.1196 3.2074 73.231 2.73114Z" fill="#D62121" stroke="black" stroke-width="1.14019"/>
<path d="M77.0087 16.5262C76.9523 16.1753 76.593 15.9597 76.2554 16.0707C71.8723 17.5109 68.8426 18.1029 62.939 18.2019C62.5853 18.2078 62.3167 18.5252 62.3729 18.8745V18.8745C62.4163 19.144 62.6429 19.3468 62.9156 19.3591C68.1921 19.5977 71.3483 19.216 76.6516 17.151C76.9027 17.0532 77.0516 16.7923 77.0087 16.5262V16.5262Z" fill="black"/>
<path d="M54.8055 20.4208C54.726 20.1039 54.439 19.8818 54.1123 19.8822C49.543 19.8884 49.7133 19.9226 44.6403 17.3473C44.3136 17.1814 43.9136 17.3443 43.7986 17.6922V17.6922C43.7158 17.9426 43.8076 18.2189 44.024 18.3697C48.0062 21.1457 49.0901 21.2981 54.1115 21.3065C54.5755 21.3073 54.9185 20.8707 54.8055 20.4208V20.4208Z" fill="black"/>
<path d="M51.955 23.8414C51.8754 23.5245 51.5884 23.3024 51.2617 23.3028C46.6925 23.309 46.8627 23.3432 41.7898 20.7679C41.4631 20.602 41.0631 20.7649 40.948 21.1127V21.1127C40.8652 21.3632 40.957 21.6395 41.1734 21.7903C45.1556 24.5663 46.2395 24.7187 51.2609 24.7271C51.7249 24.7279 52.068 24.2913 51.955 23.8414V23.8414Z" fill="black"/>
<path d="M76.9009 23.085C76.9009 22.6143 76.4377 22.283 75.9928 22.4368C72.1623 23.7609 71.904 24.0375 66.3915 24.1137C65.9988 24.1192 65.6797 24.4385 65.6797 24.8312V24.8312C65.6797 25.2268 66.0042 25.5474 66.3998 25.5488C71.2385 25.5668 71.4216 25.7197 76.4644 23.7253C76.7266 23.6216 76.9009 23.367 76.9009 23.085V23.085Z" fill="black"/>
<path d="M37.5746 0.89899H41.8092C43.0986 0.89899 44.2077 1.8117 44.4558 3.07702L45.1609 6.67299C45.4876 8.33902 44.2121 9.88889 42.5143 9.88889H36.8695C35.1718 9.88889 33.8963 8.33902 34.223 6.67298L34.928 3.07702C35.1761 1.81169 36.2852 0.89899 37.5746 0.89899Z" fill="#CFB529" stroke="black" stroke-width="1.79798"/>
<rect x="31.9252" y="7.41122" width="15.9626" height="22.8037" rx="2.85047" fill="#D62121" stroke="black" stroke-width="1.14019"/>
<path d="M38.0183 8.83689C38.3457 8.83614 38.6138 9.10191 38.6138 9.42938V9.42938C38.6138 9.73845 38.3745 9.99684 38.0657 10.0098C35.1528 10.1323 35.0636 9.34898 35.0608 16.6285C35.0607 17.0221 34.7417 17.3431 34.3481 17.3431V17.3431C33.9546 17.3431 33.6356 17.0223 33.6343 16.6287C33.6088 9.13568 33.2541 8.84794 38.0183 8.83689Z" fill="#010101"/>
</g>
<defs>
<clipPath id="clip0_26_127">
<rect width="80.3832" height="61" fill="white"/>
</clipPath>
</defs>
</svg>
