<svg width="39" height="86" viewBox="0 0 39 86" fill="none" xmlns="http://www.w3.org/2000/svg">
<g clip-path="url(#clip0_28_11)">
<path d="M17.028 1H21.7384C23.1727 1 24.4063 2.01526 24.6823 3.42276L25.4666 7.42276C25.83 9.27599 24.4112 11 22.5227 11H16.2437C14.3551 11 12.9363 9.27599 13.2997 7.42276L14.084 3.42275C14.36 2.01526 15.5937 1 17.028 1Z" fill="#CFB529" stroke="black" stroke-width="2"/>
<path d="M4.31902 13.2449C5.01305 11.4024 6.87976 9.80487 9.6012 8.63383C12.296 7.47427 15.6746 6.80396 19.106 6.71529C22.5384 6.62659 25.9558 7.12158 28.7346 8.23289C31.5189 9.34641 33.5581 11.0318 34.4553 13.2652C36.4483 18.2265 37.7557 28.1924 37.5787 39.32C37.4022 50.4231 35.7502 62.486 31.9595 71.6245C30.0545 76.2171 28.0444 79.5394 26.0074 81.6881C23.9777 83.8292 21.9896 84.74 20.0811 84.7042C18.1562 84.668 16.0761 83.6654 13.8835 81.4761C11.6928 79.2886 9.46861 75.9911 7.2796 71.5644C2.95051 62.8098 1.37 50.424 1.31174 39.0395C1.25342 27.6442 2.71934 17.4917 4.31902 13.2449Z" fill="#24D0F5" stroke="black" stroke-width="2"/>
<circle cx="11.3832" cy="26" r="4" fill="#B1ECF9"/>
<circle cx="26.3832" cy="42" r="3" fill="#B1ECF9"/>
<circle cx="21.3832" cy="15" r="3" fill="#B1ECF9"/>
<circle cx="9.88318" cy="47.5" r="5.5" fill="#B1ECF9"/>
<circle cx="17.3832" cy="69" r="2" fill="#B1ECF9"/>
<circle cx="29.8832" cy="58.5" r="2.5" fill="#B1ECF9"/>
<circle cx="30.8832" cy="29.5" r="1.5" fill="#B1ECF9"/>
</g>
<defs>
<clipPath id="clip0_28_11">
<rect width="38" height="86" fill="white" transform="translate(0.383179)"/>
</clipPath>
</defs>
</svg>
