<svg width="86" height="89" viewBox="0 0 86 89" fill="none" xmlns="http://www.w3.org/2000/svg">
<g clip-path="url(#clip0_26_72)">
<mask id="path-1-inside-1_26_72" fill="white">
<path fill-rule="evenodd" clip-rule="evenodd" d="M44.7901 5.42606C44.1531 4.01551 42.15 4.01551 41.5129 5.42606L29.4461 32.1435C29.2659 32.5424 28.9464 32.8619 28.5475 33.042L1.8301 45.1089C0.41955 45.7459 0.419549 47.749 1.8301 48.3861L28.5475 60.4529C28.9464 60.6331 29.2659 60.9526 29.4461 61.3515L41.5129 88.0689C42.15 89.4794 44.1531 89.4795 44.7901 88.0689L56.857 61.3515C57.0371 60.9526 57.3566 60.6331 57.7555 60.4529L84.4729 48.3861C85.8835 47.749 85.8835 45.7459 84.4729 45.1089L57.7555 33.042C57.3566 32.8619 57.0371 32.5424 56.857 32.1435L44.7901 5.42606ZM43.6103 35.1775C43.4319 34.7826 42.8711 34.7826 42.6927 35.1775L39.314 42.6584C39.2635 42.7701 39.1741 42.8595 39.0624 42.91L31.5815 46.2887C31.1866 46.4671 31.1866 47.0279 31.5815 47.2063L39.0624 50.585C39.1741 50.6355 39.2635 50.7249 39.314 50.8366L42.6927 58.3175C42.8711 58.7125 43.4319 58.7125 43.6103 58.3175L46.989 50.8366C47.0395 50.7249 47.1289 50.6355 47.2406 50.585L54.7215 47.2063C55.1165 47.0279 55.1165 46.4671 54.7215 46.2887L47.2406 42.91C47.1289 42.8595 47.0395 42.7701 46.989 42.6584L43.6103 35.1775Z"/>
</mask>
<path fill-rule="evenodd" clip-rule="evenodd" d="M44.7901 5.42606C44.1531 4.01551 42.15 4.01551 41.5129 5.42606L29.4461 32.1435C29.2659 32.5424 28.9464 32.8619 28.5475 33.042L1.8301 45.1089C0.41955 45.7459 0.419549 47.749 1.8301 48.3861L28.5475 60.4529C28.9464 60.6331 29.2659 60.9526 29.4461 61.3515L41.5129 88.0689C42.15 89.4794 44.1531 89.4795 44.7901 88.0689L56.857 61.3515C57.0371 60.9526 57.3566 60.6331 57.7555 60.4529L84.4729 48.3861C85.8835 47.749 85.8835 45.7459 84.4729 45.1089L57.7555 33.042C57.3566 32.8619 57.0371 32.5424 56.857 32.1435L44.7901 5.42606ZM43.6103 35.1775C43.4319 34.7826 42.8711 34.7826 42.6927 35.1775L39.314 42.6584C39.2635 42.7701 39.1741 42.8595 39.0624 42.91L31.5815 46.2887C31.1866 46.4671 31.1866 47.0279 31.5815 47.2063L39.0624 50.585C39.1741 50.6355 39.2635 50.7249 39.314 50.8366L42.6927 58.3175C42.8711 58.7125 43.4319 58.7125 43.6103 58.3175L46.989 50.8366C47.0395 50.7249 47.1289 50.6355 47.2406 50.585L54.7215 47.2063C55.1165 47.0279 55.1165 46.4671 54.7215 46.2887L47.2406 42.91C47.1289 42.8595 47.0395 42.7701 46.989 42.6584L43.6103 35.1775Z" fill="#F4BC2A"/>
<path d="M41.5129 5.42606L43.1515 6.16613V6.16613L41.5129 5.42606ZM44.7901 5.42606L46.4287 4.68599V4.68599L44.7901 5.42606ZM29.4461 32.1435L31.0847 32.8836L31.0847 32.8836L29.4461 32.1435ZM28.5475 33.042L29.2876 34.6806H29.2876L28.5475 33.042ZM1.8301 45.1089L1.09003 43.4703H1.09002L1.8301 45.1089ZM1.8301 48.3861L1.09002 50.0247L1.09003 50.0247L1.8301 48.3861ZM28.5475 60.4529L29.2876 58.8143H29.2876L28.5475 60.4529ZM29.4461 61.3515L31.0847 60.6114L31.0847 60.6114L29.4461 61.3515ZM41.5129 88.0689L43.1515 87.3288L41.5129 88.0689ZM44.7901 88.0689L43.1515 87.3288L44.7901 88.0689ZM56.857 61.3515L55.2184 60.6114V60.6114L56.857 61.3515ZM57.7555 60.4529L58.4956 62.0915L57.7555 60.4529ZM84.4729 48.3861L83.7329 46.7475V46.7475L84.4729 48.3861ZM84.4729 45.1089L85.213 43.4703L84.4729 45.1089ZM57.7555 33.042L58.4956 31.4034L58.4956 31.4034L57.7555 33.042ZM56.857 32.1435L58.4956 31.4034L58.4956 31.4034L56.857 32.1435ZM42.6927 35.1775L41.0541 34.4374L42.6927 35.1775ZM43.6103 35.1775L45.2489 34.4374L43.6103 35.1775ZM39.314 42.6584L40.9526 43.3985L40.9526 43.3985L39.314 42.6584ZM39.0624 42.91L38.3224 41.2714L38.3223 41.2714L39.0624 42.91ZM31.5815 46.2887L30.8415 44.6501L31.5815 46.2887ZM31.5815 47.2063L30.8415 48.8449L31.5815 47.2063ZM39.0624 50.585L39.8025 48.9464L39.8025 48.9464L39.0624 50.585ZM39.314 50.8366L40.9526 50.0965L40.9526 50.0965L39.314 50.8366ZM42.6927 58.3175L41.0541 59.0576V59.0576L42.6927 58.3175ZM43.6103 58.3175L41.9717 57.5774V57.5774L43.6103 58.3175ZM46.989 50.8366L45.3504 50.0965L45.3504 50.0965L46.989 50.8366ZM47.2406 50.585L46.5006 48.9464L46.5005 48.9464L47.2406 50.585ZM54.7215 47.2063L53.9814 45.5677L53.9814 45.5677L54.7215 47.2063ZM54.7215 46.2887L55.4616 44.6501H55.4616L54.7215 46.2887ZM47.2406 42.91L47.9807 41.2714L47.9807 41.2714L47.2406 42.91ZM46.989 42.6584L45.3504 43.3985L45.3504 43.3985L46.989 42.6584ZM43.1515 6.16613V6.16613L46.4287 4.68599C45.1546 1.8649 41.1484 1.86489 39.8743 4.68599L43.1515 6.16613ZM31.0847 32.8836L43.1515 6.16613L39.8743 4.68599L27.8075 31.4034L31.0847 32.8836ZM29.2876 34.6806C30.0854 34.3203 30.7244 33.6814 31.0847 32.8836L27.8075 31.4034L27.8075 31.4034L29.2876 34.6806ZM2.57017 46.7475L29.2876 34.6806L27.8075 31.4034L1.09003 43.4703L2.57017 46.7475ZM2.57017 46.7475L2.57017 46.7475L1.09002 43.4703C-1.73106 44.7444 -1.73107 48.7506 1.09002 50.0247L2.57017 46.7475ZM29.2876 58.8143L2.57017 46.7475L1.09003 50.0247L27.8075 62.0915L29.2876 58.8143ZM31.0847 60.6114C30.7244 59.8136 30.0854 59.1746 29.2876 58.8143L27.8075 62.0915L27.8075 62.0915L31.0847 60.6114ZM43.1515 87.3288L31.0847 60.6114L27.8075 62.0915L39.8743 88.809L43.1515 87.3288ZM43.1515 87.3288L39.8743 88.809C41.1484 91.6301 45.1546 91.6301 46.4287 88.809L43.1515 87.3288ZM55.2184 60.6114L43.1515 87.3288L46.4287 88.809L58.4956 62.0915L55.2184 60.6114ZM57.0154 58.8143C56.2176 59.1746 55.5787 59.8136 55.2184 60.6114L58.4956 62.0915V62.0915L57.0154 58.8143ZM83.7329 46.7475L57.0154 58.8143L58.4956 62.0915L85.213 50.0247L83.7329 46.7475ZM83.7329 46.7475L85.213 50.0247C88.0341 48.7506 88.0341 44.7444 85.213 43.4703L83.7329 46.7475ZM57.0154 34.6806L83.7329 46.7475L85.213 43.4703L58.4956 31.4034L57.0154 34.6806ZM55.2184 32.8836C55.5787 33.6814 56.2176 34.3203 57.0154 34.6806L58.4956 31.4034L58.4956 31.4034L55.2184 32.8836ZM43.1515 6.16613L55.2184 32.8836L58.4956 31.4034L46.4287 4.68599L43.1515 6.16613ZM44.3313 35.9176C43.8726 36.9332 42.4304 36.9332 41.9717 35.9176L45.2489 34.4374C44.4335 32.6319 41.8696 32.6319 41.0541 34.4374L44.3313 35.9176ZM40.9526 43.3985L44.3313 35.9176L41.0541 34.4374L37.6754 41.9183L40.9526 43.3985ZM39.8024 44.5486C40.3131 44.318 40.722 43.909 40.9526 43.3985L37.6754 41.9183C37.8051 41.6311 38.0351 41.4011 38.3224 41.2714L39.8024 44.5486ZM32.3216 47.9273L39.8025 44.5486L38.3223 41.2714L30.8415 44.6501L32.3216 47.9273ZM32.3216 45.5677C33.3372 46.0264 33.3372 47.4686 32.3216 47.9273L30.8415 44.6501C29.036 45.4655 29.036 48.0295 30.8415 48.8449L32.3216 45.5677ZM39.8025 48.9464L32.3216 45.5677L30.8415 48.8449L38.3223 52.2236L39.8025 48.9464ZM40.9526 50.0965C40.722 49.586 40.3131 49.177 39.8025 48.9464L38.3223 52.2236C38.0351 52.0939 37.8051 51.8639 37.6754 51.5767L40.9526 50.0965ZM44.3313 57.5774L40.9526 50.0965L37.6754 51.5767L41.0541 59.0576L44.3313 57.5774ZM41.9717 57.5774C42.4304 56.5618 43.8726 56.5619 44.3313 57.5774L41.0541 59.0576C41.8695 60.863 44.4335 60.8631 45.2489 59.0576L41.9717 57.5774ZM45.3504 50.0965L41.9717 57.5774L45.2489 59.0576L48.6277 51.5767L45.3504 50.0965ZM46.5005 48.9464C45.9899 49.177 45.581 49.586 45.3504 50.0965L48.6276 51.5767C48.4979 51.8639 48.2679 52.0939 47.9807 52.2236L46.5005 48.9464ZM53.9814 45.5677L46.5006 48.9464L47.9807 52.2236L55.4616 48.8449L53.9814 45.5677ZM53.9814 47.9273C52.9659 47.4686 52.9659 46.0264 53.9814 45.5677L55.4616 48.8449C57.2671 48.0295 57.2671 45.4655 55.4616 44.6501L53.9814 47.9273ZM46.5006 44.5486L53.9814 47.9273L55.4616 44.6501L47.9807 41.2714L46.5006 44.5486ZM45.3504 43.3985C45.581 43.909 45.99 44.318 46.5006 44.5486L47.9807 41.2714C48.2679 41.4011 48.4979 41.6311 48.6276 41.9183L45.3504 43.3985ZM41.9717 35.9176L45.3504 43.3985L48.6277 41.9183L45.2489 34.4374L41.9717 35.9176Z" fill="black" mask="url(#path-1-inside-1_26_72)"/>
<path d="M42.2666 5.39384C42.2589 4.89969 42.6573 4.49496 43.1515 4.49496C43.6457 4.49496 44.0442 4.89969 44.0365 5.39384L43.608 32.8132C43.6041 33.0625 43.4009 33.2626 43.1515 33.2626C42.9021 33.2626 42.6989 33.0625 42.695 32.8132L42.2666 5.39384Z" fill="black"/>
<path d="M1.79787 47.6324C1.30372 47.6401 0.898987 47.2417 0.898987 46.7475C0.898987 46.2532 1.30372 45.8548 1.79787 45.8625L29.2172 46.2909C29.4666 46.2948 29.6667 46.4981 29.6667 46.7475C29.6667 46.9968 29.4666 47.2001 29.2172 47.204L1.79787 47.6324Z" fill="black"/>
<path d="M84.5052 45.8625C84.9993 45.8548 85.404 46.2533 85.404 46.7475C85.404 47.2417 84.9993 47.6401 84.5052 47.6324L57.0858 47.204C56.8365 47.2001 56.6364 46.9968 56.6364 46.7475C56.6364 46.4981 56.8365 46.2948 57.0858 46.291L84.5052 45.8625Z" fill="black"/>
<path d="M44.0365 87.2021C44.0442 87.6963 43.6457 88.101 43.1515 88.101C42.6573 88.101 42.2589 87.6963 42.2666 87.2021L42.695 59.7828C42.6989 59.5334 42.9021 59.3333 43.1515 59.3333C43.4009 59.3333 43.6041 59.5334 43.608 59.7828L44.0365 87.2021Z" fill="black"/>
<path d="M38.3876 3.07702C38.6357 1.81169 39.7448 0.89899 41.0342 0.89899H45.2688C46.5582 0.89899 47.6673 1.8117 47.9154 3.07702L48.6205 6.67299C48.9472 8.33902 47.6717 9.88889 45.9739 9.88889H40.3291C38.6314 9.88889 37.3559 8.33902 37.6825 6.67298L38.3876 3.07702Z" fill="#CFB529" stroke="black" stroke-width="1.79798"/>
</g>
<defs>
<clipPath id="clip0_26_72">
<rect width="85.404" height="89" fill="white"/>
</clipPath>
</defs>
</svg>
