<svg width="60" height="66" viewBox="0 0 60 66" fill="none" xmlns="http://www.w3.org/2000/svg">
<g clip-path="url(#clip0_28_107)">
<path d="M24.5543 3.6279C24.742 2.12661 26.0182 1 27.5311 1H32.4689C33.9818 1 35.258 2.12661 35.4457 3.6279L36.9457 15.6279C37.1695 17.4185 35.7734 19 33.9689 19H26.0311C24.2266 19 22.8305 17.4185 23.0543 15.6279L24.5543 3.6279Z" fill="#CFB529" stroke="black" stroke-width="2"/>
<g clip-path="url(#clip1_28_107)">
<circle cx="30" cy="36" r="29" fill="#2A2A2A" stroke="black" stroke-width="2"/>
<path d="M7.8043 41.6809C8.11988 41.1565 8.88012 41.1565 9.1957 41.6809L11.1586 44.9426C11.3476 45.2566 11.6558 45.4805 12.0128 45.5632L15.7214 46.4221C16.3177 46.5602 16.5526 47.2832 16.1514 47.7454L13.6559 50.6202C13.4157 50.8969 13.298 51.2592 13.3296 51.6243L13.6588 55.4169C13.7117 56.0266 13.0966 56.4734 12.5331 56.2347L9.0279 54.7497C8.69048 54.6068 8.30952 54.6068 7.9721 54.7497L4.46689 56.2347C3.90335 56.4734 3.28831 56.0266 3.34122 55.4169L3.67036 51.6243C3.70205 51.2592 3.58432 50.8969 3.3441 50.6202L0.848619 47.7454C0.44742 47.2832 0.682348 46.5602 1.27859 46.4221L4.98722 45.5632C5.34422 45.4805 5.65243 45.2566 5.84138 44.9426L7.8043 41.6809Z" fill="#E4D657" stroke="black" stroke-width="0.54131"/>
<path d="M33.8043 49.6809C34.1199 49.1565 34.8801 49.1565 35.1957 49.6809L37.1586 52.9426C37.3476 53.2566 37.6558 53.4805 38.0128 53.5632L41.7214 54.4221C42.3177 54.5602 42.5526 55.2832 42.1514 55.7454L39.6559 58.6202C39.4157 58.8969 39.298 59.2592 39.3296 59.6243L39.6588 63.4169C39.7117 64.0266 39.0966 64.4734 38.5331 64.2347L35.0279 62.7497C34.6905 62.6068 34.3095 62.6068 33.9721 62.7497L30.4669 64.2347C29.9034 64.4734 29.2883 64.0266 29.3412 63.4169L29.6704 59.6243C29.702 59.2592 29.5843 58.8969 29.3441 58.6202L26.8486 55.7454C26.4474 55.2832 26.6823 54.5602 27.2786 54.4221L30.9872 53.5632C31.3442 53.4805 31.6524 53.2566 31.8414 52.9426L33.8043 49.6809Z" fill="#E4D657" stroke="black" stroke-width="0.54131"/>
<path d="M23.6578 23.0348C24.0399 22.4 24.9601 22.4 25.3422 23.0348L27.7183 26.9832C27.9471 27.3632 28.3202 27.6343 28.7523 27.7344L33.2417 28.7741C33.9635 28.9413 34.2479 29.8166 33.7622 30.376L30.7413 33.856C30.4506 34.191 30.308 34.6296 30.3464 35.0715L30.7448 39.6625C30.8089 40.4006 30.0644 40.9415 29.3822 40.6525L25.139 38.8549C24.7306 38.6819 24.2694 38.6819 23.861 38.8549L19.6178 40.6525C18.9356 40.9415 18.1911 40.4006 18.2552 39.6625L18.6536 35.0715C18.692 34.6296 18.5494 34.191 18.2587 33.856L15.2378 30.376C14.7521 29.8166 15.0365 28.9413 15.7583 28.7741L20.2477 27.7344C20.6798 27.6343 21.0529 27.3632 21.2817 26.9832L23.6578 23.0348Z" fill="#E4D657" stroke="black" stroke-width="0.655271"/>
<path d="M55.5114 30.3887C55.9598 29.6435 57.0402 29.6435 57.4886 30.3887L60.278 35.0237C60.5466 35.4699 60.9845 35.7881 61.4918 35.9056L66.762 37.1262C67.6093 37.3224 67.9431 38.3499 67.373 39.0066L63.8268 43.0918C63.4854 43.4851 63.3181 44 63.3632 44.5188L63.8309 49.9082C63.9061 50.7746 63.0321 51.4096 62.2313 51.0704L57.2502 48.9601C56.7707 48.757 56.2293 48.757 55.7498 48.9601L50.7687 51.0704C49.9679 51.4096 49.0939 50.7746 49.1691 49.9082L49.6368 44.5188C49.6819 44 49.5146 43.4851 49.1732 43.0918L45.627 39.0066C45.0569 38.3499 45.3907 37.3224 46.238 37.1262L51.5082 35.9056C52.0155 35.7881 52.4534 35.4699 52.722 35.0237L55.5114 30.3887Z" fill="#E4D657" stroke="black" stroke-width="0.769231"/>
<path d="M47.8043 6.68091C48.1199 6.15653 48.8801 6.15653 49.1957 6.68091L51.1586 9.94261C51.3476 10.2566 51.6558 10.4805 52.0128 10.5632L55.7214 11.4221C56.3177 11.5602 56.5526 12.2832 56.1514 12.7454L53.6559 15.6202C53.4157 15.8969 53.298 16.2592 53.3296 16.6243L53.6588 20.4169C53.7117 21.0266 53.0966 21.4734 52.5331 21.2347L49.0279 19.7497C48.6905 19.6068 48.3095 19.6068 47.9721 19.7497L44.4669 21.2347C43.9034 21.4734 43.2883 21.0266 43.3412 20.4169L43.6704 16.6243C43.702 16.2592 43.5843 15.8969 43.3441 15.6202L40.8486 12.7454C40.4474 12.2832 40.6823 11.5602 41.2786 11.4221L44.9872 10.5632C45.3442 10.4805 45.6524 10.2566 45.8414 9.94261L47.8043 6.68091Z" fill="#E4D657" stroke="black" stroke-width="0.541311"/>
<path d="M12.4141 9.4155C12.6799 8.97392 13.3201 8.97392 13.5859 9.4155L15.2388 12.1622C15.398 12.4266 15.6575 12.6152 15.9581 12.6848L19.0812 13.4081C19.5833 13.5244 19.7811 14.1333 19.4433 14.5225L17.3418 16.9433C17.1395 17.1763 17.0404 17.4815 17.0671 17.7889L17.3442 20.9826C17.3888 21.4961 16.8709 21.8724 16.3963 21.6713L13.4445 20.4208C13.1604 20.3004 12.8396 20.3004 12.5555 20.4208L9.6037 21.6713C9.12914 21.8724 8.6112 21.4961 8.65577 20.9826L8.93294 17.7889C8.95962 17.4815 8.86048 17.1763 8.65819 16.9433L6.55673 14.5225C6.21888 14.1333 6.41672 13.5244 6.91881 13.4081L10.0419 12.6848C10.3425 12.6152 10.602 12.4266 10.7612 12.1622L12.4141 9.4155Z" fill="#E4D657" stroke="black" stroke-width="0.45584"/>
</g>
<rect x="1" y="7" width="58" height="58" rx="29" stroke="black" stroke-width="2"/>
</g>
<defs>
<clipPath id="clip0_28_107">
<rect width="60" height="66" fill="white"/>
</clipPath>
<clipPath id="clip1_28_107">
<rect y="6" width="60" height="60" rx="30" fill="white"/>
</clipPath>
</defs>
</svg>
