<svg width="113" height="98" viewBox="0 0 113 98" fill="none" xmlns="http://www.w3.org/2000/svg">
<mask id="path-1-inside-1_54_719" fill="white">
<path fill-rule="evenodd" clip-rule="evenodd" d="M33.1962 1C30.3264 -0.656854 26.6569 0.326398 25 3.19615L1 44.7654C-0.656855 47.6351 0.326397 51.3047 3.19615 52.9615L79.4064 96.9615C82.2761 98.6184 85.9457 97.6351 87.6025 94.7654L111.603 53.1962C113.259 50.3264 112.276 46.6569 109.406 45L33.1962 1ZM30.1244 22.3205C32.9941 23.9774 36.6637 22.9941 38.3205 20.1244C39.9774 17.2546 38.9941 13.5851 36.1244 11.9282C33.2546 10.2713 29.5851 11.2546 27.9282 14.1244C26.2713 16.9941 27.2546 20.6637 30.1244 22.3205Z"/>
</mask>
<path fill-rule="evenodd" clip-rule="evenodd" d="M33.1962 1C30.3264 -0.656854 26.6569 0.326398 25 3.19615L1 44.7654C-0.656855 47.6351 0.326397 51.3047 3.19615 52.9615L79.4064 96.9615C82.2761 98.6184 85.9457 97.6351 87.6025 94.7654L111.603 53.1962C113.259 50.3264 112.276 46.6569 109.406 45L33.1962 1ZM30.1244 22.3205C32.9941 23.9774 36.6637 22.9941 38.3205 20.1244C39.9774 17.2546 38.9941 13.5851 36.1244 11.9282C33.2546 10.2713 29.5851 11.2546 27.9282 14.1244C26.2713 16.9941 27.2546 20.6637 30.1244 22.3205Z" fill="#8D0E0E"/>
<path d="M26.7321 4.19615C27.8366 2.28298 30.283 1.62748 32.1962 2.73205L34.1962 -0.732051C30.3698 -2.94119 25.4771 -1.63019 23.2679 2.19615L26.7321 4.19615ZM2.73205 45.7654L26.7321 4.19615L23.2679 2.19615L-0.732051 43.7654L2.73205 45.7654ZM4.19615 51.2295C2.28298 50.1249 1.62748 47.6785 2.73205 45.7654L-0.732051 43.7654C-2.94119 47.5917 -1.63019 52.4844 2.19615 54.6936L4.19615 51.2295ZM80.4064 95.2295L4.19615 51.2295L2.19615 54.6936L78.4064 98.6936L80.4064 95.2295ZM85.8705 93.7654C84.7659 95.6785 82.3196 96.334 80.4064 95.2295L78.4064 98.6936C82.2327 100.903 87.1255 99.5917 89.3346 95.7654L85.8705 93.7654ZM109.87 52.1962L85.8705 93.7654L89.3346 95.7654L113.335 54.1962L109.87 52.1962ZM108.406 46.7321C110.32 47.8366 110.975 50.283 109.87 52.1962L113.335 54.1962C115.544 50.3698 114.233 45.4771 110.406 43.2679L108.406 46.7321ZM32.1962 2.73205L108.406 46.7321L110.406 43.2679L34.1962 -0.732051L32.1962 2.73205ZM36.5885 19.1244C35.4839 21.0375 33.0375 21.693 31.1244 20.5885L29.1244 24.0526C32.9507 26.2617 37.8434 24.9507 40.0526 21.1244L36.5885 19.1244ZM35.1244 13.6603C37.0375 14.7648 37.693 17.2112 36.5885 19.1244L40.0526 21.1244C42.2617 17.298 40.9507 12.4053 37.1244 10.1962L35.1244 13.6603ZM29.6603 15.1244C30.7648 13.2112 33.2112 12.5557 35.1244 13.6603L37.1244 10.1962C33.298 7.98701 28.4053 9.29801 26.1962 13.1244L29.6603 15.1244ZM31.1244 20.5885C29.2112 19.4839 28.5557 17.0375 29.6603 15.1244L26.1962 13.1244C23.987 16.9507 25.298 21.8434 29.1244 24.0526L31.1244 20.5885Z" fill="#E4D657" mask="url(#path-1-inside-1_54_719)"/>
</svg>
