<svg width="154" height="179" viewBox="0 0 154 179" fill="none" xmlns="http://www.w3.org/2000/svg">
<g clip-path="url(#clip0_173_141)">
<path d="M61.8743 12.2811L116.039 31.2532C120.526 32.8249 122.89 37.7366 121.318 42.2237L103.436 93.2747C100.912 100.481 100.66 108.289 102.715 115.644L110.373 143.056C112.715 151.44 108.431 160.253 100.39 163.59L95.1897 165.749C83.536 170.586 70.1361 168.246 60.8118 159.745L30.8614 132.439C25.5402 127.588 22.0527 121.052 20.9858 113.931C20.2308 108.891 20.7167 103.743 22.4013 98.9335L50.9038 17.56C52.4755 13.0728 57.3871 10.7094 61.8743 12.2811Z" fill="#DB1616" stroke="black" stroke-width="1.91304"/>
<rect x="51.4493" y="1.53511" width="84.1739" height="36.3478" rx="6.69565" transform="rotate(19.3037 51.4493 1.53511)" fill="white" stroke="black" stroke-width="1.91304"/>
<g clip-path="url(#clip1_173_141)">
<line x1="64.3128" y1="77.5996" x2="58.9523" y2="92.9037" stroke="white" stroke-width="1.15827" stroke-linecap="round"/>
<line x1="63.228" y1="82.0232" x2="68.4466" y2="79.512" stroke="white" stroke-width="1.15827" stroke-linecap="round"/>
<line x1="59.8889" y1="76.5149" x2="62.4" y2="81.7335" stroke="white" stroke-width="1.15827" stroke-linecap="round"/>
<line x1="51.2943" y1="114.767" x2="56.6549" y2="99.4625" stroke="white" stroke-width="1.15827" stroke-linecap="round"/>
<line x1="52.3792" y1="110.343" x2="47.1606" y2="112.854" stroke="white" stroke-width="1.15827" stroke-linecap="round"/>
<line x1="55.7182" y1="115.851" x2="53.2071" y2="110.633" stroke="white" stroke-width="1.15827" stroke-linecap="round"/>
<line x1="77.1458" y1="92.4957" x2="61.2169" y2="95.5321" stroke="white" stroke-width="1.15827" stroke-linecap="round"/>
<line x1="72.7744" y1="93.7753" x2="77.5639" y2="97.0312" stroke="white" stroke-width="1.15827" stroke-linecap="round"/>
<line x1="75.8661" y1="88.1244" x2="72.6102" y2="92.9138" stroke="white" stroke-width="1.15827" stroke-linecap="round"/>
<line x1="38.4612" y1="99.87" x2="54.3901" y2="96.8336" stroke="white" stroke-width="1.15827" stroke-linecap="round"/>
<line x1="42.8326" y1="98.5904" x2="38.0431" y2="95.3345" stroke="white" stroke-width="1.15827" stroke-linecap="round"/>
<line x1="39.741" y1="104.241" x2="42.9968" y2="99.4519" stroke="white" stroke-width="1.15827" stroke-linecap="round"/>
<line x1="70.6681" y1="111.09" x2="60.074" y2="98.8132" stroke="white" stroke-width="1.15827" stroke-linecap="round"/>
<line x1="67.3739" y1="107.944" x2="66.9491" y2="113.72" stroke="white" stroke-width="1.15827" stroke-linecap="round"/>
<line x1="73.8137" y1="107.796" x2="68.038" y2="107.371" stroke="white" stroke-width="1.15827" stroke-linecap="round"/>
<line x1="44.9394" y1="81.2757" x2="55.5335" y2="93.5523" stroke="white" stroke-width="1.15827" stroke-linecap="round"/>
<line x1="48.2334" y1="84.4214" x2="48.6583" y2="78.6457" stroke="white" stroke-width="1.15827" stroke-linecap="round"/>
<line x1="41.7936" y1="84.5697" x2="47.5694" y2="84.9946" stroke="white" stroke-width="1.15827" stroke-linecap="round"/>
<path fill-rule="evenodd" clip-rule="evenodd" d="M56.4634 100.009C58.5764 100.749 60.8894 99.6364 61.6295 97.5234C62.3697 95.4103 61.2567 93.0974 59.1436 92.3572C57.0306 91.6171 54.7176 92.7301 53.9775 94.8431C53.2374 96.9562 54.3503 99.2691 56.4634 100.009ZM56.8464 98.9159C58.3557 99.4445 60.0078 98.6496 60.5365 97.1402C61.0651 95.6309 60.2702 93.9788 58.7608 93.4501C57.2515 92.9215 55.5994 93.7164 55.0707 95.2258C54.5421 96.7351 55.337 98.3872 56.8464 98.9159Z" fill="white"/>
<circle cx="43.2379" cy="108.232" r="1.40217" transform="rotate(19.3037 43.2379 108.232)" fill="white"/>
<circle cx="61.7648" cy="114.722" r="1.40217" transform="rotate(19.3037 61.7648 114.722)" fill="white"/>
<circle cx="74.958" cy="102.505" r="1.40217" transform="rotate(19.3037 74.958 102.505)" fill="white"/>
<circle cx="71.3891" cy="84.4167" r="1.40217" transform="rotate(19.3037 71.3891 84.4167)" fill="white"/>
<circle cx="54.6267" cy="78.5454" r="1.40217" transform="rotate(19.3037 54.6267 78.5454)" fill="white"/>
<circle cx="41.4333" cy="90.7625" r="1.40217" transform="rotate(19.3037 41.4333 90.7625)" fill="white"/>
</g>
<g clip-path="url(#clip2_173_141)">
<line x1="98.3262" y1="69.8539" x2="96.4848" y2="75.1112" stroke="white" stroke-width="0.397889" stroke-linecap="round"/>
<line x1="97.9537" y1="71.3736" x2="99.7464" y2="70.511" stroke="white" stroke-width="0.397889" stroke-linecap="round"/>
<line x1="96.8065" y1="69.4814" x2="97.6692" y2="71.2741" stroke="white" stroke-width="0.397889" stroke-linecap="round"/>
<line x1="93.8541" y1="82.6217" x2="95.6955" y2="77.3644" stroke="white" stroke-width="0.397889" stroke-linecap="round"/>
<line x1="94.2268" y1="81.102" x2="92.4341" y2="81.9646" stroke="white" stroke-width="0.397889" stroke-linecap="round"/>
<line x1="95.3737" y1="82.9942" x2="94.5111" y2="81.2014" stroke="white" stroke-width="0.397889" stroke-linecap="round"/>
<line x1="102.735" y1="74.9712" x2="97.2627" y2="76.0143" stroke="white" stroke-width="0.397889" stroke-linecap="round"/>
<line x1="101.233" y1="75.4109" x2="102.878" y2="76.5294" stroke="white" stroke-width="0.39789" stroke-linecap="round"/>
<line x1="102.295" y1="73.4695" x2="101.177" y2="75.1148" stroke="white" stroke-width="0.39789" stroke-linecap="round"/>
<line x1="89.4456" y1="77.5044" x2="94.9176" y2="76.4613" stroke="white" stroke-width="0.397889" stroke-linecap="round"/>
<line x1="90.9473" y1="77.0649" x2="89.302" y2="75.9464" stroke="white" stroke-width="0.39789" stroke-linecap="round"/>
<line x1="89.8853" y1="79.0061" x2="91.0038" y2="77.3608" stroke="white" stroke-width="0.39789" stroke-linecap="round"/>
<line x1="100.509" y1="81.3588" x2="96.8701" y2="77.1415" stroke="white" stroke-width="0.397889" stroke-linecap="round"/>
<line x1="99.3778" y1="80.2779" x2="99.2319" y2="82.262" stroke="white" stroke-width="0.397889" stroke-linecap="round"/>
<line x1="101.59" y1="80.2273" x2="99.6059" y2="80.0813" stroke="white" stroke-width="0.397889" stroke-linecap="round"/>
<line x1="91.6712" y1="71.1166" x2="95.3105" y2="75.3339" stroke="white" stroke-width="0.397889" stroke-linecap="round"/>
<line x1="92.8028" y1="72.1972" x2="92.9487" y2="70.2131" stroke="white" stroke-width="0.397889" stroke-linecap="round"/>
<line x1="90.5905" y1="72.2483" x2="92.5746" y2="72.3943" stroke="white" stroke-width="0.397889" stroke-linecap="round"/>
<path fill-rule="evenodd" clip-rule="evenodd" d="M95.6298 77.5521C96.3557 77.8064 97.1502 77.4241 97.4045 76.6982C97.6587 75.9723 97.2764 75.1777 96.5505 74.9235C95.8246 74.6692 95.0301 75.0516 94.7758 75.7775C94.5216 76.5033 94.9039 77.2979 95.6298 77.5521ZM95.7614 77.1765C96.2799 77.3581 96.8474 77.085 97.0291 76.5665C97.2107 76.048 96.9376 75.4805 96.4191 75.2989C95.9006 75.1173 95.3331 75.3904 95.1515 75.9089C94.9698 76.4273 95.2429 76.9949 95.7614 77.1765Z" fill="white"/>
<circle cx="91.0866" cy="80.3768" r="0.481677" transform="rotate(19.3037 91.0866 80.3768)" fill="white"/>
<circle cx="97.451" cy="82.606" r="0.481677" transform="rotate(19.3037 97.451 82.606)" fill="white"/>
<circle cx="101.983" cy="78.4095" r="0.481677" transform="rotate(19.3037 101.983 78.4095)" fill="white"/>
<circle cx="100.757" cy="72.1959" r="0.481677" transform="rotate(19.3037 100.757 72.1959)" fill="white"/>
<circle cx="94.9989" cy="70.1788" r="0.481677" transform="rotate(19.3037 94.9989 70.1788)" fill="white"/>
<circle cx="90.4667" cy="74.3755" r="0.481677" transform="rotate(19.3037 90.4667 74.3755)" fill="white"/>
</g>
<g clip-path="url(#clip3_173_141)">
<line x1="95.6802" y1="136.88" x2="93.4221" y2="143.327" stroke="white" stroke-width="0.487934" stroke-linecap="round"/>
<line x1="95.2234" y1="138.743" x2="97.4218" y2="137.685" stroke="white" stroke-width="0.487934" stroke-linecap="round"/>
<line x1="93.8166" y1="136.423" x2="94.8744" y2="138.621" stroke="white" stroke-width="0.487934" stroke-linecap="round"/>
<line x1="90.1962" y1="152.536" x2="92.4543" y2="146.089" stroke="white" stroke-width="0.487934" stroke-linecap="round"/>
<line x1="90.653" y1="150.673" x2="88.4546" y2="151.731" stroke="white" stroke-width="0.487934" stroke-linecap="round"/>
<line x1="92.0598" y1="152.993" x2="91.0019" y2="150.795" stroke="white" stroke-width="0.487934" stroke-linecap="round"/>
<line x1="101.086" y1="143.155" x2="94.3761" y2="144.434" stroke="white" stroke-width="0.487934" stroke-linecap="round"/>
<line x1="99.2448" y1="143.694" x2="101.262" y2="145.066" stroke="white" stroke-width="0.487934" stroke-linecap="round"/>
<line x1="100.547" y1="141.313" x2="99.1757" y2="143.331" stroke="white" stroke-width="0.487934" stroke-linecap="round"/>
<line x1="84.79" y1="146.261" x2="91.5003" y2="144.982" stroke="white" stroke-width="0.487934" stroke-linecap="round"/>
<line x1="86.6315" y1="145.722" x2="84.6139" y2="144.35" stroke="white" stroke-width="0.487934" stroke-linecap="round"/>
<line x1="85.3293" y1="148.102" x2="86.7009" y2="146.085" stroke="white" stroke-width="0.487934" stroke-linecap="round"/>
<line x1="98.3574" y1="150.988" x2="93.8946" y2="145.816" stroke="white" stroke-width="0.487934" stroke-linecap="round"/>
<line x1="96.9699" y1="149.662" x2="96.7909" y2="152.095" stroke="white" stroke-width="0.487934" stroke-linecap="round"/>
<line x1="99.6825" y1="149.6" x2="97.2494" y2="149.421" stroke="white" stroke-width="0.487934" stroke-linecap="round"/>
<line x1="87.519" y1="138.428" x2="91.9818" y2="143.6" stroke="white" stroke-width="0.487934" stroke-linecap="round"/>
<line x1="88.9067" y1="139.753" x2="89.0857" y2="137.32" stroke="white" stroke-width="0.487934" stroke-linecap="round"/>
<line x1="86.1938" y1="139.816" x2="88.6269" y2="139.995" stroke="white" stroke-width="0.487934" stroke-linecap="round"/>
<path fill-rule="evenodd" clip-rule="evenodd" d="M92.3736 146.32C93.2637 146.632 94.2381 146.163 94.5499 145.273C94.8617 144.382 94.3928 143.408 93.5027 143.096C92.6125 142.784 91.6382 143.253 91.3264 144.143C91.0146 145.034 91.4834 146.008 92.3736 146.32ZM92.535 145.859C93.1708 146.082 93.8668 145.747 94.0895 145.111C94.3122 144.475 93.9773 143.78 93.3415 143.557C92.7057 143.334 92.0097 143.669 91.787 144.305C91.5643 144.941 91.8992 145.637 92.535 145.859Z" fill="white"/>
<circle cx="86.8023" cy="149.784" r="0.590683" transform="rotate(19.3037 86.8023 149.784)" fill="white"/>
<circle cx="94.607" cy="152.517" r="0.590683" transform="rotate(19.3037 94.607 152.517)" fill="white"/>
<circle cx="100.165" cy="147.371" r="0.590683" transform="rotate(19.3037 100.165 147.371)" fill="white"/>
<circle cx="98.6613" cy="139.751" r="0.590683" transform="rotate(19.3037 98.6613 139.751)" fill="white"/>
<circle cx="91.5999" cy="137.278" r="0.590683" transform="rotate(19.3037 91.5999 137.278)" fill="white"/>
<circle cx="86.0421" cy="142.424" r="0.590683" transform="rotate(19.3037 86.0421 142.424)" fill="white"/>
</g>
<path d="M44.6677 61.6568C44.9363 61.4406 45.3386 61.5815 45.4136 61.9181L45.8039 63.6686C45.8303 63.7871 45.9019 63.8905 46.0034 63.9569L47.5047 64.9383C47.7933 65.127 47.7836 65.5531 47.4867 65.7285L45.9424 66.6406C45.8379 66.7023 45.7617 66.8023 45.7299 66.9194L45.2604 68.6505C45.1701 68.9833 44.7619 69.1057 44.5034 68.8775L43.1587 67.6907C43.0677 67.6104 42.949 67.5688 42.8278 67.5748L41.0364 67.6632C40.692 67.6802 40.4494 67.3298 40.5865 67.0134L41.2998 65.3677C41.348 65.2564 41.3509 65.1306 41.3077 65.0172L40.6701 63.3408C40.5475 63.0185 40.8058 62.6795 41.1491 62.7122L42.9346 62.882C43.0554 62.8934 43.1759 62.8573 43.2704 62.7812L44.6677 61.6568Z" fill="white"/>
<path d="M62.5327 131.914C62.861 131.65 63.3526 131.822 63.4444 132.234L63.9213 134.373C63.9536 134.518 64.0411 134.644 64.1652 134.726L66.0001 135.925C66.3528 136.156 66.341 136.677 65.9781 136.891L64.0906 138.006C63.9629 138.081 63.8697 138.203 63.8309 138.347L63.2571 140.462C63.1468 140.869 62.6478 141.019 62.3318 140.74L60.6883 139.289C60.5771 139.191 60.432 139.14 60.2839 139.148L58.0944 139.256C57.6735 139.276 57.377 138.848 57.5446 138.461L58.4163 136.45C58.4753 136.314 58.4788 136.16 58.4261 136.022L57.6467 133.973C57.4969 133.579 57.8126 133.164 58.2322 133.204L60.4144 133.412C60.5621 133.426 60.7093 133.382 60.8249 133.289L62.5327 131.914Z" fill="white"/>
<path d="M91.66 117.419C91.8391 117.275 92.1072 117.368 92.1573 117.593L92.4174 118.76C92.435 118.839 92.4828 118.908 92.5505 118.952L93.5513 119.606C93.7437 119.732 93.7372 120.016 93.5393 120.133L92.5098 120.741C92.4401 120.782 92.3893 120.849 92.3681 120.927L92.0551 122.081C91.9949 122.303 91.7228 122.385 91.5504 122.232L90.654 121.441C90.5933 121.388 90.5142 121.36 90.4334 121.364L89.2391 121.423C89.0095 121.434 88.8478 121.201 88.9392 120.99L89.4147 119.893C89.4469 119.818 89.4488 119.735 89.42 119.659L88.9949 118.541C88.9132 118.326 89.0854 118.1 89.3142 118.122L90.5046 118.235C90.5851 118.243 90.6654 118.219 90.7284 118.168L91.66 117.419Z" fill="white"/>
<circle cx="86.6141" cy="96.4526" r="2.3913" transform="rotate(19.3037 86.6141 96.4526)" fill="white"/>
<circle cx="64.2567" cy="54.6691" r="1.91304" transform="rotate(19.3037 64.2567 54.6691)" fill="white"/>
<circle cx="30.8816" cy="121.019" r="1.91304" transform="rotate(19.3037 30.8816 121.019)" fill="white"/>
<circle cx="79.9413" cy="157.459" r="1.91304" transform="rotate(19.3037 79.9413 157.459)" fill="white"/>
</g>
<defs>
<clipPath id="clip0_173_141">
<rect width="110" height="151.13" fill="white" transform="translate(49.96) rotate(19.3037)"/>
</clipPath>
<clipPath id="clip1_173_141">
<rect width="41.1304" height="43.6232" fill="white" transform="translate(46.4673 70.7351) rotate(19.3037)"/>
</clipPath>
<clipPath id="clip2_173_141">
<rect width="14.1292" height="14.9855" fill="white" transform="translate(92.1959 67.4958) rotate(19.3037)"/>
</clipPath>
<clipPath id="clip3_173_141">
<rect width="17.3267" height="18.3768" fill="white" transform="translate(88.1626 133.988) rotate(19.3037)"/>
</clipPath>
</defs>
</svg>
