<svg width="125" height="96" viewBox="0 0 125 96" fill="none" xmlns="http://www.w3.org/2000/svg">
<g clip-path="url(#clip0_56_740)">
<path d="M31.5688 75.4643C32.0777 75.9544 32.1774 76.7325 31.8086 77.3352L22.8375 91.9943C22.3302 92.8233 21.1821 92.9618 20.4922 92.2772L13.0265 84.8698C12.3399 84.1885 12.4644 83.0459 13.2815 82.5284L27.7403 73.3717C28.3267 73.0003 29.0909 73.0778 29.5908 73.5593L31.5688 75.4643Z" fill="#E4D657" stroke="black" stroke-width="3.01205"/>
<path d="M26.0923 68.0977C26.2977 68.7825 25.9932 69.5173 25.3637 69.8563L11.9632 77.0707C11.1091 77.5305 10.0495 77.0748 9.79573 76.1385L7.41636 67.3586C7.16761 66.4407 7.82139 65.5249 8.77032 65.4619L23.7823 64.4666C24.483 64.4201 25.1228 64.8641 25.3245 65.5368L26.0923 68.0977Z" fill="#E4D657" stroke="black" stroke-width="3.01205"/>
<path d="M28.7114 71.7083C29.0531 72.3431 28.8971 73.131 28.3392 73.5877L11.7177 87.1922C10.9848 87.792 9.88666 87.5746 9.43771 86.7406L3.71785 76.1161C3.25341 75.2533 3.72336 74.1839 4.67295 73.9425L25.7365 68.5891C26.4063 68.4189 27.106 68.7263 27.4336 69.3348L28.7114 71.7083Z" fill="#C01414" stroke="black" stroke-width="3.01205"/>
<path d="M93.5516 28.4937C93.0427 28.0036 92.9429 27.2255 93.3118 26.6229L102.283 11.9637C102.79 11.1348 103.938 10.9962 104.628 11.6808L112.094 19.0882C112.78 19.7695 112.656 20.9121 111.839 21.4296L97.3801 30.5864C96.7937 30.9577 96.0295 30.8802 95.5296 30.3987L93.5516 28.4937Z" fill="#C01414" stroke="black" stroke-width="3.01205"/>
<path d="M99.028 35.8604C98.8227 35.1755 99.1272 34.4407 99.7567 34.1017L113.157 26.8873C114.011 26.4275 115.071 26.8833 115.325 27.8195L117.704 36.5994C117.953 37.5173 117.299 38.4332 116.35 38.4961L101.338 39.4914C100.637 39.5379 99.9976 39.0939 99.7959 38.4212L99.028 35.8604Z" fill="#C01414" stroke="black" stroke-width="3.01205"/>
<path d="M96.409 32.2497C96.0673 31.6149 96.2233 30.827 96.7812 30.3703L113.403 16.7658C114.136 16.166 115.234 16.3834 115.683 17.2174L121.403 27.842C121.867 28.7047 121.397 29.7741 120.447 30.0155L99.3838 35.3689C98.7141 35.5391 98.0144 35.2317 97.6868 34.6232L96.409 32.2497Z" fill="#E4D657" stroke="black" stroke-width="3.01205"/>
<path d="M97.4969 34.5501C101.122 41.2829 100.748 49.4903 96.9795 57.4162C93.2117 65.3412 86.0865 72.8763 76.4521 78.0631C66.8177 83.2498 56.6045 85.0491 47.9145 83.8309C39.2234 82.6126 32.1662 78.4059 28.5415 71.673C24.9168 64.9402 25.2908 56.7328 29.0589 48.8069C32.8267 40.8819 39.9519 33.3468 49.5863 28.16C59.2207 22.9733 69.4339 21.174 78.1239 22.3922C86.815 23.6105 93.8722 27.8172 97.4969 34.5501Z" fill="#C01414" stroke="black" stroke-width="3.01205"/>
<path d="M37.454 38.0644C40.2035 35.3248 43.5478 32.8964 48.2542 30.0152L98.4536 51.4238C95.0365 60.9928 89.9046 68.0892 81.2668 74.2243L30.4029 47.6866C32.6641 43.6841 34.7928 40.7161 37.454 38.0644Z" fill="#E4D657" stroke="black" stroke-width="1.50603"/>
</g>
<defs>
<clipPath id="clip0_56_740">
<rect width="125" height="94.8797" fill="white" transform="translate(0 0.555664)"/>
</clipPath>
</defs>
</svg>
