<svg width="130" height="147" viewBox="0 0 130 147" fill="none" xmlns="http://www.w3.org/2000/svg">
<g clip-path="url(#clip0_56_607)">
<path d="M6.66665 69.8889H93.3333V142.111C93.3333 143.952 91.8409 145.444 90 145.444H9.99998C8.15904 145.444 6.66665 143.952 6.66665 142.111V69.8889Z" fill="#2A2A2A" stroke="#2A2A2A" stroke-width="2.22222"/>
<path d="M71.3498 121.117C71.9976 120.041 73.5581 120.041 74.2058 121.117L76.7538 125.351C77.1416 125.996 77.7743 126.455 78.5071 126.625L83.321 127.74C84.5448 128.023 85.0271 129.507 84.2035 130.456L80.9643 134.188C80.4712 134.756 80.2296 135.499 80.2946 136.249L80.7219 141.172C80.8305 142.423 79.568 143.34 78.4113 142.85L73.8614 140.923C73.1688 140.629 72.3868 140.629 71.6942 140.923L67.1444 142.85C65.9876 143.34 64.7252 142.423 64.8338 141.172L65.261 136.249C65.3261 135.499 65.0844 134.756 64.5913 134.188L61.3521 130.456C60.5286 129.507 61.0108 128.023 62.2347 127.74L67.0486 126.625C67.7814 126.455 68.414 125.996 68.8019 125.351L71.3498 121.117Z" fill="#2A2A2A" stroke="#2A2A2A" stroke-width="1.11111"/>
<path d="M87.3814 95.8815C87.8132 95.1639 88.8535 95.1639 89.2854 95.8815L92.4307 101.108C92.741 101.623 93.2471 101.991 93.8333 102.127L99.7759 103.503C100.592 103.692 100.913 104.682 100.364 105.314L96.3656 109.92C95.9711 110.375 95.7778 110.97 95.8298 111.569L96.3572 117.646C96.4296 118.481 95.588 119.092 94.8168 118.766L89.2002 116.386C88.6462 116.151 88.0206 116.151 87.4665 116.386L81.8499 118.766C81.0787 119.092 80.2371 118.481 80.3095 117.646L80.8369 111.569C80.889 110.97 80.6956 110.375 80.3012 109.92L76.3025 105.314C75.7535 104.682 76.075 103.692 76.8909 103.503L82.8334 102.127C83.4197 101.991 83.9258 101.623 84.2361 101.108L87.3814 95.8815Z" fill="#2A2A2A" stroke="#2A2A2A" stroke-width="1.11111"/>
<path d="M40.2387 107.783C40.8865 106.707 42.447 106.707 43.0948 107.783L45.6427 112.017C46.0305 112.662 46.6632 113.121 47.396 113.291L52.2099 114.406C53.4338 114.689 53.916 116.173 53.0925 117.122L49.8532 120.854C49.3602 121.422 49.1185 122.165 49.1835 122.915L49.6108 127.838C49.7194 129.089 48.4569 130.006 47.3002 129.516L42.7503 127.589C42.0577 127.295 41.2758 127.295 40.5832 127.589L36.0333 129.516C34.8766 130.006 33.6141 129.089 33.7227 127.838L34.1499 122.915C34.215 122.165 33.9733 121.422 33.4803 120.854L30.241 117.122C29.4175 116.173 29.8997 114.689 31.1236 114.406L35.9375 113.291C36.6703 113.121 37.3029 112.662 37.6908 112.017L40.2387 107.783Z" fill="#2A2A2A" stroke="#2A2A2A" stroke-width="1.11111"/>
<path d="M5.79428 96.6725C6.44204 95.5961 8.00254 95.5961 8.6503 96.6725L11.1982 100.906C11.5861 101.551 12.2187 102.01 12.9515 102.18L17.7654 103.295C18.9893 103.578 19.4715 105.063 18.648 106.011L15.4088 109.743C14.9157 110.311 14.6741 111.054 14.7391 111.804L15.1663 116.727C15.2749 117.978 14.0125 118.895 12.8558 118.405L8.30587 116.478C7.61328 116.184 6.8313 116.184 6.13871 116.478L1.58883 118.405C0.432098 118.895 -0.830366 117.978 -0.721748 116.727L-0.29451 111.804C-0.229475 111.054 -0.471119 110.311 -0.964201 109.743L-4.20342 106.011C-5.02693 105.063 -4.54471 103.578 -3.32086 103.295L1.49307 102.18C2.22586 102.01 2.85849 101.551 3.24634 100.906L5.79428 96.6725Z" fill="#2A2A2A" stroke="#2A2A2A" stroke-width="1.11111"/>
<path d="M16.9054 127.783C17.5531 126.707 19.1136 126.707 19.7614 127.783L22.3093 132.017C22.6972 132.662 23.3298 133.121 24.0626 133.291L28.8765 134.406C30.1004 134.689 30.5826 136.173 29.7591 137.122L26.5199 140.854C26.0268 141.422 25.7851 142.165 25.8502 142.915L26.2774 147.838C26.386 149.089 25.1236 150.006 23.9668 149.516L19.417 147.589C18.7244 147.295 17.9424 147.295 17.2498 147.589L12.6999 149.516C11.5432 150.006 10.2807 149.089 10.3893 147.838L10.8166 142.915C10.8816 142.165 10.64 141.422 10.1469 140.854L6.90767 137.122C6.08415 136.173 6.56637 134.689 7.79023 134.406L12.6042 133.291C13.3369 133.121 13.9696 132.662 14.3574 132.017L16.9054 127.783Z" fill="#2A2A2A" stroke="#2A2A2A" stroke-width="1.11111"/>
<path d="M35.7943 76.6725C36.442 75.5961 38.0025 75.5961 38.6503 76.6725L41.1982 80.9062C41.5861 81.5507 42.2187 82.0103 42.9515 82.1801L47.7654 83.295C48.9893 83.5784 49.4715 85.0625 48.648 86.0112L45.4088 89.7428C44.9157 90.3108 44.6741 91.0545 44.7391 91.8039L45.1663 96.7267C45.2749 97.9782 44.0125 98.8955 42.8558 98.4054L38.3059 96.4778C37.6133 96.1844 36.8313 96.1844 36.1387 96.4779L31.5888 98.4054C30.4321 98.8955 29.1696 97.9782 29.2783 96.7267L29.7055 91.8039C29.7705 91.0545 29.5289 90.3108 29.0358 89.7428L25.7966 86.0112C24.9731 85.0625 25.4553 83.5784 26.6791 83.295L31.4931 82.1801C32.2259 82.0103 32.8585 81.5507 33.2463 80.9062L35.7943 76.6725Z" fill="#2A2A2A" stroke="#2A2A2A" stroke-width="1.11111"/>
<path d="M55.7943 87.7833C56.442 86.7069 58.0025 86.7069 58.6503 87.7833L61.1982 92.0171C61.5861 92.6616 62.2187 93.1212 62.9515 93.2909L67.7654 94.4058C68.9893 94.6893 69.4715 96.1734 68.648 97.1221L65.4088 100.854C64.9157 101.422 64.6741 102.165 64.7391 102.915L65.1663 107.838C65.2749 109.089 64.0125 110.006 62.8558 109.516L58.3059 107.589C57.6133 107.295 56.8313 107.295 56.1387 107.589L51.5888 109.516C50.4321 110.006 49.1696 109.089 49.2783 107.838L49.7055 102.915C49.7705 102.165 49.5289 101.422 49.0358 100.854L45.7966 97.1221C44.9731 96.1734 45.4553 94.6893 46.6791 94.4058L51.4931 93.2909C52.2259 93.1212 52.8585 92.6616 53.2463 92.0171L55.7943 87.7833Z" fill="#2A2A2A" stroke="#2A2A2A" stroke-width="1.11111"/>
<rect x="40" y="69.8889" width="20" height="75.5555" fill="#2A2A2A" stroke="#2A2A2A" stroke-width="2.22222"/>
<line x1="87.2222" y1="139.334" x2="90.5555" y2="139.334" stroke="#2A2A2A" stroke-width="1.11111" stroke-linecap="round"/>
<line x1="86.1111" y1="141.556" x2="90.5555" y2="141.556" stroke="#2A2A2A" stroke-width="1.11111" stroke-linecap="round"/>
<path d="M76.2702 64.7707C76.702 64.0531 77.7423 64.0531 78.1742 64.7707L81.3195 69.9971C81.6298 70.5126 82.1359 70.8803 82.7221 71.0161L88.6647 72.3924C89.4806 72.5814 89.802 73.5708 89.253 74.2033L85.2544 78.8097C84.8599 79.2641 84.6666 79.859 84.7186 80.4585L85.246 86.5355C85.3184 87.3699 84.4768 87.9814 83.7056 87.6547L78.089 85.2752C77.535 85.0405 76.9094 85.0405 76.3553 85.2752L70.7387 87.6547C69.9675 87.9814 69.1259 87.3699 69.1983 86.5355L69.7257 80.4585C69.7777 79.859 69.5844 79.2641 69.19 78.8097L65.1913 74.2033C64.6423 73.5708 64.9638 72.5814 65.7797 72.3924L71.7222 71.0161C72.3085 70.8803 72.8146 70.5126 73.1249 69.9971L76.2702 64.7707Z" fill="#2A2A2A" stroke="#2A2A2A" stroke-width="1.11111"/>
</g>
<path d="M6.66665 69.8889H93.3333V142.111C93.3333 143.952 91.8409 145.444 90 145.444H9.99998C8.15904 145.444 6.66665 143.952 6.66665 142.111V69.8889Z" stroke="#2A2A2A" stroke-width="2.22222"/>
<g clip-path="url(#clip1_56_607)">
<rect y="46.5557" width="100" height="44.4444" rx="4.44444" fill="#2A2A2A"/>
<path d="M72.4609 71.1173C73.1087 70.0409 74.6692 70.0409 75.3169 71.1173L77.8649 75.3511C78.2527 75.9955 78.8853 76.4552 79.6181 76.6249L84.4321 77.7398C85.6559 78.0232 86.1381 79.5074 85.3146 80.456L82.0754 84.1876C81.5823 84.7556 81.3407 85.4993 81.4057 86.2487L81.833 91.1715C81.9416 92.4231 80.6791 93.3403 79.5224 92.8502L74.9725 90.9227C74.2799 90.6293 73.4979 90.6293 72.8053 90.9227L68.2555 92.8502C67.0987 93.3403 65.8363 92.4231 65.9449 91.1715L66.3721 86.2487C66.4372 85.4993 66.1955 84.7556 65.7024 84.1876L62.4632 80.456C61.6397 79.5074 62.1219 78.0232 63.3458 77.7398L68.1597 76.6249C68.8925 76.4552 69.5251 75.9955 69.913 75.3511L72.4609 71.1173Z" fill="#2A2A2A" stroke="#2A2A2A" stroke-width="1.11111"/>
<path d="M88.4924 45.8815C88.9243 45.1639 89.9646 45.1639 90.3965 45.8815L93.5418 51.1079C93.852 51.6235 94.3582 51.9912 94.9444 52.127L100.887 53.5033C101.703 53.6922 102.024 54.6816 101.475 55.3141L97.4767 59.9205C97.0822 60.3749 96.8889 60.9699 96.9409 61.5694L97.4683 67.6464C97.5407 68.4807 96.6991 69.0922 95.9279 68.7655L90.3113 66.386C89.7572 66.1513 89.1317 66.1513 88.5776 66.386L82.961 68.7655C82.1898 69.0922 81.3482 68.4807 81.4206 67.6464L81.948 61.5694C82 60.9699 81.8067 60.3749 81.4123 59.9205L77.4136 55.3141C76.8646 54.6816 77.1861 53.6922 78.002 53.5033L83.9445 52.127C84.5308 51.9912 85.0369 51.6235 85.3471 51.1079L88.4924 45.8815Z" fill="#2A2A2A" stroke="#2A2A2A" stroke-width="1.11111"/>
<path d="M42.4609 56.6725C43.1087 55.5961 44.6692 55.5961 45.3169 56.6725L47.8649 60.9062C48.2527 61.5507 48.8853 62.0103 49.6181 62.1801L54.4321 63.295C55.6559 63.5784 56.1381 65.0625 55.3146 66.0112L52.0754 69.7428C51.5823 70.3108 51.3407 71.0545 51.4057 71.8039L51.833 76.7267C51.9416 77.9782 50.6791 78.8955 49.5224 78.4054L44.9725 76.4778C44.2799 76.1844 43.4979 76.1844 42.8053 76.4779L38.2555 78.4054C37.0987 78.8955 35.8363 77.9782 35.9449 76.7267L36.3721 71.8039C36.4372 71.0545 36.1955 70.3108 35.7024 69.7428L32.4632 66.0112C31.6397 65.0625 32.1219 63.5784 33.3458 63.295L38.1597 62.1801C38.8925 62.0103 39.5251 61.5507 39.913 60.9062L42.4609 56.6725Z" fill="#2A2A2A" stroke="#2A2A2A" stroke-width="1.11111"/>
<path d="M6.90536 46.6725C7.55313 45.5961 9.11362 45.5961 9.76139 46.6725L12.3093 50.9062C12.6972 51.5507 13.3298 52.0103 14.0626 52.1801L18.8765 53.295C20.1004 53.5784 20.5826 55.0625 19.7591 56.0112L16.5199 59.7428C16.0268 60.3108 15.7851 61.0545 15.8502 61.8039L16.2774 66.7267C16.386 67.9782 15.1236 68.8955 13.9668 68.4054L9.41695 66.4778C8.72436 66.1844 7.94238 66.1844 7.24979 66.4779L2.69991 68.4054C1.54318 68.8955 0.280718 67.9782 0.389336 66.7267L0.816574 61.8039C0.881608 61.0545 0.639965 60.3108 0.146883 59.7428L-3.09233 56.0112C-3.91585 55.0625 -3.43363 53.5784 -2.20977 53.295L2.60415 52.1801C3.33694 52.0103 3.96957 51.5507 4.35743 50.9062L6.90536 46.6725Z" fill="#2A2A2A" stroke="#2A2A2A" stroke-width="1.11111"/>
<path d="M18.0164 77.7833C18.6642 76.7069 20.2247 76.7069 20.8725 77.7833L23.4204 82.0171C23.8083 82.6616 24.4409 83.1212 25.1737 83.2909L29.9876 84.4058C31.2115 84.6893 31.6937 86.1734 30.8702 87.1221L27.6309 90.8536C27.1379 91.4216 26.8962 92.1653 26.9613 92.9147L27.3885 97.8375C27.4971 99.0891 26.2346 100.006 25.0779 99.5163L20.528 97.5887C19.8354 97.2953 19.0535 97.2953 18.3609 97.5887L13.811 99.5163C12.6543 100.006 11.3918 99.0891 11.5004 97.8375L11.9277 92.9147C11.9927 92.1653 11.751 91.4216 11.258 90.8536L8.01875 87.1221C7.19524 86.1734 7.67745 84.6893 8.90131 84.4058L13.7152 83.2909C14.448 83.1212 15.0807 82.6616 15.4685 82.0171L18.0164 77.7833Z" fill="#2A2A2A" stroke="#2A2A2A" stroke-width="1.11111"/>
<rect x="39.9999" y="47.6668" width="20" height="42.2222" fill="#2A2A2A" stroke="#2A2A2A" stroke-width="2.22222"/>
<line x1="44.4839" y1="84.3727" x2="44.4839" y2="78.8171" stroke="#2A2A2A" stroke-width="1.11111" stroke-linecap="round"/>
<line x1="47.8172" y1="82.1505" x2="47.8172" y2="74.3727" stroke="#2A2A2A" stroke-width="1.11111" stroke-linecap="round"/>
</g>
<rect x="1.11111" y="47.6668" width="97.7778" height="42.2222" rx="3.33333" stroke="#2A2A2A" stroke-width="2.22222"/>
<path d="M11.1173 47.6671C11.2128 39.222 12.4065 33.2505 14.477 29.2204C16.601 25.086 19.658 22.9653 23.5795 22.2829C27.4771 21.6046 32.0702 22.9804 36.2598 25.7633C40.4343 28.5362 44.0614 32.6131 46.034 37.0869C48.0324 41.6194 47.9598 44.3844 47.531 45.9289C47.3154 46.7058 47.0003 47.2109 46.7635 47.5078C46.7146 47.5693 46.6686 47.6222 46.6271 47.6671H11.1173Z" fill="#2A2A2A" stroke="#2A2A2A" stroke-width="2.22222"/>
<path d="M87.7715 47.8561C87.6759 39.411 86.4823 33.4395 84.4118 29.4093C82.2878 25.2749 79.2308 23.1543 75.3093 22.4719C71.4117 21.7936 66.8186 23.1694 62.6289 25.9523C58.4545 28.7251 54.8274 32.8021 52.8548 37.2759C50.8564 41.8084 50.929 44.5733 51.3578 46.1179C51.5734 46.8948 51.8885 47.3999 52.1253 47.6968C52.1742 47.7582 52.2202 47.8112 52.2617 47.8561H87.7715Z" fill="#2A2A2A" stroke="#2A2A2A" stroke-width="2.22222"/>
<path d="M58.0869 41.1875C62.9911 38.4931 66.6597 36.9394 72.5745 38.29" stroke="#2A2A2A" stroke-width="2.22222" stroke-linecap="round"/>
<path d="M40.8861 42.0166C34.7988 37.6791 31.1674 36.6242 24.1604 38.0811" stroke="#2A2A2A" stroke-width="2.22222" stroke-linecap="round"/>
<path d="M41.2894 41.575C41.2874 37.7134 44.3672 34.5227 48.1678 34.5227H48.1758H48.1837H48.1917H48.1997H48.2076H48.2156H48.2236H48.2315H48.2395H48.2474H48.2554H48.2634H48.2713H48.2793H48.2872H48.2952H48.3032H48.3111H48.3191H48.327H48.335H48.3429H48.3509H48.3588H48.3668H48.3748H48.3827H48.3907H48.3986H48.4065H48.4145H48.4224H48.4304H48.4383H48.4463H48.4542H48.4622H48.4701H48.4781H48.486H48.4939H48.5019H48.5098H48.5178H48.5257H48.5336H48.5416H48.5495H48.5575H48.5654H48.5733H48.5813H48.5892H48.5971H48.6051H48.613H48.6209H48.6289H48.6368H48.6447H48.6526H48.6606H48.6685H48.6764H48.6844H48.6923H48.7002H48.7081H48.7161H48.724H48.7319H48.7398H48.7478H48.7557H48.7636H48.7715H48.7794H48.7874H48.7953H48.8032H48.8111H48.819H48.827H48.8349H48.8428H48.8507H48.8586H48.8665H48.8745H48.8824H48.8903H48.8982H48.9061H48.914H48.9219H48.9298H48.9378H48.9457H48.9536H48.9615H48.9694H48.9773H48.9852H48.9931H49.001H49.0089H49.0169H49.0248H49.0327H49.0406H49.0485H49.0564H49.0643H49.0722H49.0801H49.088H49.0959H49.1038H49.1117H49.1196H49.1275H49.1354H49.1433H49.1512H49.1591H49.167H49.1749H49.1828H49.1907H49.1986H49.2065H49.2144H49.2223H49.2302H49.2381H49.246H49.2539H49.2618H49.2697H49.2776H49.2855H49.2934H49.3013H49.3092H49.317H49.3249H49.3328H49.3407H49.3486H49.3565H49.3644H49.3723H49.3802H49.3881H49.396H49.4039H49.4118H49.4196H49.4275H49.4354H49.4433H49.4512H49.4591H49.467H49.4749H49.4828H49.4906H49.4985H49.5064H49.5143H49.5222H49.5301H49.538H49.5459H49.5537H49.5616H49.5695H49.5774H49.5853H49.5932H49.6011H49.6089H49.6168H49.6247H49.6326H49.6405H49.6484H49.6563H49.6641H49.672H49.6799H49.6878H49.6957H49.7036H49.7114H49.7193H49.7272H49.7351H49.743H49.7509H49.7587H49.7666H49.7745H49.7824H49.7903H49.7982H49.806H49.8139H49.8218H49.8297H49.8376H49.8455H49.8533H49.8612H49.8691H49.877H49.8849H49.8927H49.9006H49.9085H49.9164H49.9243H49.9321H49.94H49.9479H49.9558H49.9637H49.9716H49.9794H49.9873H49.9952H50.0031H50.011H50.0188H50.0267H50.0346H50.0425H50.0504H50.0583H50.0661H50.074H50.0819H50.0898H50.0977H50.1055H50.1134H50.1213H50.1292H50.1371H50.1449H50.1528H50.1607H50.1686H50.1765H50.1844H50.1922H50.2001H50.208H50.2159H50.2238H50.2317H50.2395H50.2474H50.2553H50.2632H50.2711H50.279H50.2868H50.2947H50.3026H50.3105H50.3184H50.3263H50.3341H50.342H50.3499H50.3578H50.3657H50.3736H50.3814H50.3893H50.3972H50.4051H50.413H50.4209H50.4288H50.4366H50.4445H50.4524H50.4603H50.4682H50.4761H50.484H50.4919H50.4997H50.5076H50.5155H50.5234H50.5313H50.5392H50.5471H50.555H50.5629H50.5707H50.5786H50.5865H50.5944H50.6023H50.6102H50.6181H50.626H50.6339H50.6418H50.6497H50.6575H50.6654H50.6733H50.6812H50.6891H50.697H50.7049H50.7128H50.7207H50.7286H50.7365H50.7444H50.7523H50.7602H50.7681H50.776H50.7839H50.7918H50.7997H50.8076H50.8155H50.8234H50.8313H50.8392H50.8471H50.855H50.8629H50.8708H50.8787H50.8866H50.8945H50.9024H50.9103H50.9182H50.9261H50.934H50.9419H50.9498H50.9577H50.9656H50.9735H50.9814H50.9893H50.9972H51.0051H51.0131H51.021H51.0289H51.0368H51.0447H51.0526H51.0605H51.0684H51.0763H51.0842H51.0922H51.1001H51.108H51.1159H51.1238H51.1317H51.1396H51.1476H51.1555H51.1634H51.1713H51.1792H51.1871H51.1951H51.203H51.2109H51.2188H51.2267H51.2347H51.2426H51.2505H51.2584H51.2664H51.2743H51.2822H51.2901H51.2981H51.306H51.3139H51.3218H51.3298H51.3377H51.3456H51.3536H51.3615H51.3694H51.3773H51.3853H51.3932H51.4011H51.4091H51.417H51.4249H51.4329H51.4408H51.4488H51.4567H51.4646H51.4726H51.4805H51.4884H51.4964H51.5043H51.5123H51.5202H51.5282H51.5361H51.544H51.552H51.5599H51.5679H51.5758H51.5838H51.5917H51.5997H51.6076H51.6156H51.6235H51.6315H51.6394H51.6474H51.6553H51.6633H51.6712H51.6792H51.6871H51.6951H51.7031H51.711H51.719H51.7269H51.7349H51.7429H51.7508H51.7588H51.7667H51.7747H51.7827H51.7906H51.7986H51.8066H51.8145H51.8225H51.8305H51.8384H51.8464H51.8544H51.8624H51.8703H51.8783H51.8863H51.8943H51.9022H51.9102H51.9182H51.9262H51.9341H51.9421H51.9501H51.9581H51.9661H51.9741H51.982H51.99H51.998H52.006H52.014H52.022H52.03H52.038H52.0459H52.0539H52.0619H52.0699H52.0779H52.0859H52.0939H52.1019H52.1099H52.1179H52.1259H52.1339H52.1419H52.1499H52.1579H52.1659H52.1739H52.1819H52.1899H52.1979H52.2059H52.214H52.222C55.9039 34.5227 58.8889 37.5075 58.8889 41.1894V47.8561H41.1666C41.259 45.7181 41.2904 43.5535 41.2894 41.575Z" fill="#2A2A2A" stroke="#2A2A2A" stroke-width="2.22222"/>
<path d="M70.7024 25.0929C76.1769 24.9091 77.9143 25.7122 79.6483 28.0749" stroke="#2A2A2A" stroke-width="1.11111" stroke-linecap="round"/>
<path d="M36.6667 49.7776H123.333V122C123.333 123.841 121.841 125.333 120 125.333H40C38.159 125.333 36.6667 123.841 36.6667 122V49.7776Z" fill="#CDA8F1" stroke="black" stroke-width="2.22222"/>
<rect x="70" y="49.7776" width="20" height="75.5556" fill="#F1DC6B" stroke="black" stroke-width="2.22222"/>
<line x1="110.556" y1="75.8888" x2="117.222" y2="75.8888" stroke="black" stroke-width="1.11111" stroke-linecap="round"/>
<line x1="42.7777" y1="117" x2="48.3333" y2="117" stroke="black" stroke-width="1.11111" stroke-linecap="round"/>
<line x1="41.6666" y1="120.333" x2="50.5555" y2="120.333" stroke="black" stroke-width="1.11111" stroke-linecap="round"/>
<line x1="107.222" y1="79.2223" x2="116.111" y2="79.2223" stroke="black" stroke-width="1.11111" stroke-linecap="round"/>
<g clip-path="url(#clip2_56_607)">
<rect x="30" y="26.4443" width="100" height="44.4444" rx="4.44444" fill="#CDA8F1"/>
<rect x="19.6746" y="35.2217" width="14.4444" height="65.5555" transform="rotate(-45 19.6746 35.2217)" fill="#9555D6" stroke="black" stroke-width="1.11111"/>
<rect x="48.5635" y="24.1108" width="14.4444" height="87.7778" transform="rotate(-45 48.5635 24.1108)" fill="#9555D6" stroke="black" stroke-width="1.11111"/>
<rect x="85.2301" y="18.5552" width="14.4444" height="87.7778" transform="rotate(-45 85.2301 18.5552)" fill="#9555D6" stroke="black" stroke-width="1.11111"/>
<rect x="70" y="27.5554" width="20" height="42.2222" fill="#F1DC6B" stroke="black" stroke-width="2.22222"/>
<line x1="45.2301" y1="34.2222" x2="50.7299" y2="39.7219" stroke="black" stroke-width="1.11111" stroke-linecap="round"/>
<line x1="53.0078" y1="36.4443" x2="56.9362" y2="40.3727" stroke="black" stroke-width="1.11111" stroke-linecap="round"/>
<line x1="94.119" y1="39.7778" x2="97.2617" y2="42.9205" stroke="black" stroke-width="1.11111" stroke-linecap="round"/>
<line x1="96.3412" y1="36.4443" x2="103.412" y2="43.5154" stroke="black" stroke-width="1.11111" stroke-linecap="round"/>
<line x1="74.4839" y1="64.2618" x2="74.4839" y2="58.7063" stroke="black" stroke-width="1.11111" stroke-linecap="round"/>
<line x1="77.8172" y1="62.0392" x2="77.8172" y2="54.2614" stroke="black" stroke-width="1.11111" stroke-linecap="round"/>
</g>
<rect x="31.1111" y="27.5554" width="97.7778" height="42.2222" rx="3.33333" stroke="black" stroke-width="2.22222"/>
<path d="M41.1173 27.5553C41.2128 19.1102 42.4065 13.1387 44.477 9.10856C46.601 4.97416 49.658 2.85353 53.5795 2.17109C57.4771 1.49278 62.0702 2.86861 66.2598 5.65153C70.4343 8.42434 74.0614 12.5013 76.034 16.9751C78.0324 21.5076 77.9598 24.2726 77.531 25.8171C77.3154 26.594 77.0003 27.0991 76.7635 27.3961C76.7146 27.4575 76.6686 27.5104 76.6271 27.5553H41.1173Z" fill="#F1DC6B" stroke="black" stroke-width="2.22222"/>
<path d="M117.772 27.7443C117.676 19.2992 116.482 13.3276 114.412 9.29753C112.288 5.16313 109.231 3.0425 105.309 2.36005C101.412 1.68175 96.8187 3.05758 92.6291 5.8405C88.4546 8.61331 84.8275 12.6903 82.855 17.1641C80.8565 21.6966 80.9291 24.4615 81.3579 26.0061C81.5735 26.783 81.8886 27.2881 82.1254 27.585C82.1744 27.6464 82.2203 27.6994 82.2618 27.7443H117.772Z" fill="#F1DC6B" stroke="black" stroke-width="2.22222"/>
<path d="M88.0869 21.0762C92.9911 18.3818 96.6597 16.8281 102.575 18.1787" stroke="black" stroke-width="2.22222" stroke-linecap="round"/>
<path d="M70.8861 21.9048C64.7988 17.5673 61.1674 16.5124 54.1604 17.9693" stroke="black" stroke-width="2.22222" stroke-linecap="round"/>
<path d="M71.2894 21.4631C71.2874 17.6016 74.3672 14.4109 78.1678 14.4109H78.1758H78.1837H78.1917H78.1997H78.2076H78.2156H78.2236H78.2315H78.2395H78.2474H78.2554H78.2634H78.2713H78.2793H78.2873H78.2952H78.3032H78.3111H78.3191H78.327H78.335H78.3429H78.3509H78.3589H78.3668H78.3748H78.3827H78.3907H78.3986H78.4066H78.4145H78.4224H78.4304H78.4383H78.4463H78.4542H78.4622H78.4701H78.4781H78.486H78.4939H78.5019H78.5098H78.5178H78.5257H78.5336H78.5416H78.5495H78.5575H78.5654H78.5733H78.5813H78.5892H78.5971H78.6051H78.613H78.6209H78.6289H78.6368H78.6447H78.6526H78.6606H78.6685H78.6764H78.6844H78.6923H78.7002H78.7081H78.7161H78.724H78.7319H78.7398H78.7478H78.7557H78.7636H78.7715H78.7794H78.7874H78.7953H78.8032H78.8111H78.819H78.827H78.8349H78.8428H78.8507H78.8586H78.8665H78.8745H78.8824H78.8903H78.8982H78.9061H78.914H78.9219H78.9299H78.9378H78.9457H78.9536H78.9615H78.9694H78.9773H78.9852H78.9931H79.001H79.0089H79.0169H79.0248H79.0327H79.0406H79.0485H79.0564H79.0643H79.0722H79.0801H79.088H79.0959H79.1038H79.1117H79.1196H79.1275H79.1354H79.1433H79.1512H79.1591H79.167H79.1749H79.1828H79.1907H79.1986H79.2065H79.2144H79.2223H79.2302H79.2381H79.246H79.2539H79.2618H79.2697H79.2776H79.2855H79.2934H79.3013H79.3092H79.317H79.3249H79.3328H79.3407H79.3486H79.3565H79.3644H79.3723H79.3802H79.3881H79.396H79.4039H79.4118H79.4196H79.4275H79.4354H79.4433H79.4512H79.4591H79.467H79.4749H79.4828H79.4906H79.4985H79.5064H79.5143H79.5222H79.5301H79.538H79.5459H79.5537H79.5616H79.5695H79.5774H79.5853H79.5932H79.6011H79.6089H79.6168H79.6247H79.6326H79.6405H79.6484H79.6563H79.6641H79.672H79.6799H79.6878H79.6957H79.7036H79.7114H79.7193H79.7272H79.7351H79.743H79.7509H79.7587H79.7666H79.7745H79.7824H79.7903H79.7982H79.806H79.8139H79.8218H79.8297H79.8376H79.8455H79.8533H79.8612H79.8691H79.877H79.8849H79.8927H79.9006H79.9085H79.9164H79.9243H79.9321H79.94H79.9479H79.9558H79.9637H79.9716H79.9794H79.9873H79.9952H80.0031H80.011H80.0188H80.0267H80.0346H80.0425H80.0504H80.0583H80.0661H80.074H80.0819H80.0898H80.0977H80.1055H80.1134H80.1213H80.1292H80.1371H80.1449H80.1528H80.1607H80.1686H80.1765H80.1844H80.1922H80.2001H80.208H80.2159H80.2238H80.2317H80.2395H80.2474H80.2553H80.2632H80.2711H80.279H80.2868H80.2947H80.3026H80.3105H80.3184H80.3263H80.3341H80.342H80.3499H80.3578H80.3657H80.3736H80.3814H80.3893H80.3972H80.4051H80.413H80.4209H80.4288H80.4366H80.4445H80.4524H80.4603H80.4682H80.4761H80.484H80.4919H80.4997H80.5076H80.5155H80.5234H80.5313H80.5392H80.5471H80.555H80.5629H80.5707H80.5786H80.5865H80.5944H80.6023H80.6102H80.6181H80.626H80.6339H80.6418H80.6497H80.6575H80.6654H80.6733H80.6812H80.6891H80.697H80.7049H80.7128H80.7207H80.7286H80.7365H80.7444H80.7523H80.7602H80.7681H80.776H80.7839H80.7918H80.7997H80.8076H80.8155H80.8234H80.8313H80.8392H80.8471H80.855H80.8629H80.8708H80.8787H80.8866H80.8945H80.9024H80.9103H80.9182H80.9261H80.934H80.9419H80.9498H80.9577H80.9656H80.9735H80.9814H80.9893H80.9972H81.0051H81.0131H81.021H81.0289H81.0368H81.0447H81.0526H81.0605H81.0684H81.0763H81.0842H81.0922H81.1001H81.108H81.1159H81.1238H81.1317H81.1396H81.1476H81.1555H81.1634H81.1713H81.1792H81.1871H81.1951H81.203H81.2109H81.2188H81.2267H81.2347H81.2426H81.2505H81.2584H81.2664H81.2743H81.2822H81.2901H81.2981H81.306H81.3139H81.3218H81.3298H81.3377H81.3456H81.3536H81.3615H81.3694H81.3773H81.3853H81.3932H81.4011H81.4091H81.417H81.4249H81.4329H81.4408H81.4488H81.4567H81.4646H81.4726H81.4805H81.4884H81.4964H81.5043H81.5123H81.5202H81.5281H81.5361H81.544H81.552H81.5599H81.5679H81.5758H81.5838H81.5917H81.5997H81.6076H81.6156H81.6235H81.6315H81.6394H81.6474H81.6553H81.6633H81.6712H81.6792H81.6871H81.6951H81.7031H81.711H81.719H81.7269H81.7349H81.7429H81.7508H81.7588H81.7667H81.7747H81.7827H81.7906H81.7986H81.8066H81.8145H81.8225H81.8305H81.8384H81.8464H81.8544H81.8624H81.8703H81.8783H81.8863H81.8943H81.9022H81.9102H81.9182H81.9262H81.9341H81.9421H81.9501H81.9581H81.9661H81.9741H81.982H81.99H81.998H82.006H82.014H82.022H82.03H82.038H82.0459H82.0539H82.0619H82.0699H82.0779H82.0859H82.0939H82.1019H82.1099H82.1179H82.1259H82.1339H82.1419H82.1499H82.1579H82.1659H82.1739H82.1819H82.1899H82.1979H82.2059H82.214H82.222C85.9039 14.4109 88.8889 17.3957 88.8889 21.0776V27.7442H71.1666C71.259 25.6063 71.2904 23.4417 71.2894 21.4631Z" fill="#F1DC6B" stroke="black" stroke-width="2.22222"/>
<path d="M100.703 4.98159C106.177 4.79773 107.915 5.60084 109.649 7.96356" stroke="black" stroke-width="1.11111" stroke-linecap="round"/>
<defs>
<clipPath id="clip0_56_607">
<path d="M5.55554 68.7778H94.4444V142.111C94.4444 144.566 92.4546 146.556 90 146.556H9.99998C7.54539 146.556 5.55554 144.566 5.55554 142.111V68.7778Z" fill="white"/>
</clipPath>
<clipPath id="clip1_56_607">
<rect y="46.5557" width="100" height="44.4444" rx="4.44444" fill="white"/>
</clipPath>
<clipPath id="clip2_56_607">
<rect x="30" y="26.4443" width="100" height="44.4444" rx="4.44444" fill="white"/>
</clipPath>
</defs>
</svg>
