<svg width="39" height="86" viewBox="0 0 39 86" fill="none" xmlns="http://www.w3.org/2000/svg">
<g clip-path="url(#clip0_27_117)">
<path d="M17.028 1H21.7384C23.1727 1 24.4063 2.01526 24.6823 3.42276L25.4666 7.42276C25.83 9.27599 24.4112 11 22.5227 11H16.2437C14.3551 11 12.9363 9.27599 13.2997 7.42276L14.084 3.42275C14.36 2.01526 15.5937 1 17.028 1Z" fill="#36C020" stroke="black" stroke-width="2"/>
<path d="M4.31902 13.2449C5.01305 11.4024 6.87976 9.80487 9.6012 8.63383C12.296 7.47427 15.6746 6.80396 19.106 6.71529C22.5384 6.62659 25.9558 7.12158 28.7346 8.23289C31.5189 9.34641 33.5581 11.0318 34.4553 13.2652C36.4483 18.2265 37.7557 28.1924 37.5787 39.32C37.4022 50.4231 35.7502 62.486 31.9595 71.6245C30.0545 76.2171 28.0444 79.5394 26.0074 81.6881C23.9777 83.8292 21.9896 84.74 20.0811 84.7042C18.1562 84.668 16.0761 83.6654 13.8835 81.4761C11.6928 79.2886 9.46861 75.9911 7.2796 71.5644C2.95051 62.8098 1.37 50.424 1.31174 39.0395C1.25342 27.6442 2.71934 17.4917 4.31902 13.2449Z" fill="#FF9839" stroke="black" stroke-width="2"/>
<path d="M1.8521 26L7.43452 26.4284C8.59784 26.5177 8.69227 28.1877 7.54641 28.4076L1.8521 29.5L1.8521 26Z" fill="black"/>
<path d="M37.3832 33L31.0514 33.2856C29.8203 33.3412 29.7598 35.1402 30.9844 35.2783L37.3832 36L37.3832 33Z" fill="black"/>
<path d="M36.3832 19L31.385 19.2856C30.1801 19.3545 30.1059 21.1033 31.3007 21.2739L36.3832 22L36.3832 19Z" fill="black"/>
<path d="M-1.61682 38L3.9656 38.4284C5.12893 38.5177 5.22335 40.1877 4.0775 40.4076L-1.61682 41.5L-1.61682 38Z" fill="black"/>
<path d="M1.38318 52L7.04817 52.2856C8.26764 52.3471 8.3343 54.1238 7.12287 54.2765L1.38318 55L1.38318 52Z" fill="black"/>
<path d="M7.38318 71L13.0482 71.2856C14.2676 71.3471 14.3343 73.1238 13.1229 73.2765L7.38318 74L7.38318 71Z" fill="black"/>
<path d="M34.3832 65L29.0516 65.2856C27.839 65.3506 27.7688 67.1141 28.9724 67.2753L34.3832 68L34.3832 65Z" fill="black"/>
<path d="M37.3832 46L34.3015 46.5136C33.1874 46.6993 33.1874 48.3007 34.3015 48.4864L37.3832 49L37.3832 46Z" fill="black"/>
</g>
<defs>
<clipPath id="clip0_27_117">
<rect width="38" height="86" fill="white" transform="translate(0.383179)"/>
</clipPath>
</defs>
</svg>
