<svg width="61" height="66" viewBox="0 0 61 66" fill="none" xmlns="http://www.w3.org/2000/svg">
<g clip-path="url(#clip0_26_93)">
<path d="M27.9143 1H32.852C34.365 1 35.6412 2.12661 35.8289 3.6279L37.3289 15.6279C37.5527 17.4185 36.1565 19 34.352 19H26.4143C24.6098 19 23.2137 17.4185 23.4375 15.6279L24.9375 3.6279C25.1251 2.12661 26.4013 1 27.9143 1Z" fill="#CFB529" stroke="black" stroke-width="2"/>
<g clip-path="url(#clip1_26_93)">
<circle cx="30.3832" cy="36" r="29" fill="url(#paint0_linear_26_93)" stroke="black" stroke-width="2"/>
<path d="M12.2473 20.4182C12.2901 20.2865 12.4763 20.2865 12.519 20.4182L13.4737 23.3562C13.4928 23.4151 13.5477 23.4549 13.6095 23.4549H16.6988C16.8372 23.4549 16.8947 23.632 16.7828 23.7133L14.2835 25.5292C14.2334 25.5655 14.2125 25.63 14.2316 25.6889L15.1862 28.6269C15.229 28.7586 15.0784 28.868 14.9664 28.7867L12.4671 26.9708C12.4171 26.9345 12.3493 26.9345 12.2992 26.9708L9.79995 28.7867C9.68799 28.868 9.53735 28.7586 9.58012 28.6269L10.5347 25.6889C10.5539 25.63 10.5329 25.5655 10.4829 25.5292L7.9836 23.7133C7.87164 23.632 7.92918 23.4549 8.06757 23.4549H11.1568C11.2187 23.4549 11.2736 23.4151 11.2927 23.3562L12.2473 20.4182Z" fill="#D9D9D9"/>
<path d="M25.3017 39.2509C25.3273 39.1719 25.439 39.1719 25.4647 39.2509L26.0375 41.0137C26.049 41.049 26.0819 41.0729 26.119 41.0729H27.9725C28.0556 41.0729 28.0901 41.1792 28.0229 41.228L26.5234 42.3175C26.4933 42.3393 26.4808 42.378 26.4922 42.4133L27.065 44.1762C27.0907 44.2551 27.0003 44.3208 26.9331 44.272L25.4336 43.1825C25.4035 43.1607 25.3628 43.1607 25.3328 43.1825L23.8332 44.272C23.7661 44.3208 23.6757 44.2551 23.7013 44.1762L24.2741 42.4133C24.2856 42.378 24.273 42.3393 24.243 42.3175L22.7434 41.228C22.6763 41.1792 22.7108 41.0729 22.7938 41.0729H24.6474C24.6845 41.0729 24.7174 41.049 24.7289 41.0137L25.3017 39.2509Z" fill="#D9D9D9"/>
<path d="M31.7337 23.46C31.7808 23.3152 31.9856 23.3152 32.0326 23.46L33.0827 26.6918C33.1038 26.7566 33.1641 26.8004 33.2322 26.8004H36.6304C36.7826 26.8004 36.8459 26.9952 36.7227 27.0847L33.9735 29.0821C33.9185 29.1221 33.8954 29.193 33.9165 29.2578L34.9665 32.4896C35.0136 32.6344 34.8479 32.7548 34.7247 32.6653L31.9755 30.6679C31.9205 30.6279 31.8459 30.6279 31.7908 30.6679L29.0416 32.6653C28.9185 32.7548 28.7528 32.6344 28.7998 32.4896L29.8499 29.2578C29.8709 29.193 29.8479 29.1221 29.7928 29.0821L27.0436 27.0847C26.9205 26.9952 26.9838 26.8004 27.136 26.8004H30.5342C30.6023 26.8004 30.6626 26.7566 30.6836 26.6918L31.7337 23.46Z" fill="#D9D9D9"/>
<path d="M46.7881 21.7927C46.818 21.7006 46.9483 21.7006 46.9783 21.7927L47.6465 23.8493C47.6599 23.8905 47.6983 23.9184 47.7416 23.9184H49.9041C50.001 23.9184 50.0413 24.0424 49.9629 24.0993L48.2134 25.3704C48.1784 25.3959 48.1637 25.441 48.1771 25.4822L48.8453 27.5389C48.8753 27.631 48.7698 27.7076 48.6914 27.6507L46.942 26.3796C46.9069 26.3541 46.8594 26.3541 46.8244 26.3796L45.0749 27.6507C44.9965 27.7076 44.8911 27.631 44.921 27.5389L45.5893 25.4822C45.6027 25.441 45.588 25.3959 45.553 25.3704L43.8035 24.0993C43.7251 24.0424 43.7654 23.9184 43.8622 23.9184H46.0247C46.068 23.9184 46.1064 23.8905 46.1198 23.8493L46.7881 21.7927Z" fill="#D9D9D9"/>
<path d="M54.8152 28.2091C54.8366 28.1433 54.9297 28.1433 54.9511 28.2091L55.4284 29.6781C55.438 29.7075 55.4654 29.7275 55.4964 29.7275H57.041C57.1102 29.7275 57.1389 29.816 57.083 29.8567L55.8333 30.7646C55.8083 30.7828 55.7978 30.815 55.8074 30.8444L56.2847 32.3135C56.3061 32.3793 56.2308 32.434 56.1748 32.3933L54.9252 31.4854C54.9001 31.4672 54.8662 31.4672 54.8412 31.4854L53.5916 32.3933C53.5356 32.434 53.4603 32.3793 53.4816 32.3135L53.959 30.8444C53.9685 30.815 53.9581 30.7828 53.933 30.7646L52.6834 29.8567C52.6274 29.816 52.6562 29.7275 52.7254 29.7275H54.27C54.3009 29.7275 54.3284 29.7075 54.3379 29.6781L54.8152 28.2091Z" fill="#D9D9D9"/>
<path d="M14.3288 36.1673C14.3459 36.1146 14.4204 36.1146 14.4375 36.1673L14.8194 37.3425C14.827 37.366 14.849 37.382 14.8737 37.382H16.1094C16.1648 37.382 16.1878 37.4528 16.143 37.4853L15.1433 38.2117C15.1233 38.2262 15.1149 38.252 15.1226 38.2756L15.5044 39.4508C15.5215 39.5034 15.4613 39.5472 15.4165 39.5147L14.4168 38.7883C14.3967 38.7738 14.3696 38.7738 14.3496 38.7883L13.3499 39.5147C13.3051 39.5472 13.2448 39.5034 13.262 39.4508L13.6438 38.2756C13.6515 38.252 13.6431 38.2262 13.623 38.2117L12.6233 37.4853C12.5786 37.4528 12.6016 37.382 12.6569 37.382H13.8926C13.9174 37.382 13.9393 37.366 13.947 37.3425L14.3288 36.1673Z" fill="#D9D9D9"/>
</g>
<rect x="1.38318" y="7" width="58" height="58" rx="29" stroke="black" stroke-width="2"/>
</g>
<defs>
<linearGradient id="paint0_linear_26_93" x1="30.3832" y1="6" x2="30.3832" y2="71.5" gradientUnits="userSpaceOnUse">
<stop stop-color="#CF1FC8"/>
<stop offset="1" stop-color="#3E5DCA"/>
</linearGradient>
<clipPath id="clip0_26_93">
<rect width="60" height="66" fill="white" transform="translate(0.383179)"/>
</clipPath>
<clipPath id="clip1_26_93">
<rect x="0.383179" y="6" width="60" height="60" rx="30" fill="white"/>
</clipPath>
</defs>
</svg>
