<svg width="90" height="113" viewBox="0 0 90 113" fill="none" xmlns="http://www.w3.org/2000/svg">
<g clip-path="url(#clip0_16_3164)">
<path d="M6 44H84V109C84 110.657 82.6569 112 81 112H9C7.34315 112 6 110.657 6 109V44Z" fill="#2A2A2A" stroke="black" stroke-width="2"/>
<path d="M64.2148 90.1053C64.7978 89.1365 66.2022 89.1365 66.7852 90.1053L69.0784 93.9157C69.4274 94.4957 69.9968 94.9094 70.6563 95.0621L74.9888 96.0655C76.0903 96.3206 76.5243 97.6563 75.7831 98.5102L72.8678 101.869C72.4241 102.38 72.2066 103.049 72.2651 103.724L72.6496 108.154C72.7474 109.28 71.6112 110.106 70.5701 109.665L66.4752 107.93C65.8519 107.666 65.1481 107.666 64.5248 107.93L60.4299 109.665C59.3888 110.106 58.2526 109.28 58.3504 108.154L58.7349 103.724C58.7934 103.049 58.5759 102.38 58.1322 101.869L55.2169 98.5102C54.4757 97.6563 54.9097 96.3206 56.0112 96.0655L60.3437 95.0621C61.0032 94.9094 61.5726 94.4957 61.9216 93.9157L64.2148 90.1053Z" fill="#E4D657" stroke="black"/>
<path d="M78.6432 67.3934C79.0319 66.7476 79.9681 66.7476 80.3568 67.3934L83.1876 72.0972C83.4668 72.5612 83.9223 72.8921 84.4499 73.0143L89.7982 74.253C90.5326 74.4231 90.8219 75.3135 90.3278 75.8827L86.729 80.0285C86.374 80.4375 86.2 80.973 86.2468 81.5125L86.7215 86.9818C86.7866 87.7327 86.0292 88.2831 85.3351 87.989L80.2802 85.8475C79.7815 85.6362 79.2185 85.6362 78.7198 85.8475L73.6649 87.989C72.9708 88.2831 72.2134 87.7327 72.2785 86.9818L72.7532 81.5125C72.8 80.973 72.626 80.4375 72.271 80.0285L68.6722 75.8827C68.1781 75.3135 68.4675 74.4231 69.2018 74.253L74.5501 73.0143C75.0777 72.8921 75.5332 72.5612 75.8124 72.0972L78.6432 67.3934Z" fill="#E4D657" stroke="black"/>
<path d="M36.2148 78.1053C36.7978 77.1365 38.2022 77.1365 38.7852 78.1053L41.0784 81.9157C41.4274 82.4957 41.9968 82.9094 42.6563 83.0621L46.9888 84.0655C48.0903 84.3206 48.5243 85.6563 47.7831 86.5102L44.8678 89.8685C44.4241 90.3798 44.2066 91.0491 44.2651 91.7235L44.6496 96.1541C44.7474 97.2805 43.6112 98.106 42.5701 97.665L38.4752 95.9301C37.8519 95.6661 37.1481 95.6661 36.5248 95.9301L32.4299 97.6649C31.3888 98.106 30.2526 97.2805 30.3504 96.1541L30.7349 91.7235C30.7934 91.0491 30.5759 90.3798 30.1322 89.8685L27.2169 86.5102C26.4757 85.6563 26.9097 84.3206 28.0112 84.0655L32.3437 83.0621C33.0032 82.9094 33.5726 82.4957 33.9216 81.9157L36.2148 78.1053Z" fill="#E4D657" stroke="black"/>
<path d="M5.21479 68.1053C5.79778 67.1365 7.20222 67.1365 7.78521 68.1053L10.0784 71.9157C10.4274 72.4957 10.9968 72.9094 11.6563 73.0621L15.9888 74.0655C17.0903 74.3206 17.5243 75.6563 16.7831 76.5102L13.8678 79.8685C13.4241 80.3798 13.2066 81.0491 13.2651 81.7235L13.6496 86.1541C13.7474 87.2805 12.6112 88.106 11.5701 87.665L7.47523 85.9301C6.85189 85.6661 6.14811 85.6661 5.52478 85.9301L1.42989 87.6649C0.388831 88.106 -0.747389 87.2805 -0.649634 86.1541L-0.26512 81.7235C-0.206588 81.0491 -0.424067 80.3798 -0.867841 79.8685L-3.78314 76.5102C-4.5243 75.6563 -4.0903 74.3206 -2.98883 74.0655L1.3437 73.0621C2.00321 72.9094 2.57258 72.4957 2.92165 71.9157L5.21479 68.1053Z" fill="#E4D657" stroke="black"/>
<path d="M15.2148 96.1053C15.7978 95.1365 17.2022 95.1365 17.7852 96.1053L20.0784 99.9157C20.4274 100.496 20.9968 100.909 21.6563 101.062L25.9888 102.066C27.0903 102.321 27.5243 103.656 26.7831 104.51L23.8678 107.869C23.4241 108.38 23.2066 109.049 23.2651 109.724L23.6496 114.154C23.7474 115.28 22.6112 116.106 21.5701 115.665L17.4752 113.93C16.8519 113.666 16.1481 113.666 15.5248 113.93L11.4299 115.665C10.3888 116.106 9.25261 115.28 9.35037 114.154L9.73488 109.724C9.79341 109.049 9.57593 108.38 9.13216 107.869L6.21686 104.51C5.4757 103.656 5.9097 102.321 7.01117 102.066L11.3437 101.062C12.0032 100.909 12.5726 100.496 12.9216 99.9157L15.2148 96.1053Z" fill="#E4D657" stroke="black"/>
<path d="M32.2148 50.1053C32.7978 49.1365 34.2022 49.1365 34.7852 50.1053L37.0784 53.9157C37.4274 54.4957 37.9968 54.9094 38.6563 55.0621L42.9888 56.0655C44.0903 56.3206 44.5243 57.6563 43.7831 58.5102L40.8678 61.8685C40.4241 62.3798 40.2066 63.0491 40.2651 63.7235L40.6496 68.1541C40.7474 69.2805 39.6112 70.106 38.5701 69.665L34.4752 67.9301C33.8519 67.6661 33.1481 67.6661 32.5248 67.9301L28.4299 69.6649C27.3888 70.106 26.2526 69.2805 26.3504 68.1541L26.7349 63.7235C26.7934 63.0491 26.5759 62.3798 26.1322 61.8685L23.2169 58.5102C22.4757 57.6563 22.9097 56.3206 24.0112 56.0655L28.3437 55.0621C29.0032 54.9094 29.5726 54.4957 29.9216 53.9157L32.2148 50.1053Z" fill="#E4D657" stroke="black"/>
<path d="M50.2148 60.1053C50.7978 59.1365 52.2022 59.1365 52.7852 60.1053L55.0784 63.9157C55.4274 64.4957 55.9968 64.9094 56.6563 65.0621L60.9888 66.0655C62.0903 66.3206 62.5243 67.6563 61.7831 68.5102L58.8678 71.8685C58.4241 72.3798 58.2066 73.0491 58.2651 73.7235L58.6496 78.1541C58.7474 79.2805 57.6112 80.106 56.5701 79.665L52.4752 77.9301C51.8519 77.6661 51.1481 77.6661 50.5248 77.9301L46.4299 79.6649C45.3888 80.106 44.2526 79.2805 44.3504 78.1541L44.7349 73.7235C44.7934 73.0491 44.5759 72.3798 44.1322 71.8685L41.2169 68.5102C40.4757 67.6563 40.9097 66.3206 42.0112 66.0655L46.3437 65.0621C47.0032 64.9094 47.5726 64.4957 47.9216 63.9157L50.2148 60.1053Z" fill="#E4D657" stroke="black"/>
<rect x="36" y="44" width="18" height="68" fill="#E4D657" stroke="black" stroke-width="2"/>
<line x1="78.5" y1="106.5" x2="81.5" y2="106.5" stroke="black" stroke-linecap="round"/>
<line x1="77.5" y1="108.5" x2="81.5" y2="108.5" stroke="black" stroke-linecap="round"/>
<path d="M68.6432 39.3934C69.0319 38.7476 69.9681 38.7476 70.3568 39.3934L73.1876 44.0972C73.4668 44.5612 73.9223 44.8921 74.4499 45.0143L79.7982 46.253C80.5326 46.4231 80.8219 47.3135 80.3278 47.8827L76.729 52.0285C76.374 52.4375 76.2 52.973 76.2468 53.5125L76.7215 58.9818C76.7866 59.7327 76.0292 60.2831 75.3351 59.989L70.2802 57.8475C69.7815 57.6362 69.2185 57.6362 68.7198 57.8475L63.6649 59.989C62.9708 60.2831 62.2134 59.7327 62.2785 58.9818L62.7532 53.5125C62.8 52.973 62.626 52.4375 62.271 52.0285L58.6722 47.8827C58.1781 47.3135 58.4675 46.4231 59.2018 46.253L64.5501 45.0143C65.0777 44.8921 65.5332 44.5612 65.8124 44.0972L68.6432 39.3934Z" fill="#E4D657" stroke="black"/>
</g>
<path d="M6 44H84V109C84 110.657 82.6569 112 81 112H9C7.34315 112 6 110.657 6 109V44Z" stroke="black" stroke-width="2"/>
<g clip-path="url(#clip1_16_3164)">
<rect y="23" width="90" height="40" rx="4" fill="#2A2A2A"/>
<path d="M65.2148 45.1053C65.7978 44.1365 67.2022 44.1365 67.7852 45.1053L70.0784 48.9157C70.4274 49.4957 70.9968 49.9094 71.6563 50.0621L75.9888 51.0655C77.0903 51.3206 77.5243 52.6563 76.7831 53.5102L73.8678 56.8685C73.4241 57.3798 73.2066 58.0491 73.2651 58.7235L73.6496 63.1541C73.7474 64.2805 72.6112 65.106 71.5701 64.665L67.4752 62.9301C66.8519 62.6661 66.1481 62.6661 65.5248 62.9301L61.4299 64.6649C60.3888 65.106 59.2526 64.2805 59.3504 63.1541L59.7349 58.7235C59.7934 58.0491 59.5759 57.3798 59.1322 56.8685L56.2169 53.5102C55.4757 52.6563 55.9097 51.3206 57.0112 51.0655L61.3437 50.0621C62.0032 49.9094 62.5726 49.4957 62.9216 48.9157L65.2148 45.1053Z" fill="#E4D657" stroke="black"/>
<path d="M79.6432 22.3934C80.0319 21.7476 80.9681 21.7476 81.3568 22.3934L84.1876 27.0972C84.4668 27.5612 84.9223 27.8921 85.4499 28.0143L90.7982 29.253C91.5326 29.4231 91.8219 30.3135 91.3278 30.8827L87.729 35.0285C87.374 35.4375 87.2 35.973 87.2468 36.5125L87.7215 41.9818C87.7866 42.7327 87.0292 43.2831 86.3351 42.989L81.2802 40.8475C80.7815 40.6362 80.2185 40.6362 79.7198 40.8475L74.6649 42.989C73.9708 43.2831 73.2134 42.7327 73.2785 41.9818L73.7532 36.5125C73.8 35.973 73.626 35.4375 73.271 35.0285L69.6722 30.8827C69.1781 30.3135 69.4675 29.4231 70.2018 29.253L75.5501 28.0143C76.0777 27.8921 76.5332 27.5612 76.8124 27.0972L79.6432 22.3934Z" fill="#E4D657" stroke="black"/>
<path d="M38.2148 32.1053C38.7978 31.1365 40.2022 31.1365 40.7852 32.1053L43.0784 35.9157C43.4274 36.4957 43.9968 36.9094 44.6563 37.0621L48.9888 38.0655C50.0903 38.3206 50.5243 39.6563 49.7831 40.5102L46.8678 43.8685C46.4241 44.3798 46.2066 45.0491 46.2651 45.7235L46.6496 50.1541C46.7474 51.2805 45.6112 52.106 44.5701 51.665L40.4752 49.9301C39.8519 49.6661 39.1481 49.6661 38.5248 49.9301L34.4299 51.6649C33.3888 52.106 32.2526 51.2805 32.3504 50.1541L32.7349 45.7235C32.7934 45.0491 32.5759 44.3798 32.1322 43.8685L29.2169 40.5102C28.4757 39.6563 28.9097 38.3206 30.0112 38.0655L34.3437 37.0621C35.0032 36.9094 35.5726 36.4957 35.9216 35.9157L38.2148 32.1053Z" fill="#E4D657" stroke="black"/>
<path d="M6.21479 23.1053C6.79778 22.1365 8.20222 22.1365 8.78521 23.1053L11.0784 26.9157C11.4274 27.4957 11.9968 27.9094 12.6563 28.0621L16.9888 29.0655C18.0903 29.3206 18.5243 30.6563 17.7831 31.5102L14.8678 34.8685C14.4241 35.3798 14.2066 36.0491 14.2651 36.7235L14.6496 41.1541C14.7474 42.2805 13.6112 43.106 12.5701 42.665L8.47523 40.9301C7.85189 40.6661 7.14811 40.6661 6.52478 40.9301L2.42989 42.6649C1.38883 43.106 0.252611 42.2805 0.350366 41.1541L0.73488 36.7235C0.793412 36.0491 0.575933 35.3798 0.132159 34.8685L-2.78314 31.5102C-3.5243 30.6563 -3.0903 29.3206 -1.98883 29.0655L2.3437 28.0621C3.00321 27.9094 3.57258 27.4957 3.92165 26.9157L6.21479 23.1053Z" fill="#E4D657" stroke="black"/>
<path d="M16.2148 51.1053C16.7978 50.1365 18.2022 50.1365 18.7852 51.1053L21.0784 54.9157C21.4274 55.4957 21.9968 55.9094 22.6563 56.0621L26.9888 57.0655C28.0903 57.3206 28.5243 58.6563 27.7831 59.5102L24.8678 62.8685C24.4241 63.3798 24.2066 64.0491 24.2651 64.7235L24.6496 69.1541C24.7474 70.2805 23.6112 71.106 22.5701 70.665L18.4752 68.9301C17.8519 68.6661 17.1481 68.6661 16.5248 68.9301L12.4299 70.6649C11.3888 71.106 10.2526 70.2805 10.3504 69.1541L10.7349 64.7235C10.7934 64.0491 10.5759 63.3798 10.1322 62.8685L7.21686 59.5102C6.4757 58.6563 6.9097 57.3206 8.01117 57.0655L12.3437 56.0621C13.0032 55.9094 13.5726 55.4957 13.9216 54.9157L16.2148 51.1053Z" fill="#E4D657" stroke="black"/>
<rect x="36" y="24" width="18" height="38" fill="#E4D657" stroke="black" stroke-width="2"/>
<line x1="40.0355" y1="57.0355" x2="40.0355" y2="52.0355" stroke="black" stroke-linecap="round"/>
<line x1="43.0355" y1="55.0355" x2="43.0355" y2="48.0355" stroke="black" stroke-linecap="round"/>
</g>
<rect x="1" y="24" width="88" height="38" rx="3" stroke="black" stroke-width="2"/>
<path d="M10.0056 24C10.0916 16.3994 11.1659 11.025 13.0293 7.3979C14.9409 3.67694 17.6922 1.76837 21.2215 1.15417C24.7294 0.543701 28.8632 1.78195 32.6339 4.28658C36.3909 6.7821 39.6552 10.4514 41.4306 14.4778C43.2292 18.557 43.1638 21.0455 42.7779 22.4356C42.5838 23.1348 42.3003 23.5894 42.0872 23.8566C42.0431 23.9119 42.0017 23.9596 41.9644 24H10.0056Z" fill="#E4D657" stroke="black" stroke-width="2"/>
<path d="M78.9944 24.1702C78.9084 16.5695 77.8341 11.1952 75.9707 7.56807C74.0591 3.84711 71.3078 1.93854 67.7785 1.32434C64.2706 0.713867 60.1368 1.95211 56.3661 4.45674C52.6091 6.95227 49.3448 10.6215 47.5694 14.648C45.7708 18.7272 45.8362 21.2157 46.2221 22.6058C46.4162 23.305 46.6997 23.7596 46.9128 24.0268C46.9569 24.0821 46.9983 24.1297 47.0356 24.1702H78.9944Z" fill="#E4D657" stroke="black" stroke-width="2"/>
<path d="M52.2782 18.1688C56.6919 15.7438 59.9937 14.3455 65.317 15.561" stroke="black" stroke-width="2" stroke-linecap="round"/>
<path d="M36.7976 18.9145C31.3191 15.0107 28.0508 14.0613 21.7444 15.3726" stroke="black" stroke-width="2" stroke-linecap="round"/>
<path d="M37.1605 18.5172C37.1587 15.0418 39.9305 12.1702 43.351 12.1702H43.3582H43.3654H43.3725H43.3797H43.3869H43.394H43.4012H43.4084H43.4155H43.4227H43.4299H43.437H43.4442H43.4514H43.4585H43.4657H43.4728H43.48H43.4872H43.4943H43.5015H43.5086H43.5158H43.523H43.5301H43.5373H43.5444H43.5516H43.5587H43.5659H43.5731H43.5802H43.5874H43.5945H43.6017H43.6088H43.616H43.6231H43.6303H43.6374H43.6445H43.6517H43.6588H43.666H43.6731H43.6803H43.6874H43.6946H43.7017H43.7089H43.716H43.7231H43.7303H43.7374H43.7446H43.7517H43.7588H43.766H43.7731H43.7802H43.7874H43.7945H43.8017H43.8088H43.8159H43.8231H43.8302H43.8373H43.8445H43.8516H43.8587H43.8659H43.873H43.8801H43.8872H43.8944H43.9015H43.9086H43.9158H43.9229H43.93H43.9371H43.9443H43.9514H43.9585H43.9656H43.9728H43.9799H43.987H43.9941H44.0013H44.0084H44.0155H44.0226H44.0297H44.0369H44.044H44.0511H44.0582H44.0653H44.0725H44.0796H44.0867H44.0938H44.1009H44.1081H44.1152H44.1223H44.1294H44.1365H44.1436H44.1507H44.1579H44.165H44.1721H44.1792H44.1863H44.1934H44.2005H44.2076H44.2148H44.2219H44.229H44.2361H44.2432H44.2503H44.2574H44.2645H44.2716H44.2787H44.2859H44.293H44.3001H44.3072H44.3143H44.3214H44.3285H44.3356H44.3427H44.3498H44.3569H44.364H44.3711H44.3782H44.3853H44.3924H44.3996H44.4067H44.4138H44.4209H44.428H44.4351H44.4422H44.4493H44.4564H44.4635H44.4706H44.4777H44.4848H44.4919H44.499H44.5061H44.5132H44.5203H44.5274H44.5345H44.5416H44.5487H44.5558H44.5629H44.57H44.5771H44.5842H44.5913H44.5984H44.6055H44.6126H44.6197H44.6268H44.6339H44.641H44.6481H44.6551H44.6622H44.6693H44.6764H44.6835H44.6906H44.6977H44.7048H44.7119H44.719H44.7261H44.7332H44.7403H44.7474H44.7545H44.7616H44.7687H44.7758H44.7829H44.79H44.7971H44.8042H44.8112H44.8183H44.8254H44.8325H44.8396H44.8467H44.8538H44.8609H44.868H44.8751H44.8822H44.8893H44.8964H44.9035H44.9106H44.9177H44.9247H44.9318H44.9389H44.946H44.9531H44.9602H44.9673H44.9744H44.9815H44.9886H44.9957H45.0028H45.0099H45.017H45.024H45.0311H45.0382H45.0453H45.0524H45.0595H45.0666H45.0737H45.0808H45.0879H45.095H45.1021H45.1092H45.1163H45.1234H45.1305H45.1375H45.1446H45.1517H45.1588H45.1659H45.173H45.1801H45.1872H45.1943H45.2014H45.2085H45.2156H45.2227H45.2298H45.2369H45.244H45.2511H45.2581H45.2652H45.2723H45.2794H45.2865H45.2936H45.3007H45.3078H45.3149H45.322H45.3291H45.3362H45.3433H45.3504H45.3575H45.3646H45.3717H45.3788H45.3859H45.393H45.4001H45.4072H45.4143H45.4214H45.4285H45.4356H45.4427H45.4498H45.4569H45.464H45.4711H45.4782H45.4853H45.4924H45.4995H45.5066H45.5137H45.5208H45.5279H45.535H45.5421H45.5492H45.5563H45.5634H45.5705H45.5776H45.5847H45.5918H45.5989H45.606H45.6131H45.6202H45.6273H45.6344H45.6415H45.6486H45.6557H45.6628H45.6699H45.6771H45.6842H45.6913H45.6984H45.7055H45.7126H45.7197H45.7268H45.7339H45.741H45.7481H45.7552H45.7624H45.7695H45.7766H45.7837H45.7908H45.7979H45.805H45.8121H45.8192H45.8264H45.8335H45.8406H45.8477H45.8548H45.8619H45.869H45.8762H45.8833H45.8904H45.8975H45.9046H45.9117H45.9189H45.926H45.9331H45.9402H45.9473H45.9545H45.9616H45.9687H45.9758H45.9829H45.9901H45.9972H46.0043H46.0114H46.0186H46.0257H46.0328H46.0399H46.0471H46.0542H46.0613H46.0684H46.0756H46.0827H46.0898H46.0969H46.1041H46.1112H46.1183H46.1255H46.1326H46.1397H46.1469H46.154H46.1611H46.1682H46.1754H46.1825H46.1897H46.1968H46.2039H46.2111H46.2182H46.2253H46.2325H46.2396H46.2467H46.2539H46.261H46.2682H46.2753H46.2824H46.2896H46.2967H46.3039H46.311H46.3182H46.3253H46.3324H46.3396H46.3467H46.3539H46.361H46.3682H46.3753H46.3825H46.3896H46.3968H46.4039H46.4111H46.4182H46.4254H46.4325H46.4397H46.4468H46.454H46.4612H46.4683H46.4755H46.4826H46.4898H46.4969H46.5041H46.5113H46.5184H46.5256H46.5327H46.5399H46.5471H46.5542H46.5614H46.5686H46.5757H46.5829H46.5901H46.5972H46.6044H46.6116H46.6187H46.6259H46.6331H46.6402H46.6474H46.6546H46.6618H46.6689H46.6761H46.6833H46.6905H46.6976H46.7048H46.712H46.7192H46.7264H46.7335H46.7407H46.7479H46.7551H46.7623H46.7695H46.7766H46.7838H46.791H46.7982H46.8054H46.8126H46.8198H46.827H46.8342H46.8413H46.8485H46.8557H46.8629H46.8701H46.8773H46.8845H46.8917H46.8989H46.9061H46.9133H46.9205H46.9277H46.9349H46.9421H46.9493H46.9565H46.9637H46.9709H46.9781H46.9853H46.9926H46.9998C50.3135 12.1702 53 14.8565 53 18.1702V24.1702H37.0499C37.1331 22.246 37.1614 20.2979 37.1605 18.5172Z" fill="#E4D657" stroke="black" stroke-width="2"/>
<path d="M63.6324 3.68377C68.5595 3.5183 70.1231 4.2411 71.6837 6.36754" stroke="black" stroke-linecap="round"/>
<defs>
<clipPath id="clip0_16_3164">
<path d="M5 43H85V109C85 111.209 83.2091 113 81 113H9C6.79086 113 5 111.209 5 109V43Z" fill="white"/>
</clipPath>
<clipPath id="clip1_16_3164">
<rect y="23" width="90" height="40" rx="4" fill="white"/>
</clipPath>
</defs>
</svg>
