<svg width="300" height="300" viewBox="0 0 300 300" fill="none" xmlns="http://www.w3.org/2000/svg">
<path d="M148.286 12.8474C149.064 11.5558 150.936 11.5558 151.714 12.8474L157.792 22.9478C158.071 23.4118 158.527 23.7427 159.054 23.8649L170.539 26.5247C172.007 26.8649 172.586 28.6458 171.598 29.7842L163.87 38.6864C163.515 39.0954 163.341 39.6308 163.388 40.1704L164.407 51.9146C164.538 53.4164 163.023 54.5171 161.635 53.929L150.78 49.3305C150.282 49.1193 149.718 49.1193 149.22 49.3305L138.365 53.929C136.977 54.5171 135.462 53.4164 135.593 51.9146L136.612 40.1704C136.659 39.6308 136.485 39.0954 136.13 38.6864L128.402 29.7842C127.414 28.6458 127.993 26.8649 129.461 26.5247L140.946 23.8649C141.473 23.7427 141.929 23.4118 142.208 22.9478L148.286 12.8474Z" fill="#E4D657"/>
<path d="M151.714 287.153C150.936 288.444 149.064 288.444 148.286 287.153L142.208 277.052C141.929 276.588 141.473 276.257 140.946 276.135L129.461 273.475C127.993 273.135 127.414 271.354 128.402 270.216L136.13 261.314C136.485 260.905 136.659 260.369 136.612 259.83L135.593 248.085C135.462 246.584 136.977 245.483 138.365 246.071L149.22 250.669C149.718 250.881 150.282 250.881 150.78 250.669L161.635 246.071C163.023 245.483 164.538 246.584 164.407 248.085L163.388 259.83C163.341 260.369 163.515 260.905 163.87 261.314L171.598 270.216C172.586 271.354 172.007 273.135 170.539 273.475L159.054 276.135C158.527 276.257 158.071 276.588 157.792 277.052L151.714 287.153Z" fill="#E4D657"/>
<path d="M12.8474 151.714C11.5558 150.936 11.5558 149.064 12.8474 148.286L22.9478 142.208C23.4118 141.929 23.7427 141.473 23.8649 140.946L26.5247 129.461C26.8649 127.993 28.6458 127.414 29.7842 128.402L38.6864 136.13C39.0954 136.485 39.6308 136.659 40.1704 136.612L51.9146 135.593C53.4164 135.462 54.5171 136.977 53.929 138.365L49.3305 149.22C49.1193 149.718 49.1193 150.282 49.3305 150.78L53.929 161.635C54.5171 163.023 53.4164 164.538 51.9146 164.407L40.1704 163.388C39.6308 163.341 39.0954 163.515 38.6864 163.87L29.7842 171.598C28.6458 172.586 26.8649 172.007 26.5247 170.539L23.8649 159.054C23.7427 158.527 23.4118 158.071 22.9478 157.792L12.8474 151.714Z" fill="#E4D657"/>
<path d="M287.153 148.286C288.444 149.064 288.444 150.936 287.153 151.714L277.052 157.792C276.588 158.071 276.257 158.527 276.135 159.054L273.475 170.539C273.135 172.007 271.354 172.586 270.216 171.598L261.314 163.87C260.905 163.515 260.369 163.341 259.83 163.388L248.085 164.407C246.584 164.538 245.483 163.023 246.071 161.635L250.669 150.78C250.881 150.282 250.881 149.718 250.669 149.22L246.071 138.365C245.483 136.977 246.584 135.462 248.085 135.593L259.83 136.612C260.369 136.659 260.905 136.485 261.314 136.13L270.216 128.402C271.354 127.414 273.135 127.993 273.475 129.461L276.135 140.946C276.257 141.473 276.588 141.929 277.052 142.208L287.153 148.286Z" fill="#E4D657"/>
<path d="M51.4794 53.5475C51.1157 52.0845 52.4398 50.7604 53.9028 51.1241L65.343 53.968C65.8686 54.0986 66.4246 54.0105 66.8841 53.7239L76.8855 47.484C78.1645 46.686 79.833 47.5361 79.9392 49.0399L80.7697 60.7989C80.8079 61.3392 81.0635 61.8408 81.4781 62.1892L90.5032 69.7729C91.6574 70.7427 91.3644 72.5922 89.9671 73.1579L79.0402 77.5815C78.5382 77.7848 78.1401 78.1829 77.9369 78.6849L73.5133 89.6118C72.9476 91.0091 71.0981 91.302 70.1282 90.1479L62.5446 81.1228C62.1962 80.7082 61.6945 80.4526 61.1543 80.4144L49.3952 79.5839C47.8915 79.4777 47.0413 77.8092 47.8393 76.5302L54.0792 66.5288C54.3659 66.0693 54.4539 65.5132 54.3233 64.9876L51.4794 53.5475Z" fill="#E4D657"/>
<path d="M247.866 245.087C248.229 246.55 246.905 247.874 245.442 247.511L234.002 244.667C233.477 244.536 232.921 244.624 232.461 244.911L222.46 251.151C221.181 251.949 219.512 251.099 219.406 249.595L218.575 237.836C218.537 237.296 218.282 236.794 217.867 236.446L208.842 228.862C207.688 227.892 207.981 226.043 209.378 225.477L220.305 221.053C220.807 220.85 221.205 220.452 221.408 219.95L225.832 209.023C226.398 207.626 228.247 207.333 229.217 208.487L236.801 217.512C237.149 217.927 237.651 218.182 238.191 218.22L249.95 219.051C251.454 219.157 252.304 220.826 251.506 222.105L245.266 232.106C244.979 232.565 244.891 233.122 245.022 233.647L247.866 245.087Z" fill="#E4D657"/>
<path d="M245.442 51.4794C246.905 51.1157 248.229 52.4398 247.866 53.9028L245.022 65.343C244.891 65.8686 244.979 66.4246 245.266 66.8841L251.506 76.8855C252.304 78.1645 251.454 79.833 249.95 79.9392L238.191 80.7697C237.651 80.8079 237.149 81.0635 236.801 81.4781L229.217 90.5032C228.247 91.6574 226.398 91.3644 225.832 89.9671L221.408 79.0402C221.205 78.5382 220.807 78.1401 220.305 77.9369L209.378 73.5133C207.981 72.9476 207.688 71.0981 208.842 70.1282L217.867 62.5446C218.282 62.1962 218.537 61.6945 218.575 61.1543L219.406 49.3952C219.512 47.8915 221.181 47.0413 222.46 47.8393L232.461 54.0792C232.921 54.3659 233.477 54.4539 234.002 54.3233L245.442 51.4794Z" fill="#E4D657"/>
<path d="M53.9028 247.866C52.4398 248.229 51.1157 246.905 51.4794 245.442L54.3232 234.002C54.4539 233.477 54.3658 232.921 54.0791 232.461L47.8392 222.46C47.0413 221.181 47.8914 219.512 49.3952 219.406L61.1542 218.575C61.6944 218.537 62.1961 218.282 62.5445 217.867L70.1282 208.842C71.098 207.688 72.9475 207.981 73.5132 209.378L77.9368 220.305C78.1401 220.807 78.5382 221.205 79.0402 221.408L89.967 225.832C91.3644 226.398 91.6573 228.247 90.5032 229.217L81.4781 236.801C81.0634 237.149 80.8078 237.651 80.7697 238.191L79.9392 249.95C79.833 251.454 78.1645 252.304 76.8855 251.506L66.8841 245.266C66.4246 244.979 65.8685 244.891 65.3429 245.022L53.9028 247.866Z" fill="#E4D657"/>
</svg>
