<svg width="160" height="201" viewBox="0 0 160 201" fill="none" xmlns="http://www.w3.org/2000/svg">
<g clip-path="url(#clip0_54_681)">
<path d="M10.6667 78.2221H149.333V193.778C149.333 196.723 146.946 199.111 144 199.111H16C13.0545 199.111 10.6667 196.723 10.6667 193.778V78.2221Z" fill="#2A2A2A" stroke="#2A2A2A" stroke-width="3.55556"/>
<path d="M114.16 160.187C115.196 158.465 117.693 158.465 118.729 160.187L122.806 166.961C123.427 167.992 124.439 168.728 125.611 168.999L133.313 170.783C135.272 171.237 136.043 173.611 134.726 175.129L129.543 181.099C128.754 182.008 128.367 183.198 128.471 184.397L129.155 192.274C129.329 194.276 127.309 195.744 125.458 194.96L118.178 191.876C117.07 191.406 115.819 191.406 114.711 191.876L107.431 194.96C105.58 195.744 103.56 194.276 103.734 192.274L104.418 184.397C104.522 183.198 104.135 182.008 103.346 181.099L98.1633 175.129C96.8457 173.611 97.6173 171.237 99.5754 170.783L107.278 168.999C108.45 168.728 109.462 167.992 110.083 166.961L114.16 160.187Z" fill="#2A2A2A" stroke="#2A2A2A" stroke-width="1.77778"/>
<path d="M139.81 119.81C140.501 118.662 142.166 118.662 142.857 119.81L147.889 128.173C148.386 128.998 149.195 129.586 150.133 129.803L159.641 132.005C160.947 132.308 161.461 133.891 160.583 134.903L154.185 142.273C153.554 143 153.244 143.952 153.328 144.911L154.172 154.634C154.287 155.969 152.941 156.948 151.707 156.425L142.72 152.618C141.834 152.242 140.833 152.242 139.946 152.618L130.96 156.425C129.726 156.948 128.379 155.969 128.495 154.634L129.339 144.911C129.422 143.952 129.113 143 128.482 142.273L122.084 134.903C121.206 133.891 121.72 132.308 123.025 132.005L132.533 129.803C133.471 129.586 134.281 128.998 134.778 128.173L139.81 119.81Z" fill="#2A2A2A" stroke="#2A2A2A" stroke-width="1.77778"/>
<path d="M64.3819 138.853C65.4183 137.131 67.9151 137.131 68.9515 138.853L73.0282 145.628C73.6488 146.659 74.661 147.394 75.8334 147.666L83.5357 149.45C85.4939 149.903 86.2654 152.278 84.9478 153.796L79.7651 159.766C78.9761 160.675 78.5895 161.865 78.6936 163.064L79.3771 170.94C79.5509 172.943 77.531 174.41 75.6802 173.626L68.4004 170.542C67.2923 170.073 66.0411 170.073 64.933 170.542L57.6531 173.626C55.8024 174.41 53.7824 172.943 53.9562 170.94L54.6398 163.064C54.7439 161.865 54.3572 160.675 53.5683 159.766L48.3856 153.796C47.0679 152.278 47.8395 149.903 49.7977 149.45L57.4999 147.666C58.6724 147.394 59.6846 146.659 60.3052 145.628L64.3819 138.853Z" fill="#2A2A2A" stroke="#2A2A2A" stroke-width="1.77778"/>
<path d="M9.27072 121.076C10.3071 119.354 12.8039 119.354 13.8404 121.076L17.9171 127.85C18.5376 128.881 19.5498 129.617 20.7223 129.888L28.4246 131.672C30.3827 132.125 31.1543 134.5 29.8367 136.018L24.6539 141.988C23.865 142.897 23.4784 144.087 23.5824 145.286L24.266 153.163C24.4398 155.165 22.4198 156.633 20.5691 155.849L13.2893 152.765C12.1811 152.295 10.93 152.295 9.82181 152.765L2.542 155.849C0.691239 156.633 -1.32871 155.165 -1.15492 153.163L-0.471337 145.286C-0.367281 144.087 -0.753912 142.897 -1.54284 141.988L-6.72559 136.018C-8.04321 134.5 -7.27166 132.125 -5.31349 131.672L2.38879 129.888C3.56125 129.617 4.57347 128.881 5.19403 127.85L9.27072 121.076Z" fill="#2A2A2A" stroke="#2A2A2A" stroke-width="1.77778"/>
<path d="M27.0485 170.853C28.0849 169.131 30.5817 169.131 31.6181 170.853L35.6948 177.628C36.3154 178.659 37.3276 179.394 38.5001 179.666L46.2023 181.45C48.1605 181.903 48.9321 184.278 47.6144 185.796L42.4317 191.766C41.6428 192.675 41.2561 193.865 41.3602 195.064L42.0438 202.94C42.2176 204.943 40.1976 206.41 38.3469 205.626L31.067 202.542C29.9589 202.073 28.7077 202.073 27.5996 202.542L20.3198 205.626C18.469 206.41 16.4491 204.943 16.6229 202.94L17.3064 195.064C17.4105 193.865 17.0239 192.675 16.2349 191.766L11.0522 185.796C9.73456 184.278 10.5061 181.903 12.4643 181.45L20.1666 179.666C21.339 179.394 22.3512 178.659 22.9718 177.628L27.0485 170.853Z" fill="#2A2A2A" stroke="#2A2A2A" stroke-width="1.77778"/>
<path d="M57.2707 89.0759C58.3071 87.3537 60.8039 87.3537 61.8404 89.0759L65.9171 95.8499C66.5376 96.8811 67.5498 97.6165 68.7223 97.8881L76.4246 99.6719C78.3827 100.125 79.1543 102.5 77.8367 104.018L72.6539 109.988C71.865 110.897 71.4784 112.087 71.5824 113.286L72.266 121.163C72.4398 123.165 70.4198 124.633 68.5691 123.849L61.2893 120.765C60.1811 120.295 58.93 120.295 57.8218 120.765L50.542 123.849C48.6912 124.633 46.6713 123.165 46.8451 121.163L47.5287 113.286C47.6327 112.087 47.2461 110.897 46.4572 109.988L41.2744 104.018C39.9568 102.5 40.7283 100.125 42.6865 99.6719L50.3888 97.8881C51.5612 97.6165 52.5735 96.8811 53.194 95.8499L57.2707 89.0759Z" fill="#2A2A2A" stroke="#2A2A2A" stroke-width="1.77778"/>
<path d="M89.2707 106.853C90.3071 105.131 92.8039 105.131 93.8404 106.853L97.9171 113.628C98.5376 114.659 99.5498 115.394 100.722 115.666L108.425 117.45C110.383 117.903 111.154 120.278 109.837 121.796L104.654 127.766C103.865 128.675 103.478 129.865 103.582 131.064L104.266 138.94C104.44 140.943 102.42 142.41 100.569 141.626L93.2893 138.542C92.1811 138.073 90.93 138.073 89.8218 138.542L82.542 141.626C80.6912 142.41 78.6713 140.943 78.8451 138.94L79.5287 131.064C79.6327 129.865 79.2461 128.675 78.4572 127.766L73.2744 121.796C71.9568 120.278 72.7283 117.903 74.6865 117.45L82.3888 115.666C83.5612 115.394 84.5735 114.659 85.194 113.628L89.2707 106.853Z" fill="#2A2A2A" stroke="#2A2A2A" stroke-width="1.77778"/>
<rect x="64" y="78.2221" width="32" height="120.889" fill="#2A2A2A" stroke="#2A2A2A" stroke-width="3.55556"/>
<line x1="139.556" y1="189.333" x2="144.889" y2="189.333" stroke="#2A2A2A" stroke-width="1.77778" stroke-linecap="round"/>
<line x1="137.778" y1="192.889" x2="144.889" y2="192.889" stroke="#2A2A2A" stroke-width="1.77778" stroke-linecap="round"/>
<path d="M122.032 70.0325C122.723 68.8844 124.388 68.8844 125.079 70.0325L130.111 78.3948C130.608 79.2197 131.418 79.808 132.355 80.0253L141.864 82.2274C143.169 82.5297 143.683 84.1128 142.805 85.1247L136.407 92.4949C135.776 93.222 135.467 94.174 135.55 95.1331L136.394 104.856C136.51 106.191 135.163 107.17 133.929 106.647L124.943 102.84C124.056 102.464 123.055 102.464 122.169 102.84L113.182 106.647C111.948 107.17 110.602 106.191 110.717 104.856L111.561 95.1331C111.645 94.174 111.335 93.222 110.704 92.4949L104.306 85.1247C103.428 84.1128 103.942 82.5297 105.248 82.2274L114.756 80.0253C115.694 79.808 116.503 79.2197 117 78.3948L122.032 70.0325Z" fill="#2A2A2A" stroke="#2A2A2A" stroke-width="1.77778"/>
</g>
<path d="M10.6667 78.2221H149.333V193.778C149.333 196.723 146.946 199.111 144 199.111H16C13.0545 199.111 10.6667 196.723 10.6667 193.778V78.2221Z" stroke="#2A2A2A" stroke-width="3.55556"/>
<g clip-path="url(#clip1_54_681)">
<rect y="40.8889" width="160" height="71.1111" rx="7.11111" fill="#2A2A2A"/>
<path d="M115.937 80.1872C116.974 78.465 119.471 78.465 120.507 80.1872L124.584 86.9613C125.204 87.9924 126.217 88.7279 127.389 88.9994L135.091 90.7833C137.049 91.2368 137.821 93.6114 136.503 95.1293L131.321 101.1C130.532 102.009 130.145 103.198 130.249 104.397L130.933 112.274C131.106 114.277 129.087 115.744 127.236 114.96L119.956 111.876C118.848 111.406 117.597 111.406 116.488 111.876L109.209 114.96C107.358 115.744 105.338 114.277 105.512 112.274L106.195 104.397C106.299 103.198 105.913 102.009 105.124 101.1L99.9411 95.1293C98.6235 93.6114 99.395 91.2368 101.353 90.7833L109.055 88.9994C110.228 88.7279 111.24 87.9924 111.861 86.9613L115.937 80.1872Z" fill="#2A2A2A" stroke="#2A2A2A" stroke-width="1.77778"/>
<path d="M141.588 39.8106C142.279 38.6625 143.943 38.6625 144.634 39.8106L149.667 48.1728C150.163 48.9978 150.973 49.5861 151.911 49.8033L161.419 52.0054C162.725 52.3078 163.239 53.8908 162.36 54.9028L155.963 62.273C155.331 63.0001 155.022 63.952 155.105 64.9112L155.949 74.6344C156.065 75.9694 154.718 76.9478 153.485 76.4251L144.498 72.6179C143.612 72.2423 142.611 72.2423 141.724 72.6179L132.738 76.4251C131.504 76.9478 130.157 75.9694 130.273 74.6344L131.117 64.9112C131.2 63.952 130.891 63.0001 130.26 62.273L123.862 54.9028C122.983 53.8908 123.498 52.3078 124.803 52.0054L134.311 49.8033C135.249 49.5861 136.059 48.9978 136.555 48.1728L141.588 39.8106Z" fill="#2A2A2A" stroke="#2A2A2A" stroke-width="1.77778"/>
<path d="M67.9374 57.0761C68.9738 55.3539 71.4706 55.3539 72.5071 57.0761L76.5837 63.8502C77.2043 64.8814 78.2165 65.6168 79.389 65.8883L87.0913 67.6722C89.0494 68.1257 89.821 70.5003 88.5034 72.0182L83.3206 77.9886C82.5317 78.8975 82.1451 80.0874 82.2491 81.2864L82.9327 89.1629C83.1065 91.1654 81.0865 92.633 79.2358 91.8489L71.956 88.7648C70.8478 88.2953 69.5966 88.2953 68.4885 88.7648L61.2087 91.8489C59.3579 92.633 57.338 91.1654 57.5118 89.1629L58.1953 81.2864C58.2994 80.0874 57.9128 78.8975 57.1238 77.9886L51.9411 72.0182C50.6235 70.5003 51.395 68.1257 53.3532 67.6722L61.0555 65.8883C62.2279 65.6168 63.2402 64.8814 63.8607 63.8502L67.9374 57.0761Z" fill="#2A2A2A" stroke="#2A2A2A" stroke-width="1.77778"/>
<path d="M11.0485 41.0761C12.0849 39.3539 14.5817 39.3539 15.6181 41.0761L19.6948 47.8502C20.3154 48.8814 21.3276 49.6168 22.5001 49.8883L30.2023 51.6722C32.1605 52.1257 32.9321 54.5003 31.6144 56.0182L26.4317 61.9886C25.6428 62.8975 25.2561 64.0874 25.3602 65.2864L26.0438 73.1629C26.2176 75.1654 24.1976 76.633 22.3469 75.8489L15.067 72.7648C13.9589 72.2953 12.7077 72.2953 11.5996 72.7648L4.31977 75.8489C2.46901 76.633 0.449065 75.1654 0.622853 73.1629L1.30643 65.2864C1.41049 64.0874 1.02386 62.8975 0.234928 61.9886L-4.94782 56.0182C-6.26544 54.5003 -5.49389 52.1257 -3.53572 51.6722L4.16656 49.8883C5.33902 49.6168 6.35124 48.8814 6.9718 47.8502L11.0485 41.0761Z" fill="#2A2A2A" stroke="#2A2A2A" stroke-width="1.77778"/>
<path d="M28.8263 90.8537C29.8627 89.1315 32.3595 89.1315 33.3959 90.8537L37.4726 97.6278C38.0932 98.6589 39.1054 99.3944 40.2778 99.6659L47.9801 101.45C49.9383 101.903 50.7098 104.278 49.3922 105.796L44.2095 111.766C43.4205 112.675 43.0339 113.865 43.138 115.064L43.8215 122.941C43.9953 124.943 41.9754 126.411 40.1246 125.626L32.8448 122.542C31.7367 122.073 30.4855 122.073 29.3774 122.542L22.0975 125.626C20.2468 126.411 18.2268 124.943 18.4006 122.941L19.0842 115.064C19.1883 113.865 18.8016 112.675 18.0127 111.766L12.83 105.796C11.5123 104.278 12.2839 101.903 14.242 101.45L21.9443 99.6659C23.1168 99.3944 24.129 98.6589 24.7496 97.6278L28.8263 90.8537Z" fill="#2A2A2A" stroke="#2A2A2A" stroke-width="1.77778"/>
<rect x="64" y="42.6667" width="32" height="67.5556" fill="#2A2A2A" stroke="#2A2A2A" stroke-width="3.55556"/>
<line x1="71.1743" y1="101.397" x2="71.1743" y2="92.5076" stroke="#2A2A2A" stroke-width="1.77778" stroke-linecap="round"/>
<line x1="76.5076" y1="97.8411" x2="76.5076" y2="85.3966" stroke="#2A2A2A" stroke-width="1.77778" stroke-linecap="round"/>
</g>
<rect x="1.77778" y="42.6667" width="156.444" height="67.5556" rx="5.33333" stroke="#2A2A2A" stroke-width="3.55556"/>
<path d="M17.7877 42.6667C17.9406 29.1544 19.8504 19.6 23.1631 13.1518C26.5615 6.53679 31.4529 3.14378 37.7272 2.05187C43.9634 0.966579 51.3123 3.1679 58.0158 7.62058C64.6949 12.0571 70.4982 18.5802 73.6543 25.7383C76.8519 32.9903 76.7357 37.4142 76.0497 39.8856C75.7046 41.1285 75.2005 41.9367 74.8217 42.4118C74.7433 42.5101 74.6697 42.5948 74.6033 42.6667H17.7877Z" fill="#2A2A2A" stroke="#2A2A2A" stroke-width="3.55556"/>
<path d="M140.435 42.9692C140.282 29.4569 138.372 19.9025 135.059 13.4543C131.661 6.83928 126.769 3.44627 120.495 2.35436C114.259 1.26907 106.91 3.47039 100.206 7.92307C93.5274 12.3596 87.724 18.8827 84.5679 26.0408C81.3703 33.2928 81.4865 37.7167 82.1726 40.188C82.5176 41.431 83.0218 42.2392 83.4006 42.7143C83.4789 42.8126 83.5525 42.8973 83.6189 42.9692H140.435Z" fill="#2A2A2A" stroke="#2A2A2A" stroke-width="3.55556"/>
<path d="M92.939 32.3001C100.786 27.989 106.656 25.5031 116.119 27.6641" stroke="#2A2A2A" stroke-width="3.55556" stroke-linecap="round"/>
<path d="M65.4178 33.6257C55.6782 26.6857 49.8679 24.9979 38.6567 27.329" stroke="#2A2A2A" stroke-width="3.55556" stroke-linecap="round"/>
<path d="M66.063 32.9193C66.0599 26.7407 70.9875 21.6357 77.0685 21.6357H77.0812H77.094H77.1067H77.1195H77.1322H77.1449H77.1577H77.1704H77.1832H77.1959H77.2087H77.2214H77.2341H77.2469H77.2596H77.2723H77.2851H77.2978H77.3105H77.3233H77.336H77.3487H77.3614H77.3742H77.3869H77.3996H77.4123H77.425H77.4378H77.4505H77.4632H77.4759H77.4886H77.5013H77.5141H77.5268H77.5395H77.5522H77.5649H77.5776H77.5903H77.603H77.6157H77.6284H77.6411H77.6538H77.6665H77.6792H77.6919H77.7046H77.7173H77.73H77.7427H77.7554H77.7681H77.7808H77.7935H77.8062H77.8189H77.8315H77.8442H77.8569H77.8696H77.8823H77.895H77.9077H77.9203H77.933H77.9457H77.9584H77.9711H77.9837H77.9964H78.0091H78.0218H78.0344H78.0471H78.0598H78.0725H78.0851H78.0978H78.1105H78.1231H78.1358H78.1485H78.1611H78.1738H78.1865H78.1991H78.2118H78.2245H78.2371H78.2498H78.2624H78.2751H78.2878H78.3004H78.3131H78.3257H78.3384H78.351H78.3637H78.3764H78.389H78.4017H78.4143H78.427H78.4396H78.4523H78.4649H78.4776H78.4902H78.5029H78.5155H78.5282H78.5408H78.5534H78.5661H78.5787H78.5914H78.604H78.6167H78.6293H78.6419H78.6546H78.6672H78.6799H78.6925H78.7051H78.7178H78.7304H78.743H78.7557H78.7683H78.781H78.7936H78.8062H78.8189H78.8315H78.8441H78.8568H78.8694H78.882H78.8946H78.9073H78.9199H78.9325H78.9452H78.9578H78.9704H78.9831H78.9957H79.0083H79.0209H79.0336H79.0462H79.0588H79.0714H79.0841H79.0967H79.1093H79.1219H79.1345H79.1472H79.1598H79.1724H79.185H79.1977H79.2103H79.2229H79.2355H79.2481H79.2608H79.2734H79.286H79.2986H79.3112H79.3238H79.3365H79.3491H79.3617H79.3743H79.3869H79.3995H79.4122H79.4248H79.4374H79.45H79.4626H79.4752H79.4879H79.5005H79.5131H79.5257H79.5383H79.5509H79.5635H79.5762H79.5888H79.6014H79.614H79.6266H79.6392H79.6518H79.6644H79.6771H79.6897H79.7023H79.7149H79.7275H79.7401H79.7527H79.7653H79.7779H79.7906H79.8032H79.8158H79.8284H79.841H79.8536H79.8662H79.8788H79.8914H79.904H79.9167H79.9293H79.9419H79.9545H79.9671H79.9797H79.9923H80.0049H80.0175H80.0301H80.0428H80.0554H80.068H80.0806H80.0932H80.1058H80.1184H80.131H80.1436H80.1562H80.1689H80.1815H80.1941H80.2067H80.2193H80.2319H80.2445H80.2571H80.2697H80.2824H80.295H80.3076H80.3202H80.3328H80.3454H80.358H80.3706H80.3833H80.3959H80.4085H80.4211H80.4337H80.4463H80.4589H80.4715H80.4842H80.4968H80.5094H80.522H80.5346H80.5472H80.5598H80.5725H80.5851H80.5977H80.6103H80.6229H80.6355H80.6482H80.6608H80.6734H80.686H80.6986H80.7113H80.7239H80.7365H80.7491H80.7617H80.7743H80.787H80.7996H80.8122H80.8248H80.8375H80.8501H80.8627H80.8753H80.8879H80.9006H80.9132H80.9258H80.9384H80.9511H80.9637H80.9763H80.9889H81.0016H81.0142H81.0268H81.0394H81.0521H81.0647H81.0773H81.09H81.1026H81.1152H81.1279H81.1405H81.1531H81.1657H81.1784H81.191H81.2036H81.2163H81.2289H81.2416H81.2542H81.2668H81.2795H81.2921H81.3047H81.3174H81.33H81.3427H81.3553H81.3679H81.3806H81.3932H81.4059H81.4185H81.4311H81.4438H81.4564H81.4691H81.4817H81.4944H81.507H81.5197H81.5323H81.545H81.5576H81.5703H81.5829H81.5956H81.6082H81.6209H81.6335H81.6462H81.6588H81.6715H81.6842H81.6968H81.7095H81.7221H81.7348H81.7474H81.7601H81.7728H81.7854H81.7981H81.8108H81.8234H81.8361H81.8488H81.8614H81.8741H81.8868H81.8994H81.9121H81.9248H81.9374H81.9501H81.9628H81.9755H81.9881H82.0008H82.0135H82.0262H82.0388H82.0515H82.0642H82.0769H82.0896H82.1023H82.1149H82.1276H82.1403H82.153H82.1657H82.1784H82.1911H82.2037H82.2164H82.2291H82.2418H82.2545H82.2672H82.2799H82.2926H82.3053H82.318H82.3307H82.3434H82.3561H82.3688H82.3815H82.3942H82.4069H82.4196H82.4323H82.445H82.4577H82.4705H82.4832H82.4959H82.5086H82.5213H82.534H82.5467H82.5595H82.5722H82.5849H82.5976H82.6103H82.6231H82.6358H82.6485H82.6612H82.674H82.6867H82.6994H82.7122H82.7249H82.7376H82.7503H82.7631H82.7758H82.7886H82.8013H82.814H82.8268H82.8395H82.8523H82.865H82.8778H82.8905H82.9033H82.916H82.9288H82.9415H82.9543H82.967H82.9798H82.9925H83.0053H83.018H83.0308H83.0436H83.0563H83.0691H83.0819H83.0946H83.1074H83.1202H83.1329H83.1457H83.1585H83.1713H83.184H83.1968H83.2096H83.2224H83.2351H83.2479H83.2607H83.2735H83.2863H83.2991H83.3119H83.3247H83.3374H83.3502H83.363H83.3758H83.3886H83.4014H83.4142H83.427H83.4398H83.4526H83.4654H83.4783H83.4911H83.5039H83.5167H83.5295H83.5423H83.5551C89.4462 21.6357 94.2222 26.4114 94.2222 32.3024V42.969H65.8666C66.0144 39.5483 66.0646 36.0849 66.063 32.9193Z" fill="#2A2A2A" stroke="#2A2A2A" stroke-width="3.55556"/>
<path d="M113.124 6.54901C121.883 6.25483 124.663 7.53982 127.437 11.3202" stroke="#2A2A2A" stroke-width="1.77778" stroke-linecap="round"/>
<defs>
<clipPath id="clip0_54_681">
<path d="M8.88892 76.4443H151.111V193.778C151.111 197.705 147.927 200.889 144 200.889H16C12.0727 200.889 8.88892 197.705 8.88892 193.778V76.4443Z" fill="white"/>
</clipPath>
<clipPath id="clip1_54_681">
<rect y="40.8889" width="160" height="71.1111" rx="7.11111" fill="white"/>
</clipPath>
</defs>
</svg>
