<svg width="339" height="64" viewBox="0 0 339 64" fill="none" xmlns="http://www.w3.org/2000/svg">
<path d="M26.624 53.64C21.632 53.64 17.408 52.7013 13.952 50.824C10.5387 48.9467 7.936 46.28 6.144 42.824C4.352 39.368 3.456 35.272 3.456 30.536C3.456 26.952 3.968 23.7307 4.992 20.872C6.05867 18.0133 7.57333 15.5813 9.536 13.576C11.5413 11.528 13.9733 9.97066 16.832 8.904C19.6907 7.79467 22.9333 7.24 26.56 7.24C28.9493 7.24 31.3387 7.53866 33.728 8.136C36.16 8.69066 38.4427 9.65067 40.576 11.016C41.3013 11.4853 41.7707 12.0613 41.984 12.744C42.24 13.4267 42.2827 14.1307 42.112 14.856C41.9413 15.5387 41.6213 16.136 41.152 16.648C40.6827 17.16 40.0853 17.48 39.36 17.608C38.6773 17.736 37.9093 17.5653 37.056 17.096C35.4347 16.1573 33.792 15.4747 32.128 15.048C30.464 14.6213 28.608 14.408 26.56 14.408C23.4027 14.408 20.736 15.048 18.56 16.328C16.384 17.5653 14.7413 19.3787 13.632 21.768C12.5653 24.1573 12.032 27.08 12.032 30.536C12.032 35.784 13.2907 39.7733 15.808 42.504C18.3253 45.2347 22.0587 46.6 27.008 46.6C28.7147 46.6 30.4427 46.4293 32.192 46.088C33.9413 45.7467 35.648 45.2773 37.312 44.68L35.712 48.328V34.696H28.672C27.6053 34.696 26.7733 34.4187 26.176 33.864C25.6213 33.3093 25.344 32.5627 25.344 31.624C25.344 30.6427 25.6213 29.896 26.176 29.384C26.7733 28.872 27.6053 28.616 28.672 28.616H39.232C40.2987 28.616 41.1093 28.9147 41.664 29.512C42.2613 30.0667 42.56 30.8773 42.56 31.944V47.496C42.56 48.4347 42.368 49.224 41.984 49.864C41.6427 50.504 41.0667 50.9733 40.256 51.272C38.3787 51.9547 36.224 52.5307 33.792 53C31.36 53.4267 28.9707 53.64 26.624 53.64Z" fill="white"/>
<path d="M108.271 53.512C106.948 53.512 105.903 53.1493 105.135 52.424C104.41 51.656 104.047 50.568 104.047 49.16V12.232C104.047 10.824 104.41 9.75733 105.135 9.032C105.903 8.264 106.991 7.88 108.399 7.88H130.735C131.844 7.88 132.676 8.15733 133.231 8.712C133.786 9.26667 134.063 10.056 134.063 11.08C134.063 12.1467 133.786 12.9787 133.231 13.576C132.676 14.1307 131.844 14.408 130.735 14.408H112.239V27.144H129.391C130.458 27.144 131.268 27.4213 131.823 27.976C132.42 28.5307 132.719 29.32 132.719 30.344C132.719 31.4107 132.42 32.2427 131.823 32.84C131.268 33.3947 130.458 33.672 129.391 33.672H112.239V49.16C112.239 52.0613 110.916 53.512 108.271 53.512Z" fill="white"/>
<path d="M161.023 53.512C159.7 53.512 158.676 53.1493 157.951 52.424C157.268 51.656 156.927 50.6107 156.927 49.288V14.728H144.447C143.338 14.728 142.463 14.4293 141.823 13.832C141.226 13.192 140.927 12.3387 140.927 11.272C140.927 10.1627 141.226 9.33066 141.823 8.776C142.463 8.17866 143.338 7.88 144.447 7.88H177.599C178.708 7.88 179.562 8.17866 180.159 8.776C180.799 9.33066 181.119 10.1627 181.119 11.272C181.119 12.3387 180.799 13.192 180.159 13.832C179.562 14.4293 178.708 14.728 177.599 14.728H165.119V49.288C165.119 50.6107 164.778 51.656 164.095 52.424C163.412 53.1493 162.388 53.512 161.023 53.512Z" fill="white"/>
<path d="M196.399 53C194.991 53 193.903 52.6373 193.135 51.912C192.41 51.144 192.047 50.056 192.047 48.648V12.232C192.047 10.824 192.41 9.75733 193.135 9.032C193.903 8.264 194.991 7.88 196.399 7.88H211.759C214.916 7.88 217.604 8.34933 219.823 9.288C222.042 10.2267 223.727 11.5707 224.879 13.32C226.074 15.0693 226.671 17.16 226.671 19.592C226.671 22.3227 225.882 24.6267 224.303 26.504C222.724 28.3813 220.57 29.64 217.839 30.28V29.32C220.996 29.7893 223.45 30.984 225.199 32.904C226.948 34.824 227.823 37.32 227.823 40.392C227.823 44.4027 226.458 47.5173 223.727 49.736C221.039 51.912 217.284 53 212.463 53H196.399ZM199.919 46.792H211.439C214.34 46.792 216.474 46.2373 217.839 45.128C219.204 43.976 219.887 42.2693 219.887 40.008C219.887 37.704 219.204 35.9973 217.839 34.888C216.474 33.7787 214.34 33.224 211.439 33.224H199.919V46.792ZM199.919 27.016H210.351C213.167 27.016 215.258 26.4827 216.623 25.416C218.031 24.3067 218.735 22.6853 218.735 20.552C218.735 18.4187 218.031 16.8187 216.623 15.752C215.258 14.6427 213.167 14.088 210.351 14.088H199.919V27.016Z" fill="white"/>
<path d="M301.583 53.512C300.516 53.512 299.642 53.2347 298.959 52.68C298.276 52.0827 297.871 51.3573 297.743 50.504C297.658 49.608 297.956 48.712 298.639 47.816L313.295 28.296V31.816L299.343 13.128C298.66 12.1893 298.362 11.2933 298.447 10.44C298.532 9.544 298.916 8.81866 299.599 8.264C300.282 7.66666 301.135 7.368 302.159 7.368C303.012 7.368 303.759 7.58133 304.399 8.008C305.082 8.392 305.764 9.05333 306.447 9.992L317.967 25.864H315.343L326.799 9.992C327.482 9.05333 328.143 8.392 328.783 8.008C329.466 7.58133 330.255 7.368 331.151 7.368C332.218 7.368 333.092 7.64533 333.775 8.2C334.458 8.75466 334.842 9.48 334.927 10.376C335.012 11.2293 334.692 12.1467 333.967 13.128L320.015 31.816V28.296L334.607 47.816C335.29 48.712 335.588 49.608 335.503 50.504C335.418 51.3573 335.034 52.0827 334.351 52.68C333.668 53.2347 332.772 53.512 331.663 53.512C330.852 53.512 330.106 53.2987 329.423 52.872C328.783 52.4453 328.1 51.7627 327.375 50.824L315.215 34.184H318.031L305.935 50.824C305.252 51.7627 304.57 52.4453 303.887 52.872C303.204 53.2987 302.436 53.512 301.583 53.512Z" fill="white"/>
<mask id="path-6-inside-1_51_2" fill="white">
<path fill-rule="evenodd" clip-rule="evenodd" d="M75.9736 10.588C74.7746 8.96259 72.3444 8.96259 71.1453 10.588L63.4909 20.9636C62.2607 22.6312 63.0687 24.88 64.8239 25.5491L59.1844 33.2094C57.8232 35.0583 58.9646 37.6186 61.1228 37.9518L56.5568 44.125C55.0922 46.1052 56.5058 48.909 58.9687 48.909H68.0426V51.6066C68.0426 53.8157 69.8334 55.6066 72.0426 55.6066H74.7739C76.9831 55.6066 78.7739 53.8157 78.7739 51.6066V48.909H88.1503C90.6133 48.909 92.0269 46.1051 90.5623 44.125L85.9761 37.9244C88.0354 37.4979 89.0919 35.0146 87.763 33.2094L82.1589 25.5972C84.0077 24.9952 84.8897 22.6738 83.628 20.9637L75.9736 10.588Z"/>
</mask>
<path fill-rule="evenodd" clip-rule="evenodd" d="M75.9736 10.588C74.7746 8.96259 72.3444 8.96259 71.1453 10.588L63.4909 20.9636C62.2607 22.6312 63.0687 24.88 64.8239 25.5491L59.1844 33.2094C57.8232 35.0583 58.9646 37.6186 61.1228 37.9518L56.5568 44.125C55.0922 46.1052 56.5058 48.909 58.9687 48.909H68.0426V51.6066C68.0426 53.8157 69.8334 55.6066 72.0426 55.6066H74.7739C76.9831 55.6066 78.7739 53.8157 78.7739 51.6066V48.909H88.1503C90.6133 48.909 92.0269 46.1051 90.5623 44.125L85.9761 37.9244C88.0354 37.4979 89.0919 35.0146 87.763 33.2094L82.1589 25.5972C84.0077 24.9952 84.8897 22.6738 83.628 20.9637L75.9736 10.588Z" fill="#116910"/>
<path d="M71.1453 10.588L72.7548 11.7753V11.7753L71.1453 10.588ZM75.9736 10.588L74.3642 11.7753V11.7753L75.9736 10.588ZM63.4909 20.9636L65.1004 22.151V22.151L63.4909 20.9636ZM64.8239 25.5491L66.4345 26.7348L67.9936 24.6171L65.5363 23.6803L64.8239 25.5491ZM59.1844 33.2094L57.5738 32.0237H57.5738L59.1844 33.2094ZM61.1228 37.9518L62.7307 39.1411L64.6989 36.4802L61.4279 35.9752L61.1228 37.9518ZM56.5568 44.125L54.9488 42.9357H54.9488L56.5568 44.125ZM68.0426 48.909H70.0426V46.909H68.0426V48.909ZM78.7739 48.909V46.909H76.7739V48.909H78.7739ZM90.5623 44.125L92.1702 42.9357L90.5623 44.125ZM85.9761 37.9244L85.5704 35.966L82.5089 36.6002L84.3681 39.1138L85.9761 37.9244ZM87.763 33.2094L86.1524 34.3952L87.763 33.2094ZM82.1589 25.5972L81.5396 23.6955L78.9065 24.5529L80.5483 26.7829L82.1589 25.5972ZM83.628 20.9637L82.0186 22.151L83.628 20.9637ZM72.7548 11.7753C73.1545 11.2335 73.9645 11.2335 74.3642 11.7753L77.5831 9.40064C75.5846 6.6917 71.5344 6.6917 69.5359 9.40063L72.7548 11.7753ZM65.1004 22.151L72.7548 11.7753L69.5359 9.40063L61.8815 19.7763L65.1004 22.151ZM65.5363 23.6803C64.9423 23.4539 64.7026 22.6902 65.1004 22.151L61.8815 19.7763C59.8188 22.5723 61.1951 26.3062 64.1115 27.4179L65.5363 23.6803ZM60.795 34.3952L66.4345 26.7348L63.2133 24.3634L57.5738 32.0237L60.795 34.3952ZM61.4279 35.9752C60.7158 35.8653 60.3476 35.0028 60.795 34.3952L57.5738 32.0237C55.2988 35.1138 57.2134 39.372 60.8177 39.9284L61.4279 35.9752ZM58.1647 45.3143L62.7307 39.1411L59.5148 36.7625L54.9488 42.9357L58.1647 45.3143ZM58.9687 46.909C58.1477 46.909 57.6765 45.9744 58.1647 45.3143L54.9488 42.9357C52.5078 46.2359 54.8638 50.909 58.9687 50.909V46.909ZM68.0426 46.909H58.9687V50.909H68.0426V46.909ZM70.0426 51.6066V48.909H66.0426V51.6066H70.0426ZM72.0426 53.6066C70.938 53.6066 70.0426 52.7112 70.0426 51.6066H66.0426C66.0426 54.9203 68.7289 57.6066 72.0426 57.6066V53.6066ZM74.7739 53.6066H72.0426V57.6066H74.7739V53.6066ZM76.7739 51.6066C76.7739 52.7112 75.8785 53.6066 74.7739 53.6066V57.6066C78.0876 57.6066 80.7739 54.9203 80.7739 51.6066H76.7739ZM76.7739 48.909V51.6066H80.7739V48.909H76.7739ZM88.1503 46.909H78.7739V50.909H88.1503V46.909ZM88.9543 45.3143C89.4425 45.9744 88.9713 46.909 88.1503 46.909V50.909C92.2553 50.909 94.6112 46.2359 92.1702 42.9357L88.9543 45.3143ZM84.3681 39.1138L88.9543 45.3143L92.1702 42.9357L87.584 36.7351L84.3681 39.1138ZM86.1524 34.3952C86.5871 34.9857 86.2519 35.8248 85.5704 35.966L86.3817 39.8829C89.8189 39.1709 91.5967 35.0434 89.3736 32.0237L86.1524 34.3952ZM80.5483 26.7829L86.1524 34.3952L89.3736 32.0237L83.7695 24.4115L80.5483 26.7829ZM82.0186 22.151C82.4278 22.7056 82.16 23.4935 81.5396 23.6955L82.7782 27.4989C85.8553 26.4968 87.3515 22.642 85.2375 19.7763L82.0186 22.151ZM74.3642 11.7753L82.0186 22.151L85.2375 19.7763L77.5831 9.40064L74.3642 11.7753Z" fill="white" mask="url(#path-6-inside-1_51_2)"/>
<path d="M263.271 53.64C258.919 53.64 255.1 52.68 251.815 50.76C248.572 48.84 246.055 46.152 244.263 42.696C242.471 39.1973 241.575 35.1013 241.575 30.408C241.575 26.8667 242.087 23.688 243.111 20.872C244.135 18.0133 245.586 15.5813 247.463 13.576C249.383 11.528 251.666 9.97066 254.311 8.904C256.999 7.79467 259.986 7.24 263.271 7.24C267.666 7.24 271.484 8.2 274.727 10.12C277.97 11.9973 280.487 14.664 282.279 18.12C284.071 21.576 284.967 25.6507 284.967 30.344C284.967 33.8853 284.455 37.0853 283.431 39.944C282.407 42.8027 280.935 45.256 279.015 47.304C277.138 49.352 274.855 50.9307 272.167 52.04C269.522 53.1067 266.556 53.64 263.271 53.64ZM263.271 46.6C266.044 46.6 268.391 45.96 270.311 44.68C272.274 43.4 273.767 41.544 274.791 39.112C275.858 36.68 276.391 33.7787 276.391 30.408C276.391 25.288 275.239 21.32 272.935 18.504C270.674 15.688 267.452 14.28 263.271 14.28C260.54 14.28 258.194 14.92 256.231 16.2C254.268 17.4373 252.754 19.272 251.687 21.704C250.663 24.0933 250.151 26.9947 250.151 30.408C250.151 35.4853 251.303 39.4533 253.607 42.312C255.911 45.1707 259.132 46.6 263.271 46.6Z" fill="white"/>
</svg>
