<svg width="83" height="63" viewBox="0 0 83 63" fill="none" xmlns="http://www.w3.org/2000/svg">
<g clip-path="url(#clip0_56_706)">
<path d="M20.9617 49.7398C21.2996 50.0652 21.3658 50.5818 21.1209 50.982L15.1641 60.7157C14.8273 61.2661 14.065 61.3581 13.6069 60.9035L8.64966 55.985C8.19374 55.5326 8.27637 54.7739 8.81896 54.4303L18.4196 48.3503C18.8089 48.1037 19.3164 48.1551 19.6483 48.4748L20.9617 49.7398Z" fill="#E788CC" stroke="black" stroke-width="2"/>
<path d="M17.3254 44.8484C17.4617 45.3031 17.2595 45.791 16.8415 46.0161L7.94364 50.8064C7.37652 51.1117 6.67289 50.8091 6.50442 50.1875L4.92452 44.3576C4.75934 43.7481 5.19346 43.14 5.82354 43.0982L15.7915 42.4373C16.2567 42.4065 16.6816 42.7013 16.8155 43.1479L17.3254 44.8484Z" fill="#E788CC" stroke="black" stroke-width="2"/>
<path d="M19.0644 47.246C19.2913 47.6675 19.1877 48.1907 18.8172 48.4938L7.78054 57.5272C7.2939 57.9255 6.56475 57.7811 6.26665 57.2274L2.46867 50.1727C2.16027 49.5999 2.47232 48.8897 3.10285 48.7295L17.0891 45.1748C17.5338 45.0618 17.9984 45.2659 18.2159 45.67L19.0644 47.246Z" fill="#7082E0" stroke="black" stroke-width="2"/>
<path d="M62.1182 18.5513C61.7803 18.2258 61.7141 17.7092 61.959 17.309L67.9158 7.57536C68.2527 7.02491 69.015 6.93294 69.4731 7.38748L74.4303 12.306C74.8862 12.7584 74.8036 13.5171 74.261 13.8607L64.6603 19.9408C64.271 20.1873 63.7636 20.1359 63.4316 19.8162L62.1182 18.5513Z" fill="#7082E0" stroke="black" stroke-width="2"/>
<path d="M65.7546 23.4427C65.6182 22.9879 65.8204 22.5 66.2384 22.2749L75.1363 17.4846C75.7034 17.1793 76.4071 17.4819 76.5755 18.1035L78.1554 23.9334C78.3206 24.5429 77.8865 25.151 77.2564 25.1928L67.2885 25.8537C66.8232 25.8845 66.3984 25.5897 66.2644 25.1431L65.7546 23.4427Z" fill="#7082E0" stroke="black" stroke-width="2"/>
<path d="M64.0156 21.045C63.7887 20.6236 63.8923 20.1004 64.2627 19.7972L75.2994 10.7638C75.786 10.3655 76.5152 10.5099 76.8133 11.0636L80.6113 18.1183C80.9197 18.6912 80.6076 19.4013 79.9771 19.5615L65.9909 23.1162C65.5461 23.2292 65.0816 23.0251 64.864 22.621L64.0156 21.045Z" fill="#E788CC" stroke="black" stroke-width="2"/>
<path d="M64.738 22.5728C67.1448 27.0434 66.8965 32.4931 64.3944 37.7559C61.8926 43.0181 57.1615 48.0214 50.7642 51.4654C44.367 54.9094 37.5855 56.1041 31.8153 55.2952C26.0444 54.4863 21.3584 51.6931 18.9516 47.2224C16.5448 42.7518 16.7931 37.3021 19.2952 32.0393C21.7969 26.7771 26.5281 21.7739 32.9253 18.3298C39.3226 14.8858 46.1041 13.6911 51.8743 14.5C57.6452 15.3089 62.3312 18.1022 64.738 22.5728Z" fill="#7082E0" stroke="black" stroke-width="2"/>
<path d="M24.8694 24.9056C26.6951 23.0865 28.9157 21.474 32.0407 19.5609L65.3732 33.7762C63.1042 40.13 59.6966 44.8421 53.9611 48.9158L20.1875 31.2947C21.6889 28.6371 23.1023 26.6663 24.8694 24.9056Z" fill="#E788CC" stroke="black"/>
</g>
<defs>
<clipPath id="clip0_56_706">
<rect width="83" height="63" fill="white"/>
</clipPath>
</defs>
</svg>
