<svg width="60" height="48" viewBox="0 0 60 48" fill="none" xmlns="http://www.w3.org/2000/svg">
<path d="M17.3034 7.43823L23.3041 16.4824L33.7599 19.3946L27.0127 27.8964L27.474 38.7403L17.3034 34.9506L7.1327 38.7403L7.59405 27.8964L0.846888 19.3946L11.3027 16.4824L17.3034 7.43823Z" fill="white"/>
<path d="M48.5 0L52.4881 6.01082L59.4371 7.9463L54.9529 13.5967L55.2595 20.8037L48.5 18.285L41.7405 20.8037L42.0471 13.5967L37.5628 7.9463L44.5119 6.01082L48.5 0Z" fill="white"/>
<path d="M43 32L45.7743 36.1814L50.6085 37.5279L47.489 41.4586L47.7023 46.4721L43 44.72L38.2977 46.4721L38.511 41.4586L35.3915 37.5279L40.2257 36.1814L43 32Z" fill="white"/>
</svg>
