<svg width="60" height="66" viewBox="0 0 60 66" fill="none" xmlns="http://www.w3.org/2000/svg">
<g clip-path="url(#clip0_28_117)">
<path d="M24.5543 3.6279C24.742 2.12661 26.0182 1 27.5311 1H32.4689C33.9818 1 35.258 2.12661 35.4457 3.6279L36.9457 15.6279C37.1695 17.4185 35.7734 19 33.9689 19H26.0311C24.2266 19 22.8305 17.4185 23.0543 15.6279L24.5543 3.6279Z" fill="#CFB529" stroke="black" stroke-width="2"/>
<g clip-path="url(#clip1_28_117)">
<circle cx="30" cy="36" r="29" fill="#C76DE7" stroke="black" stroke-width="2"/>
<path d="M0.5 45.2897V26.3488C0.523023 26.3406 0.547248 26.332 0.57266 26.3231C0.832987 26.2312 1.21784 26.1003 1.71164 25.946C2.69942 25.6373 4.12199 25.2352 5.85476 24.8639C9.3237 24.1206 14.0187 23.5044 18.9502 23.9975C23.6031 24.4628 26.0484 25.3621 28.4533 26.2465C28.5991 26.3001 28.7447 26.3537 28.8907 26.4071C31.4858 27.3565 34.1619 28.2464 39.4762 28.4994C44.7918 28.7526 49.9683 27.867 53.8069 26.923C55.7283 26.4506 57.3195 25.9622 58.4316 25.5915C58.8814 25.4416 59.253 25.3108 59.5366 25.2081L60.4829 43.188C60.4244 43.2144 60.3578 43.2444 60.2833 43.2775C59.9539 43.4239 59.4707 43.6326 58.8592 43.8803C57.6357 44.3759 55.9001 45.0267 53.855 45.6465C49.7544 46.8891 44.4534 47.9928 39.5498 47.5025C34.6052 47.008 32.0202 46.1464 29.4122 45.277L29.4081 45.2757C26.7675 44.3955 24.1027 43.5078 19.0498 43.0025C13.9813 42.4956 9.1763 43.1294 5.64524 43.8861C3.87801 44.2648 2.42558 44.6752 1.41336 44.9915C1.05059 45.1049 0.744214 45.2062 0.5 45.2897Z" fill="#E4D657" stroke="black"/>
</g>
<rect x="1" y="7" width="58" height="58" rx="29" stroke="black" stroke-width="2"/>
</g>
<defs>
<clipPath id="clip0_28_117">
<rect width="60" height="66" fill="white"/>
</clipPath>
<clipPath id="clip1_28_117">
<rect y="6" width="60" height="60" rx="30" fill="white"/>
</clipPath>
</defs>
</svg>
