<svg width="38" height="86" viewBox="0 0 38 86" fill="none" xmlns="http://www.w3.org/2000/svg">
<g clip-path="url(#clip0_28_83)">
<path d="M13.7009 3.42275C13.9768 2.01526 15.2105 1 16.6448 1H21.3552C22.7895 1 24.0232 2.01526 24.2991 3.42276L25.0835 7.42276C25.4468 9.27599 24.028 11 22.1395 11H15.8605C13.972 11 12.5532 9.27599 12.9165 7.42276L13.7009 3.42275Z" fill="#CFB529" stroke="black" stroke-width="2"/>
<path d="M3.93584 13.2449C4.62987 11.4024 6.49658 9.80485 9.21802 8.63382C11.9128 7.47425 15.2914 6.80395 18.7228 6.71528C22.1552 6.62658 25.5726 7.12156 28.3514 8.23288C31.1357 9.3464 33.1749 11.0318 34.0721 13.2652C36.0651 18.2265 37.3725 28.1924 37.1955 39.32C37.019 50.4231 35.367 62.486 31.5763 71.6245C29.6713 76.2171 27.6612 79.5393 25.6242 81.6881C23.5945 83.8292 21.6064 84.74 19.6979 84.7042C17.773 84.668 15.6929 83.6653 13.5004 81.476C11.3096 79.2885 9.08543 75.9911 6.89642 71.5644C2.56733 62.8098 0.986823 50.424 0.928562 39.0395C0.870245 27.6442 2.33616 17.4917 3.93584 13.2449Z" fill="#2A2A2A" stroke="black" stroke-width="2"/>
<path d="M8.04799 29.3002C8.47983 28.5826 9.52017 28.5826 9.95201 29.3002L11.6506 32.1227C11.9092 32.5524 12.331 32.8588 12.8195 32.9719L16.0288 33.7152C16.8447 33.9042 17.1661 34.8936 16.6171 35.526L14.4577 38.0137C14.1289 38.3924 13.9678 38.8882 14.0112 39.3878L14.296 42.6697C14.3684 43.5041 13.5268 44.1156 12.7556 43.7889L9.72239 42.5038C9.26066 42.3082 8.73934 42.3082 8.27761 42.5038L5.24436 43.7889C4.47321 44.1156 3.63156 43.5041 3.70398 42.6697L3.9888 39.3878C4.03216 38.8882 3.87106 38.3924 3.54234 38.0137L1.38286 35.526C0.833852 34.8936 1.15533 33.9042 1.97124 33.7152L5.18052 32.9719C5.66904 32.8588 6.0908 32.5524 6.34937 32.1227L8.04799 29.3002Z" fill="#E4D657" stroke="black" stroke-width="0.740741"/>
<path d="M27.786 16.7251C28.1099 16.187 28.8901 16.187 29.214 16.7251L30.488 18.842C30.6819 19.1643 30.9982 19.3941 31.3646 19.479L33.7716 20.0364C34.3835 20.1781 34.6246 20.9202 34.2129 21.3945L32.5932 23.2603C32.3467 23.5443 32.2259 23.9162 32.2584 24.2909L32.472 26.7523C32.5263 27.378 31.8951 27.8367 31.3167 27.5916L29.0418 26.6279C28.6955 26.4811 28.3045 26.4811 27.9582 26.6279L25.6833 27.5916C25.1049 27.8367 24.4737 27.378 24.528 26.7523L24.7416 24.2909C24.7741 23.9162 24.6533 23.5443 24.4068 23.2603L22.7871 21.3945C22.3754 20.9202 22.6165 20.1781 23.2284 20.0364L25.6354 19.479C26.0018 19.3941 26.3181 19.1643 26.512 18.842L27.786 16.7251Z" fill="#E4D657" stroke="black" stroke-width="0.555556"/>
<path d="M24.524 66.1501C24.7399 65.7913 25.2601 65.7913 25.476 66.1501L26.3253 67.5614C26.4546 67.7762 26.6655 67.9294 26.9097 67.986L28.5144 68.3576C28.9223 68.4521 29.0831 68.9468 28.8086 69.263L27.7288 70.5069C27.5645 70.6962 27.4839 70.9441 27.5056 71.1939L27.648 72.8348C27.6842 73.252 27.2634 73.5578 26.8778 73.3944L25.3612 72.7519C25.1303 72.6541 24.8697 72.6541 24.6388 72.7519L23.1222 73.3944C22.7366 73.5578 22.3158 73.252 22.352 72.8348L22.4944 71.1939C22.5161 70.9441 22.4355 70.6962 22.2712 70.5069L21.1914 69.263C20.9169 68.9468 21.0777 68.4521 21.4856 68.3576L23.0903 67.986C23.3345 67.9294 23.5454 67.7762 23.6747 67.5614L24.524 66.1501Z" fill="#E4D657" stroke="black" stroke-width="0.37037"/>
<path d="M12.7144 57.6901C12.844 57.4748 13.156 57.4748 13.2856 57.6901L13.7952 58.5368C13.8728 58.6657 13.9993 58.7576 14.1458 58.7916L15.1086 59.0146C15.3534 59.0713 15.4498 59.3681 15.2851 59.5578L14.6373 60.3041C14.5387 60.4177 14.4904 60.5665 14.5034 60.7163L14.5888 61.7009C14.6105 61.9512 14.358 62.1347 14.1267 62.0367L13.2167 61.6511C13.0782 61.5925 12.9218 61.5925 12.7833 61.6511L11.8733 62.0367C11.642 62.1347 11.3895 61.9512 11.4112 61.7009L11.4966 60.7163C11.5096 60.5665 11.4613 60.4177 11.3627 60.3041L10.7149 59.5578C10.5502 59.3681 10.6466 59.0713 10.8914 59.0146L11.8542 58.7916C12.0007 58.7576 12.1272 58.6657 12.2048 58.5368L12.7144 57.6901Z" fill="#E4D657" stroke="black" stroke-width="0.222222"/>
<path d="M28.9764 45.2651C29.2139 44.8704 29.7861 44.8704 30.0236 45.2651L30.9578 46.8175C31.1001 47.0538 31.332 47.2223 31.6007 47.2846L33.3658 47.6934C33.8146 47.7973 33.9914 48.3415 33.6894 48.6893L32.5017 50.0576C32.3209 50.2658 32.2323 50.5385 32.2562 50.8133L32.4128 52.6183C32.4526 53.0772 31.9897 53.4136 31.5656 53.2339L29.8973 52.5271C29.6434 52.4195 29.3566 52.4195 29.1027 52.5271L27.4344 53.2339C27.0103 53.4136 26.5474 53.0772 26.5872 52.6183L26.7438 50.8133C26.7677 50.5385 26.6791 50.2658 26.4983 50.0576L25.3106 48.6893C25.0086 48.3415 25.1854 47.7973 25.6342 47.6934L27.3993 47.2846C27.668 47.2223 27.8999 47.0538 28.0422 46.8175L28.9764 45.2651Z" fill="#E4D657" stroke="black" stroke-width="0.407407"/>
</g>
<defs>
<clipPath id="clip0_28_83">
<rect width="38" height="86" fill="white"/>
</clipPath>
</defs>
</svg>
