<svg width="88" height="89" viewBox="0 0 88 89" fill="none" xmlns="http://www.w3.org/2000/svg">
<mask id="path-1-inside-1_26_27" fill="white">
<path fill-rule="evenodd" clip-rule="evenodd" d="M46.7401 6.14718C45.683 3.77571 42.317 3.77572 41.2599 6.14718L30.8915 29.4077C30.4555 30.3858 29.5312 31.0573 28.4663 31.1697L3.14023 33.8427C0.558174 34.1153 -0.481988 37.3166 1.44675 39.0547L20.3648 56.1035C21.1603 56.8204 21.5133 57.907 21.2912 58.9546L16.0072 83.8671C15.4685 86.407 18.1916 88.3855 20.4407 87.0883L42.5011 74.3645C43.4288 73.8295 44.5712 73.8295 45.4989 74.3645L67.5593 87.0883C69.8084 88.3855 72.5316 86.407 71.9928 83.8671L66.7088 58.9546C66.4867 57.907 66.8397 56.8204 67.6352 56.1035L86.5533 39.0547C88.482 37.3166 87.4418 34.1153 84.8598 33.8427L59.5337 31.1697C58.4688 31.0573 57.5445 30.3858 57.1085 29.4077L46.7401 6.14718ZM44.9864 35.213C44.6059 34.3593 43.3941 34.3593 43.0136 35.213L39.2809 43.5868C39.124 43.9389 38.7912 44.1806 38.4079 44.2211L29.2905 45.1834C28.3609 45.2815 27.9865 46.434 28.6808 47.0597L35.4913 53.1973C35.7777 53.4554 35.9048 53.8465 35.8248 54.2236L33.9226 63.1922C33.7286 64.1065 34.709 64.8188 35.5187 64.3518L43.4604 59.7712C43.7944 59.5786 44.2057 59.5786 44.5396 59.7712L52.4813 64.3518C53.291 64.8188 54.2714 64.1065 54.0774 63.1922L52.1752 54.2236C52.0952 53.8465 52.2223 53.4554 52.5087 53.1973L59.3192 47.0597C60.0135 46.434 59.6391 45.2815 58.7095 45.1834L49.5921 44.2211C49.2088 44.1806 48.876 43.9389 48.7191 43.5868L44.9864 35.213Z"/>
</mask>
<path fill-rule="evenodd" clip-rule="evenodd" d="M46.7401 6.14718C45.683 3.77571 42.317 3.77572 41.2599 6.14718L30.8915 29.4077C30.4555 30.3858 29.5312 31.0573 28.4663 31.1697L3.14023 33.8427C0.558174 34.1153 -0.481988 37.3166 1.44675 39.0547L20.3648 56.1035C21.1603 56.8204 21.5133 57.907 21.2912 58.9546L16.0072 83.8671C15.4685 86.407 18.1916 88.3855 20.4407 87.0883L42.5011 74.3645C43.4288 73.8295 44.5712 73.8295 45.4989 74.3645L67.5593 87.0883C69.8084 88.3855 72.5316 86.407 71.9928 83.8671L66.7088 58.9546C66.4867 57.907 66.8397 56.8204 67.6352 56.1035L86.5533 39.0547C88.482 37.3166 87.4418 34.1153 84.8598 33.8427L59.5337 31.1697C58.4688 31.0573 57.5445 30.3858 57.1085 29.4077L46.7401 6.14718ZM44.9864 35.213C44.6059 34.3593 43.3941 34.3593 43.0136 35.213L39.2809 43.5868C39.124 43.9389 38.7912 44.1806 38.4079 44.2211L29.2905 45.1834C28.3609 45.2815 27.9865 46.434 28.6808 47.0597L35.4913 53.1973C35.7777 53.4554 35.9048 53.8465 35.8248 54.2236L33.9226 63.1922C33.7286 64.1065 34.709 64.8188 35.5187 64.3518L43.4604 59.7712C43.7944 59.5786 44.2057 59.5786 44.5396 59.7712L52.4813 64.3518C53.291 64.8188 54.2714 64.1065 54.0774 63.1922L52.1752 54.2236C52.0952 53.8465 52.2223 53.4554 52.5087 53.1973L59.3192 47.0597C60.0135 46.434 59.6391 45.2815 58.7095 45.1834L49.5921 44.2211C49.2088 44.1806 48.876 43.9389 48.7191 43.5868L44.9864 35.213Z" fill="#F4BC2A"/>
<path d="M41.2599 6.14718L43.0866 6.96145V6.96145L41.2599 6.14718ZM46.7401 6.14718L44.9134 6.96144V6.96144L46.7401 6.14718ZM30.8915 29.4077L32.7183 30.222L32.7183 30.222L30.8915 29.4077ZM28.4663 31.1697L28.6762 33.1587H28.6762L28.4663 31.1697ZM3.14023 33.8427L2.9303 31.8538H2.9303L3.14023 33.8427ZM1.44675 39.0547L0.107843 40.5404H0.107844L1.44675 39.0547ZM20.3648 56.1035L21.7037 54.6178H21.7037L20.3648 56.1035ZM21.2912 58.9546L19.3347 58.5396L21.2912 58.9546ZM16.0072 83.8671L17.9636 84.2821L16.0072 83.8671ZM20.4407 87.0883L21.44 88.8208L21.44 88.8208L20.4407 87.0883ZM42.5011 74.3645L41.5019 72.632V72.632L42.5011 74.3645ZM45.4989 74.3645L46.4981 72.632L46.4981 72.632L45.4989 74.3645ZM67.5593 87.0883L68.5585 85.3558L67.5593 87.0883ZM71.9928 83.8671L73.9493 83.4521L71.9928 83.8671ZM66.7088 58.9546L68.6653 58.5396V58.5396L66.7088 58.9546ZM67.6352 56.1035L66.2963 54.6178H66.2963L67.6352 56.1035ZM86.5533 39.0547L85.2143 37.569L86.5533 39.0547ZM84.8598 33.8427L84.6498 35.8317L84.8598 33.8427ZM59.5337 31.1697L59.3238 33.1587L59.5337 31.1697ZM57.1085 29.4077L58.9352 28.5934L57.1085 29.4077ZM43.0136 35.213L41.1868 34.3987V34.3987L43.0136 35.213ZM44.9864 35.213L43.1597 36.0272V36.0273L44.9864 35.213ZM39.2809 43.5868L37.4542 42.7725L37.4542 42.7725L39.2809 43.5868ZM38.4079 44.2211L38.198 42.2321H38.1979L38.4079 44.2211ZM29.2905 45.1834L29.0806 43.1944H29.0806L29.2905 45.1834ZM28.6808 47.0597L27.3419 48.5454H27.3419L28.6808 47.0597ZM35.4913 53.1973L36.8302 51.7116L36.8302 51.7116L35.4913 53.1973ZM35.8248 54.2236L37.7813 54.6386L37.7813 54.6386L35.8248 54.2236ZM33.9226 63.1922L31.9661 62.7772V62.7772L33.9226 63.1922ZM35.5187 64.3518L34.5194 62.6193L34.5194 62.6193L35.5187 64.3518ZM43.4604 59.7712L44.4597 61.5037L44.4597 61.5037L43.4604 59.7712ZM44.5396 59.7712L43.5403 61.5037L43.5404 61.5037L44.5396 59.7712ZM52.4813 64.3518L51.4821 66.0843H51.4821L52.4813 64.3518ZM54.0774 63.1922L56.0339 62.7772L56.0339 62.7772L54.0774 63.1922ZM52.1752 54.2236L50.2187 54.6386L50.2187 54.6386L52.1752 54.2236ZM52.5087 53.1973L53.8476 54.683L53.8476 54.683L52.5087 53.1973ZM59.3192 47.0597L57.9803 45.574H57.9803L59.3192 47.0597ZM58.7095 45.1834L58.9194 43.1944H58.9194L58.7095 45.1834ZM49.5921 44.2211L49.8021 42.2321H49.8021L49.5921 44.2211ZM48.7191 43.5868L46.8923 44.401L46.8923 44.401L48.7191 43.5868ZM43.0866 6.96145C43.439 6.17095 44.561 6.17096 44.9134 6.96144L48.5668 5.33291C46.805 1.38046 41.195 1.38048 39.4332 5.33291L43.0866 6.96145ZM32.7183 30.222L43.0866 6.96145L39.4332 5.33291L29.0648 28.5934L32.7183 30.222ZM28.6762 33.1587C30.4511 32.9713 31.9916 31.8521 32.7183 30.222L29.0648 28.5934C28.9195 28.9194 28.6114 29.1433 28.2564 29.1808L28.6762 33.1587ZM3.35015 35.8317L28.6762 33.1587L28.2564 29.1808L2.9303 31.8538L3.35015 35.8317ZM2.78566 37.569C2.14274 36.9896 2.48947 35.9225 3.35015 35.8317L2.9303 31.8538C-1.37312 32.308 -3.10672 37.6435 0.107843 40.5404L2.78566 37.569ZM21.7037 54.6178L2.78566 37.569L0.107844 40.5404L19.0259 57.5892L21.7037 54.6178ZM23.2476 59.3695C23.6179 57.6236 23.0295 55.8127 21.7037 54.6178L19.0259 57.5892C19.2911 57.8282 19.4087 58.1904 19.3347 58.5396L23.2476 59.3695ZM17.9636 84.2821L23.2476 59.3695L19.3347 58.5396L14.0507 83.4521L17.9636 84.2821ZM19.4415 85.3558C18.6918 85.7882 17.7841 85.1287 17.9636 84.2821L14.0507 83.4521C13.1528 87.6853 17.6915 90.9828 21.44 88.8208L19.4415 85.3558ZM41.5019 72.632L19.4415 85.3558L21.44 88.8208L43.5004 76.097L41.5019 72.632ZM46.4981 72.632C44.9521 71.7403 43.0479 71.7403 41.5019 72.632L43.5004 76.097C43.8096 75.9186 44.1904 75.9186 44.4996 76.097L46.4981 72.632ZM68.5585 85.3558L46.4981 72.632L44.4996 76.097L66.56 88.8208L68.5585 85.3558ZM70.0364 84.2821C70.2159 85.1287 69.3082 85.7882 68.5585 85.3558L66.56 88.8208C70.3085 90.9828 74.8472 87.6853 73.9493 83.4521L70.0364 84.2821ZM64.7524 59.3695L70.0364 84.2821L73.9493 83.4521L68.6653 58.5396L64.7524 59.3695ZM66.2963 54.6178C64.9705 55.8126 64.382 57.6236 64.7524 59.3695L68.6653 58.5396C68.5913 58.1904 68.7089 57.8282 68.9741 57.5892L66.2963 54.6178ZM85.2143 37.569L66.2963 54.6178L68.9741 57.5892L87.8922 40.5404L85.2143 37.569ZM84.6498 35.8317C85.5105 35.9225 85.8573 36.9896 85.2143 37.569L87.8922 40.5404C91.1067 37.6435 89.3731 32.308 85.0697 31.8538L84.6498 35.8317ZM59.3238 33.1587L84.6498 35.8317L85.0697 31.8538L59.7436 29.1808L59.3238 33.1587ZM55.2817 30.222C56.0084 31.8521 57.5489 32.9713 59.3238 33.1587L59.7436 29.1808C59.3886 29.1433 59.0806 28.9195 58.9352 28.5934L55.2817 30.222ZM44.9134 6.96144L55.2817 30.222L58.9352 28.5934L48.5668 5.33291L44.9134 6.96144ZM44.8403 36.0273C44.5161 36.7545 43.4839 36.7545 43.1597 36.0272L46.8132 34.3987C45.7279 31.964 42.2721 31.964 41.1868 34.3987L44.8403 36.0273ZM41.1077 44.401L44.8403 36.0273L41.1868 34.3987L37.4542 42.7725L41.1077 44.401ZM38.6178 46.21C39.7111 46.0947 40.6601 45.4052 41.1077 44.401L37.4542 42.7725C37.5879 42.4725 37.8714 42.2666 38.198 42.2321L38.6178 46.21ZM29.5004 47.1723L38.6178 46.21L38.1979 42.2321L29.0806 43.1944L29.5004 47.1723ZM30.0197 45.574C30.6112 46.107 30.2922 47.0888 29.5004 47.1723L29.0806 43.1944C26.4297 43.4742 25.3618 46.7609 27.3419 48.5454L30.0197 45.574ZM36.8302 51.7116L30.0197 45.574L27.3419 48.5454L34.1524 54.683L36.8302 51.7116ZM37.7813 54.6386C38.0094 53.5631 37.647 52.4476 36.8302 51.7116L34.1524 54.683C33.9085 54.4631 33.8002 54.1299 33.8683 53.8087L37.7813 54.6386ZM35.8791 63.6071L37.7813 54.6386L33.8683 53.8087L31.9661 62.7772L35.8791 63.6071ZM34.5194 62.6193C35.2092 62.2215 36.0443 62.8282 35.8791 63.6071L31.9661 62.7772C31.413 65.3848 34.2088 67.4161 36.5179 66.0843L34.5194 62.6193ZM42.4612 58.0387L34.5194 62.6193L36.5179 66.0843L44.4597 61.5037L42.4612 58.0387ZM45.5388 58.0387C44.5865 57.4894 43.4135 57.4894 42.4612 58.0387L44.4597 61.5037C44.1752 61.6678 43.8248 61.6678 43.5403 61.5037L45.5388 58.0387ZM53.4806 62.6193L45.5388 58.0387L43.5404 61.5037L51.4821 66.0843L53.4806 62.6193ZM52.1209 63.6071C51.9557 62.8282 52.7908 62.2215 53.4806 62.6193L51.4821 66.0843C53.7912 67.4161 56.587 65.3848 56.0339 62.7772L52.1209 63.6071ZM50.2187 54.6386L52.1209 63.6071L56.0339 62.7772L54.1317 53.8087L50.2187 54.6386ZM51.1698 51.7116C50.3531 52.4476 49.9906 53.5631 50.2187 54.6386L54.1317 53.8087C54.1998 54.1299 54.0915 54.4631 53.8476 54.683L51.1698 51.7116ZM57.9803 45.574L51.1698 51.7116L53.8476 54.683L60.6581 48.5454L57.9803 45.574ZM58.4996 47.1723C57.7078 47.0888 57.3888 46.107 57.9803 45.574L60.6581 48.5454C62.6383 46.7609 61.5703 43.4742 58.9194 43.1944L58.4996 47.1723ZM49.3822 46.21L58.4996 47.1723L58.9194 43.1944L49.8021 42.2321L49.3822 46.21ZM46.8923 44.401C47.3399 45.4052 48.2889 46.0947 49.3822 46.21L49.8021 42.2321C50.1286 42.2666 50.4121 42.4725 50.5458 42.7725L46.8923 44.401ZM43.1597 36.0273L46.8923 44.401L50.5458 42.7725L46.8132 34.3987L43.1597 36.0273Z" fill="black" mask="url(#path-1-inside-1_26_27)"/>
<path d="M43.0179 6.99984C43.008 6.45056 43.4506 6 44 6C44.5494 6 44.992 6.45056 44.9821 6.99984L44.5089 33.5001C44.504 33.7776 44.2776 34 44 34C43.7224 34 43.496 33.7776 43.4911 33.5001L43.0179 6.99984Z" fill="black"/>
<path d="M70.9947 85.4538C71.3334 85.8863 71.2515 86.5126 70.8129 86.8435C70.3744 87.1744 69.7497 87.0813 69.4267 86.637L53.8424 65.1983C53.6792 64.9738 53.7259 64.6599 53.9475 64.4927C54.1691 64.3255 54.4837 64.3667 54.6549 64.5852L70.9947 85.4538Z" fill="black"/>
<path d="M18.5185 86.6605C18.2002 87.1083 17.5766 87.208 17.1346 86.8818C16.6925 86.5555 16.604 85.9302 16.938 85.4941L33.0547 64.4527C33.2235 64.2323 33.5377 64.1878 33.7611 64.3527C33.9844 64.5175 34.0345 64.8309 33.8737 65.0571L18.5185 86.6605Z" fill="black"/>
<path d="M1.90378 37.3423C1.3841 37.1641 1.11155 36.5944 1.29897 36.078C1.48639 35.5616 2.0609 35.2993 2.57389 35.4959L27.323 44.9811C27.5821 45.0805 27.714 45.3691 27.6193 45.6301C27.5246 45.891 27.2383 46.0279 26.9757 45.9379L1.90378 37.3423Z" fill="black"/>
<path d="M85.4006 35.3564C85.9139 35.1606 86.488 35.4238 86.6746 35.9405C86.8612 36.4572 86.5878 37.0266 86.0679 37.2039L60.9828 45.761C60.7201 45.8507 60.434 45.7133 60.3397 45.4522C60.2454 45.1911 60.3777 44.9027 60.637 44.8037L85.4006 35.3564Z" fill="black"/>
<path d="M38.7009 3.42275C38.9768 2.01526 40.2105 1 41.6448 1H46.3552C47.7895 1 49.0232 2.01526 49.2991 3.42276L50.0835 7.42276C50.4468 9.27599 49.028 11 47.1395 11H40.8605C38.972 11 37.5532 9.27599 37.9165 7.42276L38.7009 3.42275Z" fill="#CFB529" stroke="black" stroke-width="2"/>
</svg>
