<svg width="81" height="80" viewBox="0 0 81 80" fill="none" xmlns="http://www.w3.org/2000/svg">
<g clip-path="url(#clip0_26_46)">
<path d="M34.3143 60.4535C34.3391 59.9199 34.779 59.5 35.3132 59.5H45.0387C45.564 59.5 45.9997 59.9064 46.0363 60.4304L47.2572 77.9304C47.2976 78.5087 46.8393 79 46.2597 79H34.4992C33.9287 79 33.4738 78.5234 33.5003 77.9535L34.3143 60.4535Z" fill="#F4BC2A" stroke="black" stroke-width="2"/>
<path d="M39.5792 2.9725C39.9764 2.39292 40.8317 2.39292 41.2289 2.97249L53.284 20.5623C53.6741 21.1315 54.2485 21.5488 54.9103 21.7439L75.3644 27.7734C76.0383 27.972 76.3027 28.7855 75.8742 29.3424L62.8706 46.2429C62.4498 46.7898 62.2304 47.4651 62.2493 48.1548L62.8356 69.471C62.8549 70.1734 62.1629 70.6761 61.5009 70.4407L41.4092 63.2961C40.759 63.0649 40.0491 63.0649 39.3989 63.2961L19.3072 70.4407C18.6452 70.6761 17.9532 70.1734 17.9725 69.471L18.5588 48.1548C18.5777 47.4651 18.3583 46.7898 17.9376 46.2429L4.93391 29.3424C4.50544 28.7855 4.76976 27.972 5.4437 27.7734L25.8978 21.7439C26.5597 21.5488 27.134 21.1315 27.5241 20.5623L39.5792 2.9725Z" fill="#F4BC2A" stroke="black" stroke-width="2"/>
<line x1="40.4041" y1="3" x2="40.4041" y2="40" stroke="black" stroke-width="2" stroke-linecap="round"/>
<line x1="5.66896" y1="28.3675" x2="39.7716" y2="39.7351" stroke="black" stroke-width="2" stroke-linecap="round"/>
<line x1="75.7716" y1="28.2649" x2="41.669" y2="39.6325" stroke="black" stroke-width="2" stroke-linecap="round"/>
<line x1="62.0098" y1="69.7632" x2="41.1673" y2="40.3943" stroke="black" stroke-width="2" stroke-linecap="round"/>
<line x1="19.1673" y1="69.6057" x2="40.0098" y2="40.2368" stroke="black" stroke-width="2" stroke-linecap="round"/>
</g>
<defs>
<clipPath id="clip0_26_46">
<rect width="80" height="80" fill="white" transform="translate(0.404053)"/>
</clipPath>
</defs>
</svg>
