<svg width="300" height="320" viewBox="0 0 300 320" fill="none" xmlns="http://www.w3.org/2000/svg">
<g clip-path="url(#clip0_201_175)">
<g filter="url(#filter0_d_201_175)">
<path d="M124.128 259.639C124.488 256.931 126.789 254.887 129.522 254.887H168.141C170.908 254.887 173.223 256.978 173.562 259.724C175.335 274.088 177.861 284.682 183.04 301.025C184.037 304.174 182.033 307.501 178.767 307.997C156.782 311.338 142.186 310.979 120.164 307.879C116.956 307.427 114.894 304.245 115.738 301.117C119.458 287.325 121.794 277.203 124.128 259.639Z" fill="#624213"/>
<path d="M129.522 255.887H168.141C170.392 255.887 172.291 257.59 172.57 259.847C174.352 274.287 176.895 284.943 182.086 301.327C182.904 303.909 181.257 306.607 178.617 307.008C156.743 310.332 142.246 309.978 120.304 306.889C117.702 306.522 116.013 303.936 116.703 301.377C120.432 287.553 122.778 277.387 125.119 259.771C125.414 257.552 127.298 255.887 129.522 255.887Z" stroke="black" stroke-width="2"/>
</g>
<g filter="url(#filter1_d_201_175)">
<mask id="path-3-inside-1_201_175" fill="white">
<path fill-rule="evenodd" clip-rule="evenodd" d="M146.701 3.66148C148.145 1.80425 150.953 1.80424 152.398 3.66148L238.11 113.834C240.937 117.468 239.686 122.784 235.535 124.775L227.967 128.404L264.942 175.972C268.397 180.418 266.982 186.908 261.989 189.51L253.444 193.965L295.695 248.261C299.333 252.936 298.539 259.665 293.914 263.365L287.402 268.575C286.78 269.072 286.111 269.5 285.391 269.841C264.678 279.656 234.788 285.229 200.685 274.009C198.243 273.206 195.591 273.212 193.17 274.077C161.444 285.415 141.745 285.465 110.026 274.096C107.582 273.22 104.902 273.218 102.441 274.046C67.1907 285.9 39.969 279.122 16.6068 269.745C15.9115 269.466 15.2509 269.112 14.6299 268.693L6.447 263.172C1.251 259.666 0.108425 252.495 3.95784 247.548L45.6542 193.965L37.1094 189.51C32.1164 186.908 30.7007 180.418 34.1563 175.972L71.1308 128.404L63.5631 124.775C59.4121 122.784 58.1606 117.468 60.9876 113.834L146.701 3.66148Z"/>
</mask>
<path fill-rule="evenodd" clip-rule="evenodd" d="M146.701 3.66148C148.145 1.80425 150.953 1.80424 152.398 3.66148L238.11 113.834C240.937 117.468 239.686 122.784 235.535 124.775L227.967 128.404L264.942 175.972C268.397 180.418 266.982 186.908 261.989 189.51L253.444 193.965L295.695 248.261C299.333 252.936 298.539 259.665 293.914 263.365L287.402 268.575C286.78 269.072 286.111 269.5 285.391 269.841C264.678 279.656 234.788 285.229 200.685 274.009C198.243 273.206 195.591 273.212 193.17 274.077C161.444 285.415 141.745 285.465 110.026 274.096C107.582 273.22 104.902 273.218 102.441 274.046C67.1907 285.9 39.969 279.122 16.6068 269.745C15.9115 269.466 15.2509 269.112 14.6299 268.693L6.447 263.172C1.251 259.666 0.108425 252.495 3.95784 247.548L45.6542 193.965L37.1094 189.51C32.1164 186.908 30.7007 180.418 34.1563 175.972L71.1308 128.404L63.5631 124.775C59.4121 122.784 58.1606 117.468 60.9876 113.834L146.701 3.66148Z" fill="url(#paint0_linear_201_175)"/>
<path d="M152.398 3.66148L153.976 2.4334L153.976 2.43339L152.398 3.66148ZM146.701 3.66148L145.122 2.43339L145.122 2.4334L146.701 3.66148ZM238.11 113.834L236.532 115.063L236.532 115.063L238.11 113.834ZM235.535 124.775L236.4 126.578L236.4 126.578L235.535 124.775ZM227.967 128.404L227.102 126.601L224.866 127.674L226.388 129.632L227.967 128.404ZM264.942 175.972L266.521 174.745L266.521 174.745L264.942 175.972ZM261.989 189.51L262.913 191.284L262.913 191.284L261.989 189.51ZM253.444 193.965L252.519 192.191L250.392 193.3L251.865 195.193L253.444 193.965ZM295.695 248.261L297.274 247.033L297.274 247.033L295.695 248.261ZM293.914 263.365L295.164 264.927L295.164 264.927L293.914 263.365ZM287.402 268.575L286.152 267.013L286.152 267.013L287.402 268.575ZM285.391 269.841L284.535 268.033L284.535 268.033L285.391 269.841ZM200.685 274.009L200.06 275.909L200.06 275.909L200.685 274.009ZM193.17 274.077L192.497 272.194L192.497 272.194L193.17 274.077ZM110.026 274.096L109.351 275.979L109.351 275.979L110.026 274.096ZM102.441 274.046L101.804 272.15L101.804 272.15L102.441 274.046ZM16.6068 269.745L15.8618 271.601L15.8618 271.601L16.6068 269.745ZM14.6299 268.693L13.5113 270.351L13.5113 270.351L14.6299 268.693ZM6.447 263.172L5.32839 264.83L5.3284 264.83L6.447 263.172ZM3.95784 247.548L5.53625 248.776L5.53625 248.776L3.95784 247.548ZM45.6542 193.965L47.2326 195.193L48.7057 193.3L46.5787 192.191L45.6542 193.965ZM37.1094 189.51L36.1849 191.284L36.1849 191.284L37.1094 189.51ZM34.1563 175.972L32.5772 174.745L32.5772 174.745L34.1563 175.972ZM71.1308 128.404L72.7099 129.632L74.2319 127.674L71.9957 126.601L71.1308 128.404ZM63.5631 124.775L62.6982 126.578L62.6982 126.578L63.5631 124.775ZM60.9876 113.834L59.409 112.606L59.409 112.606L60.9876 113.834ZM153.976 2.43339C151.73 -0.45306 147.368 -0.453056 145.122 2.43339L148.279 4.88958C148.923 4.06155 150.175 4.06155 150.819 4.88957L153.976 2.43339ZM239.689 112.606L153.976 2.4334L150.819 4.88957L236.532 115.063L239.689 112.606ZM236.4 126.578C241.701 124.036 243.299 117.247 239.689 112.606L236.532 115.063C238.576 117.689 237.671 121.532 234.67 122.972L236.4 126.578ZM228.832 130.208L236.4 126.578L234.67 122.972L227.102 126.601L228.832 130.208ZM266.521 174.745L229.546 127.177L226.388 129.632L263.363 177.2L266.521 174.745ZM262.913 191.284C269.013 188.104 270.742 180.176 266.521 174.745L263.363 177.2C266.052 180.66 264.95 185.711 261.064 187.737L262.913 191.284ZM254.368 195.738L262.913 191.284L261.064 187.737L252.519 192.191L254.368 195.738ZM251.865 195.193L294.117 249.49L297.274 247.033L255.022 192.736L251.865 195.193ZM294.117 249.49C297.082 253.3 296.435 258.787 292.665 261.803L295.164 264.927C300.643 260.543 301.583 252.571 297.274 247.033L294.117 249.49ZM292.665 261.803L286.152 267.013L288.651 270.137L295.164 264.927L292.665 261.803ZM286.152 267.013C285.641 267.422 285.103 267.764 284.535 268.033L286.248 271.648C287.119 271.235 287.919 270.723 288.651 270.137L286.152 267.013ZM284.535 268.033C264.225 277.657 234.866 283.149 201.311 272.11L200.06 275.909C234.71 287.309 265.13 281.654 286.248 271.648L284.535 268.033ZM201.311 272.11C198.46 271.172 195.351 271.174 192.497 272.194L193.843 275.961C195.831 275.25 198.025 275.24 200.06 275.909L201.311 272.11ZM192.497 272.194C176.754 277.82 164.137 280.593 151.594 280.601C139.051 280.61 126.437 277.853 110.701 272.213L109.351 275.979C125.334 281.707 138.429 284.61 151.597 284.601C164.764 284.593 177.859 281.672 193.843 275.961L192.497 272.194ZM110.701 272.213C107.82 271.181 104.678 271.184 101.804 272.15L103.079 275.942C105.127 275.253 107.343 275.259 109.351 275.979L110.701 272.213ZM101.804 272.15C67.1725 283.796 40.4715 277.169 17.3518 267.889L15.8618 271.601C39.4665 281.076 67.2089 288.003 103.079 275.942L101.804 272.15ZM17.3518 267.889C16.7922 267.664 16.2564 267.378 15.7484 267.035L13.5113 270.351C14.2454 270.846 15.0308 271.267 15.8618 271.601L17.3518 267.889ZM15.7485 267.035L7.56561 261.514L5.3284 264.83L13.5113 270.351L15.7485 267.035ZM7.56561 261.514C3.32942 258.656 2.39791 252.809 5.53625 248.776L2.37943 246.319C-2.18106 252.18 -0.827426 260.677 5.32839 264.83L7.56561 261.514ZM5.53625 248.776L47.2326 195.193L44.0758 192.736L2.37942 246.319L5.53625 248.776ZM36.1849 191.284L44.7297 195.738L46.5787 192.191L38.0339 187.737L36.1849 191.284ZM32.5772 174.745C28.3557 180.176 30.0852 188.104 36.1849 191.284L38.0339 187.737C34.1476 185.711 33.0458 180.66 35.7353 177.2L32.5772 174.745ZM69.5517 127.177L32.5772 174.745L35.7353 177.2L72.7099 129.632L69.5517 127.177ZM62.6982 126.578L70.2659 130.208L71.9957 126.601L64.428 122.972L62.6982 126.578ZM59.409 112.606C55.7988 117.247 57.397 124.036 62.6982 126.578L64.428 122.972C61.4271 121.532 60.5225 117.689 62.5661 115.063L59.409 112.606ZM145.122 2.4334L59.409 112.606L62.5661 115.063L148.279 4.88957L145.122 2.4334Z" fill="black" mask="url(#path-3-inside-1_201_175)"/>
</g>
<path fill-rule="evenodd" clip-rule="evenodd" d="M125.057 129.807C115.408 132.949 107.608 134.288 99.432 133.888C91.2454 133.487 82.7117 131.344 71.6025 127.566C71.3666 127.486 71.2404 127.23 71.3206 126.994C71.4008 126.758 71.657 126.632 71.8929 126.712C82.9757 130.481 91.4154 132.592 99.4761 132.987C107.529 133.381 115.233 132.063 124.842 128.928C124.937 128.897 125.035 128.9 125.124 128.929C125.187 128.92 125.254 128.924 125.32 128.944C134.9 131.868 142.296 133.314 149.589 133.311C156.881 133.307 164.099 131.856 173.323 128.946L173.434 128.91L173.548 128.934C186.032 131.466 195.173 132.578 203.323 132.226C211.465 131.874 218.641 130.061 227.193 126.711C227.425 126.621 227.687 126.735 227.777 126.967C227.868 127.199 227.754 127.461 227.522 127.551C218.906 130.926 211.63 132.77 203.362 133.127C195.128 133.483 185.935 132.363 173.483 129.841C164.267 132.743 156.979 134.21 149.59 134.213C142.171 134.216 134.679 132.744 125.057 129.807Z" fill="black"/>
<path d="M125.057 129.807L125.203 129.329L125.052 129.283L124.902 129.332L125.057 129.807ZM99.432 133.888L99.4564 133.388L99.432 133.888ZM71.6025 127.566L71.7634 127.093L71.7634 127.093L71.6025 127.566ZM71.3206 126.994L71.794 127.155L71.794 127.155L71.3206 126.994ZM71.8929 126.712L71.732 127.186L71.732 127.186L71.8929 126.712ZM99.4761 132.987L99.5005 132.487L99.4761 132.987ZM124.842 128.928L124.997 129.404L124.997 129.404L124.842 128.928ZM125.124 128.929L124.966 129.404L125.078 129.441L125.195 129.424L125.124 128.929ZM125.32 128.944L125.174 129.422L125.174 129.422L125.32 128.944ZM149.589 133.311L149.589 133.811L149.589 133.811L149.589 133.311ZM173.323 128.946L173.172 128.469L173.172 128.469L173.323 128.946ZM173.434 128.91L173.533 128.42L173.407 128.395L173.284 128.434L173.434 128.91ZM173.548 128.934L173.449 129.424L173.449 129.424L173.548 128.934ZM203.323 132.226L203.302 131.726L203.302 131.726L203.323 132.226ZM227.193 126.711L227.01 126.246L227.01 126.246L227.193 126.711ZM227.777 126.967L228.243 126.785L228.243 126.785L227.777 126.967ZM227.522 127.551L227.704 128.017L227.704 128.017L227.522 127.551ZM203.362 133.127L203.384 133.627L203.384 133.627L203.362 133.127ZM173.483 129.841L173.582 129.351L173.456 129.325L173.333 129.364L173.483 129.841ZM149.59 134.213L149.589 133.713L149.589 133.713L149.59 134.213ZM124.902 129.332C115.292 132.461 107.554 133.785 99.4564 133.388L99.4075 134.387C107.662 134.791 115.525 133.437 125.212 130.283L124.902 129.332ZM99.4564 133.388C91.3396 132.991 82.858 130.865 71.7634 127.093L71.4415 128.04C82.5654 131.822 91.1513 133.983 99.4075 134.387L99.4564 133.388ZM71.7634 127.093C71.789 127.102 71.8027 127.129 71.794 127.155L70.8472 126.833C70.6781 127.33 70.9442 127.871 71.4415 128.04L71.7634 127.093ZM71.794 127.155C71.7853 127.181 71.7575 127.194 71.732 127.186L72.0539 126.239C71.5566 126.07 71.0163 126.336 70.8472 126.833L71.794 127.155ZM71.732 127.186C82.8294 130.959 91.3212 133.088 99.4516 133.486L99.5005 132.487C91.5096 132.096 83.122 130.002 72.0539 126.239L71.732 127.186ZM99.4516 133.486C107.583 133.884 115.349 132.551 124.997 129.404L124.687 128.453C115.116 131.575 107.475 132.878 99.5005 132.487L99.4516 133.486ZM124.997 129.404C124.987 129.407 124.975 129.407 124.966 129.404L125.281 128.455C125.095 128.393 124.887 128.388 124.687 128.453L124.997 129.404ZM125.195 129.424C125.188 129.425 125.18 129.424 125.174 129.422L125.466 128.466C125.328 128.424 125.187 128.415 125.052 128.434L125.195 129.424ZM125.174 129.422C134.777 132.354 142.227 133.814 149.589 133.811L149.589 132.811C142.366 132.814 135.023 131.383 125.466 128.466L125.174 129.422ZM149.589 133.811C156.952 133.807 164.224 132.341 173.473 129.422L173.172 128.469C163.974 131.371 156.81 132.808 149.589 132.811L149.589 133.811ZM173.473 129.422L173.585 129.387L173.284 128.434L173.172 128.469L173.473 129.422ZM173.335 129.4L173.449 129.424L173.648 128.444L173.533 128.42L173.335 129.4ZM173.449 129.424C185.947 131.959 195.134 133.08 203.345 132.725L203.302 131.726C195.212 132.076 186.118 130.973 173.648 128.444L173.449 129.424ZM203.345 132.725C211.556 132.371 218.788 130.54 227.375 127.177L227.01 126.246C218.494 129.581 211.373 131.378 203.302 131.726L203.345 132.725ZM227.375 127.177C227.35 127.187 227.322 127.174 227.312 127.149L228.243 126.785C228.051 126.295 227.5 126.054 227.01 126.246L227.375 127.177ZM227.312 127.149C227.302 127.124 227.314 127.096 227.34 127.086L227.704 128.017C228.193 127.825 228.435 127.274 228.243 126.785L227.312 127.149ZM227.34 127.086C218.759 130.446 211.538 132.274 203.341 132.628L203.384 133.627C211.721 133.267 219.053 131.405 227.704 128.017L227.34 127.086ZM203.341 132.628C195.167 132.981 186.02 131.87 173.582 129.351L173.384 130.331C185.85 132.856 195.09 133.985 203.384 133.627L203.341 132.628ZM173.333 129.364C164.142 132.258 156.909 133.71 149.589 133.713L149.59 134.713C157.05 134.71 164.391 133.228 173.633 130.318L173.333 129.364ZM149.589 133.713C142.241 133.716 134.801 132.259 125.203 129.329L124.911 130.286C134.556 133.229 142.102 134.716 149.59 134.713L149.589 133.713Z" fill="black"/>
<path fill-rule="evenodd" clip-rule="evenodd" d="M45.2313 192.404C45.3466 192.183 45.6192 192.098 45.84 192.213C58.5937 198.877 68.4879 202.994 78.3207 204.72C88.1448 206.446 97.9411 205.79 110.503 202.854C110.68 202.813 110.857 202.882 110.962 203.017C126.28 207.428 138.15 209.705 149.837 209.745C161.518 209.786 173.045 207.592 187.677 203.027C187.788 202.876 187.986 202.804 188.175 202.863C202.645 207.351 212.991 207.608 222.601 205.303C231.106 203.263 239.05 199.216 248.805 194.246C250.107 193.583 251.44 192.903 252.812 192.21C253.034 192.098 253.306 192.187 253.418 192.409C253.53 192.632 253.441 192.903 253.219 193.015C251.85 193.707 250.517 194.387 249.213 195.051C239.475 200.013 231.428 204.113 222.811 206.18C213.076 208.515 202.634 208.254 188.19 203.812C173.392 208.445 161.705 210.688 149.834 210.647C137.953 210.606 125.915 208.276 110.421 203.8C97.9185 206.697 88.0687 207.348 78.1646 205.609C68.1934 203.858 58.2008 199.69 45.4222 193.013C45.2013 192.897 45.1159 192.625 45.2313 192.404Z" fill="black"/>
<path d="M45.84 192.213L45.6085 192.656L45.6085 192.656L45.84 192.213ZM45.2313 192.404L45.6744 192.635L45.2313 192.404ZM78.3207 204.72L78.2342 205.213L78.2342 205.213L78.3207 204.72ZM110.503 202.854L110.617 203.341L110.617 203.341L110.503 202.854ZM110.962 203.017L110.567 203.324L110.667 203.452L110.824 203.497L110.962 203.017ZM149.837 209.745L149.839 209.245L149.839 209.245L149.837 209.745ZM187.677 203.027L187.826 203.504L187.983 203.455L188.08 203.322L187.677 203.027ZM188.175 202.863L188.323 202.385L188.323 202.385L188.175 202.863ZM222.601 205.303L222.718 205.789L222.718 205.789L222.601 205.303ZM248.805 194.246L249.032 194.691L249.032 194.691L248.805 194.246ZM252.812 192.21L252.586 191.764L252.586 191.764L252.812 192.21ZM253.418 192.409L252.972 192.635L252.972 192.635L253.418 192.409ZM253.219 193.015L252.993 192.569L252.993 192.569L253.219 193.015ZM249.213 195.051L248.986 194.605L248.986 194.605L249.213 195.051ZM222.811 206.18L222.695 205.694L222.695 205.694L222.811 206.18ZM188.19 203.812L188.337 203.334L188.189 203.288L188.041 203.335L188.19 203.812ZM149.834 210.647L149.835 210.147L149.834 210.647ZM110.421 203.8L110.559 203.319L110.434 203.283L110.308 203.313L110.421 203.8ZM78.1646 205.609L78.0782 206.102L78.0782 206.102L78.1646 205.609ZM45.4222 193.013L45.1906 193.456L45.4222 193.013ZM46.0716 191.77C45.606 191.527 45.0314 191.707 44.7881 192.172L45.6744 192.635C45.6619 192.659 45.6324 192.669 45.6085 192.656L46.0716 191.77ZM78.4072 204.228C68.6511 202.515 58.8114 198.426 46.0716 191.77L45.6085 192.656C58.3759 199.327 68.3247 203.473 78.2342 205.213L78.4072 204.228ZM110.389 202.367C97.87 205.294 88.145 205.938 78.4072 204.228L78.2342 205.213C88.1446 206.953 98.0121 206.287 110.617 203.341L110.389 202.367ZM111.357 202.71C111.137 202.427 110.763 202.28 110.389 202.367L110.617 203.341C110.597 203.346 110.578 203.337 110.567 203.324L111.357 202.71ZM110.824 203.497C126.162 207.914 138.082 210.204 149.835 210.245L149.839 209.245C138.218 209.205 126.399 206.942 111.1 202.536L110.824 203.497ZM149.835 210.245C161.585 210.286 173.166 208.078 187.826 203.504L187.528 202.549C172.925 207.106 161.451 209.285 149.839 209.245L149.835 210.245ZM188.323 202.385C187.924 202.261 187.507 202.413 187.274 202.731L188.08 203.322C188.069 203.338 188.048 203.347 188.027 203.34L188.323 202.385ZM222.484 204.817C212.98 207.096 202.726 206.853 188.323 202.385L188.027 203.34C202.564 207.85 213.003 208.119 222.718 205.789L222.484 204.817ZM248.578 193.8C238.81 198.777 230.921 202.793 222.484 204.817L222.718 205.789C231.291 203.733 239.289 199.655 249.032 194.691L248.578 193.8ZM252.586 191.764C251.214 192.458 249.88 193.137 248.578 193.8L249.032 194.691C250.334 194.028 251.667 193.349 253.038 192.656L252.586 191.764ZM253.864 192.184C253.627 191.715 253.055 191.527 252.586 191.764L253.037 192.656C253.013 192.669 252.984 192.659 252.972 192.635L253.864 192.184ZM253.445 193.462C253.913 193.225 254.101 192.653 253.864 192.184L252.972 192.635C252.96 192.611 252.969 192.581 252.993 192.569L253.445 193.462ZM249.44 195.496C250.744 194.832 252.076 194.153 253.445 193.462L252.993 192.569C251.624 193.262 250.289 193.941 248.986 194.605L249.44 195.496ZM222.928 206.666C231.613 204.583 239.714 200.452 249.44 195.496L248.986 194.605C239.235 199.574 231.242 203.644 222.695 205.694L222.928 206.666ZM188.043 204.29C202.554 208.753 213.088 209.027 222.928 206.666L222.695 205.694C213.063 208.004 202.714 207.756 188.337 203.334L188.043 204.29ZM188.041 203.335C173.27 207.959 161.637 210.188 149.835 210.147L149.832 211.147C161.772 211.189 173.513 208.931 188.339 204.289L188.041 203.335ZM149.835 210.147C138.021 210.106 126.034 207.79 110.559 203.319L110.282 204.28C125.796 208.762 137.884 211.106 149.832 211.147L149.835 210.147ZM78.0782 206.102C88.0678 207.856 97.9884 207.194 110.533 204.287L110.308 203.313C97.8486 206.2 88.0696 206.841 78.2511 205.117L78.0782 206.102ZM45.1906 193.456C57.983 200.14 68.0303 204.337 78.0782 206.102L78.2511 205.117C68.3566 203.379 58.4185 199.239 45.6537 192.57L45.1906 193.456ZM44.7881 192.172C44.5448 192.638 44.7251 193.213 45.1906 193.456L45.6537 192.57C45.6776 192.582 45.6869 192.612 45.6744 192.635L44.7881 192.172Z" fill="black"/>
</g>
<defs>
<filter id="filter0_d_201_175" x="107.548" y="252.887" width="83.7485" height="71.4697" filterUnits="userSpaceOnUse" color-interpolation-filters="sRGB">
<feFlood flood-opacity="0" result="BackgroundImageFix"/>
<feColorMatrix in="SourceAlpha" type="matrix" values="0 0 0 0 0 0 0 0 0 0 0 0 0 0 0 0 0 0 127 0" result="hardAlpha"/>
<feOffset dy="6"/>
<feGaussianBlur stdDeviation="4"/>
<feComposite in2="hardAlpha" operator="out"/>
<feColorMatrix type="matrix" values="0 0 0 0 0 0 0 0 0 0 0 0 0 0 0 0 0 0 0.39 0"/>
<feBlend mode="normal" in2="BackgroundImageFix" result="effect1_dropShadow_201_175"/>
<feBlend mode="normal" in="SourceGraphic" in2="effect1_dropShadow_201_175" result="shape"/>
</filter>
<filter id="filter1_d_201_175" x="-6.32538" y="0.268555" width="312.304" height="296.333" filterUnits="userSpaceOnUse" color-interpolation-filters="sRGB">
<feFlood flood-opacity="0" result="BackgroundImageFix"/>
<feColorMatrix in="SourceAlpha" type="matrix" values="0 0 0 0 0 0 0 0 0 0 0 0 0 0 0 0 0 0 127 0" result="hardAlpha"/>
<feOffset dy="6"/>
<feGaussianBlur stdDeviation="4"/>
<feComposite in2="hardAlpha" operator="out"/>
<feColorMatrix type="matrix" values="0 0 0 0 0 0 0 0 0 0 0 0 0 0 0 0 0 0 0.39 0"/>
<feBlend mode="normal" in2="BackgroundImageFix" result="effect1_dropShadow_201_175"/>
<feBlend mode="normal" in="SourceGraphic" in2="effect1_dropShadow_201_175" result="shape"/>
</filter>
<linearGradient id="paint0_linear_201_175" x1="149.826" y1="2.26855" x2="149.826" y2="282.601" gradientUnits="userSpaceOnUse">
<stop stop-color="#084B0B"/>
<stop offset="0.651972" stop-color="#126B16"/>
<stop offset="1" stop-color="#1C8D20"/>
</linearGradient>
<clipPath id="clip0_201_175">
<rect width="300" height="320" fill="white"/>
</clipPath>
</defs>
</svg>
