<svg width="665" height="688" viewBox="0 0 665 688" fill="none" xmlns="http://www.w3.org/2000/svg">
<path d="M276.141 575.666C276.874 570.151 281.557 566 287.106 566H372.712C378.331 566 383.046 570.246 383.737 575.845C387.677 607.761 393.293 631.306 404.784 667.575C406.816 673.988 402.731 680.733 396.117 681.738C347.495 689.127 315.239 688.336 266.503 681.475C259.998 680.559 255.801 674.101 257.518 667.736C265.772 637.132 270.96 614.65 276.141 575.666Z" fill="#624213" stroke="black" stroke-width="2"/>
<mask id="path-2-inside-1_37_107" fill="white">
<path fill-rule="evenodd" clip-rule="evenodd" d="M325.186 8.11606C328.389 3.99918 334.612 3.99919 337.814 8.11607L527.812 252.333C534.078 260.388 531.304 272.171 522.102 276.584L505.327 284.63L587.288 390.072C594.947 399.926 591.809 414.312 580.741 420.081L561.8 429.954L655.458 550.312C663.521 560.674 661.762 575.591 651.51 583.792L637.074 595.341C635.695 596.444 634.212 597.39 632.617 598.146C586.702 619.903 520.447 632.258 444.853 607.387C439.438 605.606 433.561 605.619 428.192 607.538C357.868 632.669 314.201 632.78 243.891 607.579C238.473 605.637 232.534 605.634 227.078 607.468C148.939 633.744 88.598 618.721 36.8117 597.934C35.2705 597.315 33.8061 596.532 32.4295 595.603L14.2908 583.365C2.773 575.594 0.240301 559.696 8.77316 548.731L101.2 429.954L82.2591 420.081C71.1913 414.312 68.0532 399.926 75.713 390.072L157.673 284.63L140.898 276.584C131.697 272.171 128.923 260.388 135.189 252.333L325.186 8.11606Z"/>
</mask>
<path fill-rule="evenodd" clip-rule="evenodd" d="M325.186 8.11606C328.389 3.99918 334.612 3.99919 337.814 8.11607L527.812 252.333C534.078 260.388 531.304 272.171 522.102 276.584L505.327 284.63L587.288 390.072C594.947 399.926 591.809 414.312 580.741 420.081L561.8 429.954L655.458 550.312C663.521 560.674 661.762 575.591 651.51 583.792L637.074 595.341C635.695 596.444 634.212 597.39 632.617 598.146C586.702 619.903 520.447 632.258 444.853 607.387C439.438 605.606 433.561 605.619 428.192 607.538C357.868 632.669 314.201 632.78 243.891 607.579C238.473 605.637 232.534 605.634 227.078 607.468C148.939 633.744 88.598 618.721 36.8117 597.934C35.2705 597.315 33.8061 596.532 32.4295 595.603L14.2908 583.365C2.773 575.594 0.240301 559.696 8.77316 548.731L101.2 429.954L82.2591 420.081C71.1913 414.312 68.0532 399.926 75.713 390.072L157.673 284.63L140.898 276.584C131.697 272.171 128.923 260.388 135.189 252.333L325.186 8.11606Z" fill="url(#paint0_linear_37_107)"/>
<path d="M337.814 8.11607L336.236 9.34415V9.34416L337.814 8.11607ZM325.186 8.11606L323.608 6.88797V6.88798L325.186 8.11606ZM527.812 252.333L529.39 251.105L527.812 252.333ZM522.102 276.584L522.967 278.387H522.967L522.102 276.584ZM505.327 284.63L504.462 282.826L502.226 283.899L503.748 285.857L505.327 284.63ZM587.288 390.072L588.867 388.845H588.867L587.288 390.072ZM580.741 420.081L579.817 418.308L580.741 420.081ZM561.8 429.954L560.876 428.181L558.749 429.29L560.222 431.183L561.8 429.954ZM655.458 550.312L653.88 551.541L655.458 550.312ZM651.51 583.792L652.759 585.354L651.51 583.792ZM637.074 595.341L638.323 596.903L637.074 595.341ZM632.617 598.146L631.761 596.339H631.761L632.617 598.146ZM444.853 607.387L444.228 609.287H444.228L444.853 607.387ZM428.192 607.538L427.519 605.654L428.192 607.538ZM243.891 607.579L243.216 609.462H243.216L243.891 607.579ZM227.078 607.468L227.715 609.364L227.078 607.468ZM36.8117 597.934L36.0666 599.79L36.0666 599.79L36.8117 597.934ZM32.4295 595.603L33.5481 593.945L32.4295 595.603ZM14.2908 583.365L15.4094 581.707L15.4094 581.707L14.2908 583.365ZM8.77316 548.731L10.3516 549.959H10.3516L8.77316 548.731ZM101.2 429.954L102.779 431.183L104.252 429.29L102.125 428.181L101.2 429.954ZM82.2591 420.081L83.1836 418.308L82.2591 420.081ZM75.713 390.072L77.2921 391.299L75.713 390.072ZM157.673 284.63L159.252 285.857L160.774 283.899L158.538 282.826L157.673 284.63ZM140.898 276.584L140.033 278.387L140.898 276.584ZM135.189 252.333L133.61 251.105L135.189 252.333ZM339.393 6.88799C335.389 1.74189 327.611 1.74188 323.608 6.88797L326.765 9.34415C329.167 6.25649 333.834 6.2565 336.236 9.34415L339.393 6.88799ZM529.39 251.105L339.393 6.88799L336.236 9.34416L526.233 253.561L529.39 251.105ZM522.967 278.387C533.319 273.423 536.44 260.166 529.39 251.105L526.233 253.561C531.716 260.609 529.289 270.919 521.237 274.781L522.967 278.387ZM506.192 286.433L522.967 278.387L521.237 274.781L504.462 282.826L506.192 286.433ZM588.867 388.845L506.906 283.402L503.748 285.857L585.709 391.299L588.867 388.845ZM581.666 421.855C593.841 415.509 597.292 399.684 588.867 388.845L585.708 391.299C592.602 400.168 589.778 413.116 579.817 418.308L581.666 421.855ZM562.725 431.728L581.666 421.855L579.817 418.308L560.876 428.181L562.725 431.728ZM560.222 431.183L653.88 551.541L657.037 549.084L563.379 428.726L560.222 431.183ZM653.88 551.541C661.271 561.038 659.658 574.712 650.26 582.23L652.759 585.354C663.866 576.469 665.771 560.309 657.037 549.084L653.88 551.541ZM650.26 582.23L635.824 593.779L638.323 596.903L652.759 585.354L650.26 582.23ZM635.824 593.779C634.557 594.793 633.205 595.655 631.761 596.339L633.474 599.954C635.22 599.126 636.834 598.094 638.323 596.903L635.824 593.779ZM631.761 596.339C586.25 617.905 520.525 630.178 445.478 605.487L444.228 609.287C520.369 634.338 587.155 621.902 633.474 599.954L631.761 596.339ZM445.478 605.487C439.655 603.572 433.321 603.581 427.519 605.654L428.865 609.421C433.8 607.657 439.221 607.64 444.228 609.287L445.478 605.487ZM427.519 605.654C392.478 618.177 364.219 624.414 336.035 624.433C307.852 624.452 279.598 618.253 244.566 605.696L243.216 609.462C278.494 622.106 307.229 628.452 336.038 628.433C364.846 628.414 393.583 622.03 428.865 609.421L427.519 605.654ZM244.566 605.696C238.711 603.598 232.309 603.599 226.44 605.572L227.715 609.364C232.758 607.668 238.234 607.676 243.216 609.462L244.566 605.696ZM226.44 605.572C148.921 631.64 89.1004 616.768 37.5567 596.078L36.0666 599.79C88.0955 620.674 148.958 635.848 227.715 609.364L226.44 605.572ZM37.5567 596.078C36.1512 595.514 34.8117 594.798 33.5481 593.945L31.3109 597.261C32.8006 598.266 34.3898 599.117 36.0666 599.79L37.5567 596.078ZM33.5481 593.945L15.4094 581.707L13.1722 585.023L31.3109 597.261L33.5481 593.945ZM15.4094 581.707C4.85142 574.583 2.52978 560.01 10.3516 549.959L7.19475 547.502C-2.04918 559.382 0.69457 576.604 13.1722 585.023L15.4094 581.707ZM10.3516 549.959L102.779 431.183L99.6217 428.726L7.19475 547.502L10.3516 549.959ZM81.3347 421.855L100.276 431.728L102.125 428.181L83.1836 418.308L81.3347 421.855ZM74.1339 388.845C65.7082 399.684 69.1601 415.509 81.3347 421.855L83.1836 418.308C73.2226 413.116 70.3983 400.168 77.2921 391.299L74.1339 388.845ZM156.094 283.402L74.1339 388.845L77.2921 391.299L159.252 285.857L156.094 283.402ZM140.033 278.387L156.808 286.433L158.538 282.826L141.763 274.781L140.033 278.387ZM133.61 251.105C126.561 260.166 129.682 273.423 140.033 278.387L141.763 274.781C133.712 270.919 131.285 260.609 136.768 253.561L133.61 251.105ZM323.608 6.88798L133.61 251.105L136.768 253.561L326.765 9.34415L323.608 6.88798Z" fill="black" mask="url(#path-2-inside-1_37_107)"/>
<path fill-rule="evenodd" clip-rule="evenodd" d="M277.209 289.957C255.822 296.921 238.531 299.889 220.408 299.002C202.261 298.113 183.344 293.362 158.719 284.989C158.196 284.811 157.916 284.243 158.094 283.721C158.272 283.198 158.84 282.918 159.363 283.096C183.93 291.449 202.638 296.129 220.505 297.004C238.356 297.878 255.433 294.956 276.732 288.009C276.944 287.94 277.161 287.945 277.357 288.01C277.499 287.99 277.646 287.999 277.792 288.044C299.028 294.525 315.424 297.73 331.59 297.722C347.753 297.715 363.754 294.498 384.199 288.046L384.446 287.969L384.699 288.02C412.372 293.634 432.634 296.098 450.7 295.318C468.747 294.538 484.654 290.518 503.611 283.094C504.125 282.893 504.705 283.146 504.907 283.66C505.108 284.175 504.854 284.755 504.34 284.956C485.241 292.436 469.112 296.524 450.786 297.316C432.535 298.104 412.155 295.621 384.554 290.031C364.124 296.463 347.971 299.715 331.59 299.722C315.146 299.73 298.538 296.467 277.209 289.957Z" fill="black"/>
<path fill-rule="evenodd" clip-rule="evenodd" d="M561.743 428.724C561.993 429.217 561.795 429.819 561.302 430.068C558.267 431.602 555.312 433.108 552.423 434.58C530.836 445.579 512.998 454.668 493.899 459.25C472.318 464.426 449.173 463.847 417.154 454C384.352 464.269 358.446 469.243 332.131 469.152C305.795 469.06 279.112 463.896 244.766 453.973C217.053 460.396 195.219 461.839 173.265 457.984C151.162 454.102 129.012 444.862 100.686 430.062C100.196 429.806 100.007 429.202 100.263 428.712C100.518 428.223 101.123 428.033 101.612 428.289C129.883 443.061 151.815 452.186 173.611 456.014C195.388 459.838 217.103 458.386 244.948 451.877C245.341 451.785 245.733 451.939 245.966 452.238C279.921 462.016 306.232 467.062 332.138 467.152C358.032 467.242 383.584 462.38 416.018 452.259C416.263 451.925 416.702 451.766 417.121 451.896C449.197 461.846 472.131 462.414 493.432 457.305C512.284 452.783 529.894 443.812 551.519 432.795C554.403 431.326 557.36 429.82 560.4 428.283C560.893 428.034 561.494 428.231 561.743 428.724Z" fill="black"/>
<defs>
<linearGradient id="paint0_linear_37_107" x1="331.248" y1="10.0568" x2="331.248" y2="626.433" gradientUnits="userSpaceOnUse">
<stop stop-color="#084B0B"/>
<stop offset="0.651972" stop-color="#126B16"/>
<stop offset="1" stop-color="#1C8D20"/>
</linearGradient>
</defs>
</svg>
